<svg width="650" height="700" viewBox="0 0 650 700" fill="none" xmlns="http://www.w3.org/2000/svg">
<g clip-path="url(#clip0_123_1581)">
<path d="M512.222 331.58C530.977 343.308 548.545 359.013 565 378.383V408C556.97 405.349 526.322 394.361 514.22 376.984C500.234 356.901 497.746 326.415 509.395 318.783C512.43 316.799 516.115 316.552 520.158 317.64C532.909 326.534 545.105 337.321 556.754 349.89C560.881 356.042 563.436 363.876 565 371.792V372.167C549.93 351.819 532.212 338.619 512.222 331.58Z" fill="#D7E9D7"/>
<path d="M511.569 150.663C530.132 162.34 547.52 177.978 563.808 197.265V204C562.25 203.481 559.843 202.653 556.877 201.515C543.556 186.106 528.369 175.729 511.569 169.777C523.322 177.167 534.61 186.151 545.44 196.646C533.985 191.266 520.589 183.293 513.546 173.117C512.8 172.043 512.091 170.96 511.419 169.868C499.572 150.681 498.789 129.637 509.703 122.447C521.233 114.846 541.448 125.614 555.291 145.602C563.295 157.17 565.543 175.12 566 188.181C565.263 189.127 564.535 190.092 563.808 191.075C548.892 170.814 531.354 157.671 511.569 150.663Z" fill="#D7E9D7"/>
<path d="M645.605 248.973V248.983C644.17 252.915 642.371 256.887 640.227 260.799C637.043 266.622 632.15 272.025 626.611 276.857C620.677 282.04 613.985 286.562 607.828 290.234C599.236 295.367 591.684 298.848 588.712 300.169V297.018C605.786 276.907 623.942 260.519 643.301 248.172C622.739 255.556 604.432 269.163 588.712 289.904V276.007C605.786 255.896 623.942 239.508 643.301 227.161C622.739 234.545 604.432 248.152 588.712 268.893V254.996C605.564 235.156 623.457 218.937 642.532 206.651C651.469 213.765 652.247 230.923 645.605 248.973Z" fill="#D7E9D7"/>
<path d="M153.5 386C227.782 386 288 327.573 288 255.5C288 183.427 227.782 125 153.5 125C79.2177 125 19 183.427 19 255.5C19 327.573 79.2177 386 153.5 386Z" fill="#FF6884"/>
<path d="M575.627 464.308C587.041 473.572 591.332 486.755 585.212 493.752C579.092 500.75 564.88 498.911 553.464 489.643C548.851 486.001 545.21 481.348 542.846 476.072L495 436.234L514.882 415L559.939 456.528C565.739 457.877 571.118 460.545 575.627 464.308Z" fill="#FCB4B4"/>
<path d="M537 434.886L479.182 362.593L424.42 265L423 400.351L505.086 466L537 434.886Z" fill="#2F2E41"/>
<path d="M285 236L298.268 178L342.616 180.051L354 222.127L285 236Z" fill="#FCB4B4"/>
<path opacity="0.1" d="M285 236L298.268 178L342.616 180.051L354 222.127L285 236Z" fill="black"/>
<path d="M319 193C346.614 193 369 171.51 369 145C369 118.49 346.614 97 319 97C291.386 97 269 118.49 269 145C269 171.51 291.386 193 319 193Z" fill="#FCB4B4"/>
<path d="M296.728 164.087C296.728 164.087 291.693 164.039 281.22 162.15C270.748 160.261 288.931 184 288.931 184C239.648 164.037 255.418 113.402 255.418 113.402C205.402 104.123 226.355 60.9904 226.355 60.9904C226.355 60.9904 242.842 30.1259 293.525 32.0899C344.207 34.054 320.264 82.5455 320.264 82.5455C353.285 82.6062 357 111.475 357 111.475C357 111.475 345.096 112.917 323.463 118.243C301.829 123.569 296.728 164.087 296.728 164.087Z" fill="#2F2E41"/>
<path d="M295 217.245L292.732 213C292.732 213 252.378 217.495 245.756 223.429C239.135 229.364 224 255.727 224 255.727L257.107 283L295 217.245Z" fill="#FFB6B6"/>
<path d="M344 216.828C344 216.828 374.202 209.112 391.191 225.385C408.18 241.659 428 271.494 428 271.494L427.056 295L379.865 273.209L344 216.828Z" fill="#FFB6B6"/>
<path d="M352.026 213.191C352.026 213.191 391.328 199.563 416.689 228.634C442.049 257.705 449.564 349.461 449.564 349.461C449.564 349.461 506.86 519.344 492.771 521.161C478.681 522.978 392.7 528 392.7 528L363.15 343.102L350 213.19L352.026 213.191Z" fill="#2F2E41"/>
<path d="M262.338 377L253 409.87L380 419C380 419 375.331 391.522 380 381.522L262.338 377Z" fill="#FCB4B4"/>
<path d="M334 589.73L339.594 668L410 666.18L407.651 587L334 589.73Z" fill="#FCB4B4"/>
<path d="M223.789 582L203 667L277.117 666.514L296 597.036L223.789 582Z" fill="#FCB4B4"/>
<path d="M350.288 213H292.659L246 273.09L256.335 396C256.335 396 279.823 389.627 312.707 389.627H383.172C383.172 389.627 372.837 357.761 385.991 345.015C399.144 332.269 389.749 273.09 389.749 273.09L350.288 213Z" fill="#89B78B"/>
<path d="M247.64 400L195 584.059C195 584.059 272.513 614.102 319.296 605.428C366.08 596.753 430 594.033 430 594.033L384.88 407.254L247.64 400Z" fill="#2F2E41"/>
<path d="M368.76 467.308C380.051 476.572 384.296 489.755 378.242 496.752C372.187 503.75 358.129 501.911 346.835 492.643C342.272 489.001 338.67 484.348 336.332 479.072L289 439.234L308.669 418L353.241 459.528C358.978 460.877 364.3 463.545 368.76 467.308Z" fill="#FCB4B4"/>
<path d="M340 434.886L282.182 362.593L227.42 265L226 400.351L308.086 466L340 434.886Z" fill="#2F2E41"/>
<path d="M295.988 213.191C295.988 213.191 256.957 199.563 231.771 228.634C206.585 257.705 199.123 349.461 199.123 349.461C199.123 349.461 142.222 519.344 156.214 521.161C170.206 522.978 255.595 528 255.595 528L284.941 343.102L298 213.19L295.988 213.191Z" fill="#2F2E41"/>
<path d="M589.723 161.722H587.701V509.902H589.723V161.722Z" fill="#3F3D56"/>
</g>
<defs>
<clipPath id="clip0_123_1581">
<rect width="650" height="700" fill="white"/>
</clipPath>
</defs>
</svg>
