<svg width="650" height="700" viewBox="0 0 650 700" fill="none" xmlns="http://www.w3.org/2000/svg">
<path d="M280.189 655.309C280.189 655.309 295.892 627.932 316.052 644.119C336.212 660.306 373.547 687.618 373.547 687.618C373.547 687.618 381.194 705.088 361.402 698.526C341.61 691.964 277 681.404 277 681.404L280.189 655.309Z" fill="#A0616A"/>
<path d="M202.778 690C185.854 690 170.359 688.278 158.048 684.207C143.415 679.369 134.227 671.545 130.736 660.934C129.096 656.429 128.606 651.544 129.317 646.773C130.027 642.002 131.912 637.516 134.781 633.768C156.429 603.816 231.549 595.367 241.628 594.369L262.076 553.253C263.385 543.442 257.194 536.016 267.889 535.83L394.404 534.006C404.907 533.771 401.926 540.678 403.725 550.243L423 586.782L340.042 623.961L352.585 656.415L351.766 656.92C327.487 671.875 257.664 689.998 202.778 690Z" fill="#2F2E41"/>
<path d="M412.132 588.602C412.132 588.602 528.216 574.66 520.645 630.426C513.074 686.191 424.749 725.691 291 630.426L306.141 602.543C306.141 602.543 355.982 599.941 386.265 586L412.132 588.602Z" fill="#2F2E41"/>
<path d="M247.073 333.154C247.073 333.154 225.472 328.9 219.58 365.064C213.689 401.229 204.252 486.894 204.252 486.894L174.951 596.934C171.495 598.921 168.633 601.933 166.698 605.617C164.763 609.301 163.836 613.505 164.024 617.739C164.212 621.972 165.509 626.061 167.762 629.526C170.015 632.991 173.132 635.69 176.748 637.308C180.364 638.926 184.331 639.396 188.185 638.663C192.038 637.931 195.62 636.025 198.511 633.169C201.403 630.313 203.484 626.625 204.513 622.536C205.542 618.446 205.475 614.124 204.321 610.074L243.527 493.284L251 392.728V340.038C251 338.609 250.633 337.208 249.939 335.992C249.245 334.776 248.253 333.794 247.073 333.154Z" fill="#A0616A"/>
<path d="M402.018 333.154C402.018 333.154 424.115 328.9 430.142 365.064C436.169 401.229 445.822 486.894 445.822 486.894L475.797 596.934C479.332 598.921 482.261 601.933 484.24 605.617C486.22 609.301 487.168 613.505 486.976 617.739C486.783 621.972 485.457 626.061 483.152 629.526C480.847 632.991 477.658 635.69 473.959 637.308C470.259 638.926 466.201 639.396 462.259 638.663C458.317 637.931 454.653 636.025 451.695 633.169C448.738 630.313 446.608 626.625 445.556 622.536C444.503 618.446 444.572 614.124 445.752 610.074L405.645 493.284L398 392.728V340.038C398 338.609 398.376 337.208 399.085 335.992C399.795 334.776 400.81 333.794 402.018 333.154Z" fill="#A0616A"/>
<path d="M400.962 304.584L359.092 288.102L277.934 287L243 304.584L252.812 363.933C252.812 363.933 233.002 399.237 254.813 434.545L262.5 550.764C262.5 550.764 365.5 598.5 404 550.764L389.072 433.791C389.072 433.791 414.041 379.519 394.688 359.357L400.962 304.584Z" fill="#EC9D9D"/>
<path d="M384 323.13L400.57 305C400.57 305 436.734 325.255 435.989 393L390.37 378.03L384 323.13Z" fill="#EC9D9D"/>
<path d="M261 322.081L243.372 303C243.372 303 212.267 329.043 213.013 398L254.621 377.963L261 322.081Z" fill="#EC9D9D"/>
<path d="M380.362 641.625C380.362 641.625 367.249 613.002 345.349 626.723C323.449 640.445 283.154 663.235 283.154 663.235C283.154 663.235 273.729 679.578 294.309 675.28C314.889 670.981 381 667.627 381 667.627L380.362 641.625Z" fill="#A0616A"/>
<path d="M343.024 126.103C343.207 125.917 343.399 125.751 343.58 125.561C355.172 113.36 357.522 96.0517 348.827 86.9011C340.611 78.2535 325.478 79.9987 314.055 90.5128C304.261 80.6987 291.128 77.9628 282.628 84.7377C272.826 92.5499 272.902 110.034 282.799 123.79C283.477 124.732 284.188 125.622 284.918 126.479C271.748 131.553 260.376 140.763 252.342 152.863C244.308 164.962 240 179.367 240 194.129V262.691C240 264.701 240.376 266.692 241.107 268.549C241.838 270.407 242.91 272.094 244.26 273.516C245.611 274.938 247.215 276.065 248.979 276.835C250.744 277.604 252.636 278 254.546 278H374.942C378.671 278 382.246 276.441 384.883 273.666C387.519 270.892 389 267.128 389 263.204V194.129C388.998 179.169 384.57 164.581 376.331 152.39C368.092 140.2 356.451 131.012 343.024 126.103Z" fill="#2F2E41"/>
<path d="M357.579 253.799C379.896 230.194 379.896 191.924 357.579 168.32C335.261 144.715 299.077 144.715 276.76 168.32C254.442 191.924 254.442 230.194 276.76 253.799C299.077 277.403 335.261 277.403 357.579 253.799Z" fill="#A0616A"/>
<path d="M258 173.484C270.891 183.038 286.192 188.123 301.848 188.056C296.264 192.22 289.906 195.032 283.213 196.3C304.029 201.101 325.543 201.231 346.408 196.682C351.046 195.882 355.521 194.229 359.637 191.796C361.689 190.564 363.476 188.882 364.883 186.859C366.289 184.835 367.285 182.516 367.803 180.052C369.19 171.535 363.018 163.797 356.604 158.582C346.783 150.719 335.461 145.302 323.454 142.722C311.448 140.142 299.059 140.464 287.183 143.665C279.428 145.821 271.659 149.462 266.622 156.159C261.586 162.856 260.093 173.18 264.892 180.076L258 173.484Z" fill="#2F2E41"/>
</svg>
