<svg width="939" height="710" viewBox="0 0 939 710" fill="none" xmlns="http://www.w3.org/2000/svg">
<path d="M429.32 664.576C429.32 664.576 445.663 636.75 466.646 653.203C487.629 669.656 526.488 697.415 526.488 697.415C526.488 697.415 534.447 715.171 513.847 708.502C493.247 701.832 426 691.1 426 691.1L429.32 664.576Z" fill="#A0616A"/>
<path d="M348.79 700C331.174 700 315.047 698.256 302.234 694.133C287.003 689.233 277.441 681.308 273.807 670.562C272.1 665.999 271.59 661.051 272.33 656.219C273.069 651.387 275.031 646.843 278.017 643.047C300.548 612.711 378.734 604.154 389.225 603.143L410.508 561.499C411.87 551.563 405.427 544.042 416.558 543.854L548.237 542.006C559.169 541.768 556.066 548.764 557.938 558.452L578 595.459L491.656 633.114L504.711 665.984L503.859 666.496C478.589 681.643 405.916 699.998 348.79 700Z" fill="#2F2E41"/>
<path d="M566.872 596.653C566.872 596.653 687.498 582.438 679.631 639.297C671.764 696.155 579.983 736.43 441 639.297L456.734 610.867C456.734 610.867 508.525 608.215 539.993 594L566.872 596.653Z" fill="#2F2E41"/>
<path d="M394.892 338.156C394.892 338.156 372.298 333.846 366.136 370.483C359.974 407.121 350.103 493.905 350.103 493.905L319.455 605.384C315.84 607.397 312.846 610.448 310.822 614.18C308.798 617.912 307.828 622.172 308.025 626.461C308.222 630.75 309.578 634.891 311.935 638.402C314.292 641.913 317.552 644.647 321.334 646.286C325.117 647.926 329.266 648.402 333.297 647.659C337.328 646.917 341.074 644.986 344.098 642.093C347.122 639.2 349.3 635.464 350.376 631.321C351.452 627.178 351.382 622.799 350.175 618.696L391.183 500.379L399 398.509V345.13C399 343.682 398.616 342.263 397.89 341.031C397.165 339.799 396.126 338.804 394.892 338.156Z" fill="#A0616A"/>
<path d="M556.198 338.156C556.198 338.156 579.289 333.846 585.587 370.483C591.884 407.121 601.972 493.905 601.972 493.905L633.293 605.384C636.988 607.397 640.048 610.448 642.116 614.18C644.184 617.912 645.176 622.172 644.974 626.461C644.773 630.75 643.387 634.891 640.979 638.402C638.57 641.913 635.238 644.647 631.373 646.286C627.507 647.926 623.267 648.402 619.147 647.659C615.028 646.917 611.199 644.986 608.109 642.093C605.018 639.2 602.793 635.464 601.693 631.321C600.593 627.178 600.665 622.799 601.898 618.696L559.989 500.379L552 398.509V345.13C552 343.682 552.393 342.263 553.134 341.031C553.876 339.799 554.937 338.804 556.198 338.156Z" fill="#A0616A"/>
<path d="M554.849 308.825L511.418 292.117L427.236 291L391 308.825L401.177 368.987C401.177 368.987 380.629 404.775 403.253 440.566L408.33 568.1C408.33 568.1 489.492 616.509 558 558.378L542.516 439.802C542.516 439.802 568.415 384.786 548.341 364.348L554.849 308.825Z" fill="#EC9D9D"/>
<path d="M538 327.542L555.207 309C555.207 309 592.762 329.715 591.988 399L544.615 383.69L538 327.542Z" fill="#EC9D9D"/>
<path d="M410 326.483L391.637 307C391.637 307 359.237 333.591 360.014 404L403.356 383.542L410 326.483Z" fill="#EC9D9D"/>
<path d="M533.337 650.976C533.337 650.976 519.699 621.813 496.923 635.793C474.147 649.774 432.24 672.994 432.24 672.994C432.24 672.994 422.438 689.646 443.841 685.266C465.245 680.887 534 677.469 534 677.469L533.337 650.976Z" fill="#A0616A"/>
<path d="M495.173 127.79C495.364 127.601 495.563 127.433 495.751 127.24C507.81 114.853 510.254 97.2809 501.209 87.991C492.663 79.2117 476.92 80.9835 465.037 91.6577C454.848 81.6942 441.187 78.9165 432.344 85.7946C422.147 93.7258 422.227 111.476 432.523 125.441C433.227 126.398 433.967 127.302 434.727 128.172C421.026 133.323 409.197 142.673 400.839 154.957C392.482 167.241 388 181.865 388 196.852V266.457C388 268.499 388.391 270.52 389.152 272.405C389.912 274.291 391.027 276.005 392.432 277.448C393.837 278.891 395.505 280.036 397.341 280.817C399.177 281.598 401.145 282 403.132 282H528.376C532.255 282 535.974 280.417 538.717 277.6C541.459 274.783 543 270.963 543 266.979V196.852C542.998 181.664 538.391 166.854 529.821 154.477C521.25 142.101 509.14 132.774 495.173 127.79Z" fill="#2F2E41"/>
<path d="M510.083 257.424C533.328 233.483 533.328 194.666 510.083 170.724C486.837 146.782 449.149 146.782 425.903 170.724C402.658 194.666 402.658 233.483 425.903 257.424C449.149 281.366 486.837 281.366 510.083 257.424Z" fill="#A0616A"/>
<path d="M406 176.035C419.477 185.751 435.473 190.922 451.841 190.853C446.003 195.088 439.356 197.948 432.359 199.237C454.121 204.12 476.613 204.252 498.427 199.625C503.275 198.812 507.954 197.131 512.257 194.657C514.402 193.404 516.27 191.693 517.741 189.636C519.212 187.578 520.252 185.22 520.794 182.714C522.244 174.053 515.791 166.183 509.086 160.88C498.819 152.884 486.982 147.375 474.43 144.751C461.878 142.128 448.925 142.455 436.509 145.71C428.402 147.902 420.28 151.606 415.014 158.416C409.748 165.226 408.189 175.725 413.206 182.738L406 176.035Z" fill="#2F2E41"/>
</svg>
