<svg width="650" height="700" viewBox="0 0 650 700" fill="none" xmlns="http://www.w3.org/2000/svg">
<g clip-path="url(#clip0_158_271)">
<path d="M3.64253 157.073C2.36973 157.504 1.29089 158.525 0.642677 159.912C-0.00553228 161.299 -0.17019 162.939 0.184833 164.472L83.5565 522.872C83.9145 524.404 84.7627 525.702 85.9151 526.482C87.0675 527.263 88.43 527.461 89.7036 527.034L397.054 423.442C398.327 423.011 399.405 421.99 400.054 420.603C400.702 419.216 400.866 417.576 400.512 416.043L317.14 57.643C316.782 56.1109 315.934 54.8123 314.781 54.0321C313.629 53.2518 312.266 53.0536 310.993 53.481L3.64253 157.073Z" fill="#E6E6E6"/>
<path d="M93.5656 510.11L386.451 411.393L307.13 70.4049L14.2441 169.121L93.5656 510.11Z" fill="white"/>
<path d="M52.9678 214.653C51.0137 215.312 50.2081 219.219 51.172 223.362C52.1358 227.506 54.51 230.341 56.4641 229.683L190.045 184.66C191.999 184.001 192.804 180.094 191.841 175.95C190.877 171.807 188.503 168.971 186.549 169.63L52.9678 214.653Z" fill="#E6E6E6"/>
<path d="M63.7251 260.898C61.771 261.556 60.9654 265.464 61.9293 269.607C62.8932 273.751 65.2673 276.586 67.2214 275.927L200.802 230.904C202.756 230.246 203.562 226.339 202.598 222.195C201.634 218.052 199.26 215.216 197.306 215.875L63.7251 260.898Z" fill="#E6E6E6"/>
<path d="M74.3589 306.61C72.4049 307.268 71.5992 311.175 72.5631 315.319C73.527 319.463 75.9011 322.298 77.8552 321.639L211.436 276.616C213.39 275.958 214.196 272.051 213.232 267.907C212.268 263.764 209.894 260.928 207.94 261.587L74.3589 306.61Z" fill="#E6E6E6"/>
<path d="M85.1163 352.855C83.1622 353.513 82.3565 357.42 83.3204 361.564C84.2843 365.707 86.6584 368.543 88.6125 367.884L222.193 322.861C224.147 322.202 224.953 318.295 223.989 314.152C223.025 310.008 220.651 307.173 218.697 307.832L85.1163 352.855Z" fill="#E6E6E6"/>
<path d="M254.339 147.315C253.518 147.59 252.751 148.057 252.08 148.69C251.41 149.323 250.849 150.108 250.431 151.002C250.013 151.896 249.745 152.88 249.643 153.898C249.541 154.916 249.607 155.948 249.837 156.936C250.067 157.924 250.456 158.847 250.982 159.653C251.509 160.46 252.162 161.133 252.905 161.636C253.648 162.138 254.465 162.459 255.311 162.581C256.157 162.702 257.015 162.622 257.835 162.344L282.807 153.927C284.463 153.369 285.867 152.042 286.71 150.238C287.553 148.434 287.766 146.301 287.302 144.308C286.839 142.315 285.736 140.626 284.238 139.611C282.739 138.596 280.967 138.34 279.311 138.898L254.339 147.315Z" fill="#E6E6E6"/>
<path d="M264.888 192.663C264.068 192.939 263.3 193.406 262.629 194.039C261.959 194.671 261.399 195.457 260.98 196.351C260.562 197.244 260.295 198.228 260.193 199.246C260.091 200.265 260.156 201.297 260.386 202.285C260.616 203.272 261.005 204.196 261.531 205.002C262.058 205.808 262.711 206.482 263.454 206.984C264.197 207.487 265.015 207.808 265.861 207.929C266.707 208.051 267.564 207.97 268.385 207.693L293.357 199.276C295.012 198.718 296.416 197.391 297.259 195.587C298.102 193.783 298.315 191.65 297.852 189.657C297.388 187.664 296.286 185.974 294.787 184.959C293.288 183.945 291.516 183.688 289.861 184.246L264.888 192.663Z" fill="#E6E6E6"/>
<path d="M275.437 238.012C274.617 238.288 273.851 238.756 273.181 239.389C272.512 240.022 271.952 240.807 271.535 241.7C271.117 242.594 270.85 243.577 270.749 244.595C270.647 245.612 270.713 246.644 270.942 247.631C271.172 248.617 271.561 249.54 272.086 250.346C272.612 251.152 273.265 251.826 274.007 252.328C274.749 252.83 275.566 253.152 276.411 253.274C277.256 253.397 278.114 253.317 278.933 253.041L303.906 244.624C305.561 244.066 306.965 242.739 307.808 240.935C308.651 239.131 308.864 236.998 308.401 235.005C307.937 233.012 306.835 231.323 305.336 230.308C303.837 229.293 302.065 229.037 300.409 229.595L275.437 238.012Z" fill="#E6E6E6"/>
<path d="M285.986 283.36C284.332 283.92 282.931 285.247 282.089 287.051C281.248 288.854 281.035 290.985 281.498 292.977C281.962 294.968 283.063 296.657 284.56 297.672C286.057 298.687 287.827 298.945 289.482 298.39L314.455 289.973C316.109 289.413 317.51 288.086 318.352 286.282C319.193 284.479 319.406 282.348 318.942 280.356C318.479 278.365 317.378 276.676 315.881 275.661C314.384 274.646 312.614 274.388 310.958 274.943L285.986 283.36Z" fill="#E6E6E6"/>
<path d="M296.065 361.965C295.019 362.316 294.041 362.911 293.187 363.717C292.332 364.524 291.618 365.525 291.086 366.663C290.553 367.802 290.212 369.056 290.082 370.353C289.952 371.651 290.036 372.966 290.328 374.224C290.621 375.483 291.117 376.659 291.788 377.687C292.459 378.714 293.291 379.573 294.238 380.213C295.184 380.853 296.226 381.262 297.304 381.417C298.382 381.572 299.475 381.469 300.52 381.116L332.34 370.391C334.45 369.68 336.238 367.989 337.313 365.69C338.387 363.392 338.658 360.674 338.067 358.134C337.477 355.595 336.072 353.441 334.162 352.149C332.253 350.856 329.995 350.529 327.885 351.24L296.065 361.965Z" fill="#D3D3D3"/>
<path d="M328.813 323.288L93.3496 402.65L93.9357 405.169L329.399 325.807L328.813 323.288Z" fill="#E6E6E6"/>
<path d="M596 662.456L573.993 668L543 582.182L575.48 574L596 662.456Z" fill="#A0616A"/>
<path d="M534.952 700L534.799 699.371C533.014 691.955 534.246 684.134 538.223 677.625C542.2 671.115 548.599 666.448 556.015 664.647L600.083 654L607 682.593L534.952 700Z" fill="#2F2E41"/>
<path d="M496.996 677L473.96 676.999L463 587L497 587.001L496.996 677Z" fill="#A0616A"/>
<path d="M502.999 700L429 699.997V699.336C429 691.556 432.028 684.094 437.417 678.592C442.807 673.091 450.116 670 457.737 670H457.739L503 670.002L502.999 700Z" fill="#2F2E41"/>
<path d="M463.359 641.999L441 371.393L533.558 354.067L533.924 354L561.015 371.685L551.585 471.275L595 626.543L557.513 636.561L514.029 492.559L504.078 448.769L498.978 505.671L502.764 646L463.359 641.999Z" fill="#2F2E41"/>
<path d="M438.245 377.586L438 377.271L469.967 132.443L470.009 132.122L470.234 131.893C470.705 131.413 481.905 120.155 493.425 120.155C495.091 120.155 496.674 120.112 498.193 120.073C507.009 119.84 513.973 119.654 522.249 128.073C530.681 136.65 558.193 167.968 558.193 210.861C558.193 252.378 561.91 381.4 561.947 382.698L562 384.52L560.498 383.526C560.127 383.283 523.123 359.316 492.089 381.596C482.391 388.559 473.678 391 466.229 391C448.89 391 438.393 377.778 438.245 377.586Z" fill="#D3D3D3"/>
<path d="M510.584 100.47C532.928 88.0584 541.14 59.5915 528.925 36.8871C516.711 14.1827 488.695 5.83851 466.351 18.2499C444.007 30.6612 435.795 59.1281 448.01 81.8325C460.224 104.537 488.24 112.881 510.584 100.47Z" fill="#A0616A"/>
<path d="M427.712 414.893C429.894 413.18 431.679 411.003 432.941 408.516C434.202 406.029 434.91 403.292 435.015 400.497C435.119 397.703 434.618 394.919 433.545 392.342C432.473 389.766 430.856 387.458 428.808 385.583L455 323L420.705 329.394L401.09 387.844C398.208 391.537 396.764 396.174 397.031 400.874C397.299 405.574 399.259 410.012 402.54 413.346C405.822 416.681 410.197 418.68 414.836 418.965C419.475 419.25 424.057 417.801 427.712 414.893Z" fill="#A0616A"/>
<path d="M408 357.921L416.367 339.853C415.85 339.535 415.424 339.083 415.131 338.543C407.314 324.686 454.533 209.611 457.68 201.978C457.2 197.827 467.265 155.807 470.89 140.979C475.156 123.523 471.148 123.753 487.413 122.141C505.351 120.418 507.937 134.997 507.984 135.25L508 199.303L487.413 273.035L440.463 371L408 357.921Z" fill="#D3D3D3" fill-opacity="0.8"/>
<path d="M494.389 77.1111C488.899 77.8428 484.759 72.089 482.838 66.7702C480.917 61.4515 479.454 55.2593 474.681 52.3862C468.161 48.461 459.818 53.182 452.362 51.8869C443.941 50.4244 438.466 41.282 438.037 32.5433C437.608 23.8047 441.002 15.4 444.333 7.34315L445.496 17.356C445.34 13.9624 446.037 10.5847 447.52 7.54591C449.003 4.50715 451.223 1.90901 453.966 0L452.467 14.6924C453.407 6.46135 462.063 0.0833984 469.979 1.78913L469.743 10.5434C479.469 9.35861 489.28 8.17218 499.034 9.07479C508.789 9.97741 518.612 13.1392 526.005 19.7205C537.065 29.565 541.104 45.7753 539.748 60.7199C538.391 75.6646 532.37 89.704 526.093 103.266C524.514 106.678 522.33 110.529 518.668 110.964C515.378 111.354 512.368 108.537 511.345 105.31C510.322 102.082 510.821 98.5762 511.434 95.2417C512.359 90.2044 513.526 85.0556 512.656 80.008C511.786 74.9603 508.241 69.9723 503.274 69.3537C498.307 68.7351 493.225 74.5513 495.613 79.0555L494.389 77.1111Z" fill="#2F2E41"/>
<path d="M340.178 343.636L271.022 367.516L281.188 405.663L350.345 381.783L340.178 343.636Z" fill="#0E6D2B"/>
<path d="M340.597 343.733L292.896 360.204L303.062 398.35L350.763 381.879L340.597 343.733Z" fill="#49B96B"/>
<path d="M338.901 359.724L329.481 362.977C329.395 363.007 329.302 362.997 329.222 362.949C329.143 362.901 329.083 362.819 329.057 362.721C329.031 362.623 329.041 362.518 329.083 362.428C329.126 362.337 329.198 362.27 329.285 362.24L338.704 358.987C338.791 358.958 338.884 358.968 338.964 359.016C339.043 359.064 339.102 359.146 339.129 359.243C339.155 359.341 339.145 359.447 339.103 359.537C339.06 359.627 338.987 359.694 338.901 359.724Z" fill="white"/>
<path d="M290.385 387.546L280.966 390.798C280.879 390.828 280.786 390.817 280.707 390.769C280.628 390.721 280.569 390.639 280.543 390.542C280.517 390.445 280.526 390.339 280.569 390.249C280.611 390.159 280.683 390.092 280.769 390.061L290.189 386.809C290.275 386.779 290.369 386.789 290.448 386.837C290.528 386.885 290.587 386.967 290.613 387.065C290.639 387.163 290.63 387.268 290.587 387.358C290.544 387.448 290.472 387.516 290.385 387.546Z" fill="white"/>
<path d="M309.89 359.238L280.908 369.245C280.83 369.275 280.741 369.261 280.658 369.204C280.575 369.148 280.503 369.053 280.455 368.936C280.427 368.867 280.408 368.791 280.402 368.716C280.395 368.64 280.4 368.566 280.416 368.5C280.432 368.434 280.46 368.377 280.495 368.334C280.531 368.291 280.575 368.262 280.623 368.251L309.778 358.184C309.858 358.218 309.934 358.289 309.992 358.385C310.051 358.482 310.09 358.6 310.102 358.72C310.115 358.84 310.101 358.956 310.063 359.049C310.024 359.143 309.964 359.209 309.89 359.238Z" fill="white"/>
</g>
<defs>
<clipPath id="clip0_158_271">
<rect width="650" height="700" fill="white"/>
</clipPath>
</defs>
</svg>
