<svg width="861" height="770" viewBox="0 0 861 770" fill="none" xmlns="http://www.w3.org/2000/svg">
<g clip-path="url(#clip0_158_271)">
<path d="M4.82496 172.78C3.13899 173.254 1.70994 174.377 0.851312 175.903C-0.00731538 177.429 -0.225423 179.233 0.244845 180.919L110.68 575.159C111.154 576.844 112.278 578.272 113.805 579.131C115.331 579.989 117.136 580.207 118.823 579.737L525.944 465.786C527.63 465.312 529.059 464.189 529.917 462.663C530.776 461.137 530.994 459.333 530.524 457.647L420.088 63.4073C419.614 61.722 418.49 60.2936 416.964 59.4353C415.438 58.577 413.633 58.359 411.946 58.8291L4.82496 172.78Z" fill="#E6E6E6"/>
<path d="M123.939 561.121L511.899 452.533L406.829 77.4454L18.8682 186.033L123.939 561.121Z" fill="white"/>
<path d="M70.1615 236.118C67.5731 236.843 66.5059 241.141 67.7827 245.699C69.0595 250.256 72.2043 253.375 74.7927 252.651L251.736 203.126C254.324 202.401 255.391 198.103 254.115 193.545C252.838 188.987 249.693 185.869 247.105 186.593L70.1615 236.118Z" fill="#E6E6E6"/>
<path d="M84.4115 286.988C81.8231 287.712 80.7559 292.01 82.0327 296.568C83.3095 301.126 86.4542 304.245 89.0426 303.52L265.986 253.995C268.574 253.27 269.641 248.973 268.365 244.415C267.088 239.857 263.943 236.738 261.355 237.462L84.4115 286.988Z" fill="#E6E6E6"/>
<path d="M98.4965 337.271C95.9081 337.995 94.8409 342.293 96.1177 346.851C97.3944 351.409 100.539 354.528 103.128 353.803L280.071 304.278C282.659 303.553 283.726 299.256 282.449 294.698C281.173 290.14 278.028 287.021 275.44 287.745L98.4965 337.271Z" fill="#E6E6E6"/>
<path d="M112.746 388.14C110.158 388.865 109.091 393.162 110.368 397.72C111.644 402.278 114.789 405.397 117.378 404.673L294.321 355.147C296.909 354.423 297.976 350.125 296.7 345.567C295.423 341.009 292.278 337.89 289.69 338.615L112.746 388.14Z" fill="#E6E6E6"/>
<path d="M336.902 162.046C335.815 162.349 334.798 162.863 333.91 163.559C333.021 164.255 332.279 165.119 331.725 166.102C331.172 167.085 330.817 168.168 330.682 169.288C330.547 170.408 330.634 171.543 330.938 172.63C331.242 173.716 331.758 174.732 332.455 175.619C333.153 176.506 334.018 177.247 335.002 177.799C335.986 178.352 337.069 178.705 338.19 178.839C339.31 178.972 340.446 178.884 341.533 178.579L374.611 169.32C376.805 168.706 378.664 167.247 379.781 165.262C380.897 163.278 381.18 160.932 380.566 158.739C379.951 156.547 378.491 154.688 376.506 153.572C374.521 152.456 372.174 152.174 369.98 152.788L336.902 162.046Z" fill="#E6E6E6"/>
<path d="M350.875 211.929C349.788 212.232 348.772 212.747 347.883 213.443C346.995 214.139 346.253 215.003 345.699 215.986C345.145 216.969 344.791 218.051 344.655 219.171C344.52 220.291 344.608 221.427 344.912 222.513C345.216 223.599 345.732 224.615 346.429 225.502C347.126 226.389 347.992 227.13 348.976 227.683C349.96 228.235 351.043 228.588 352.163 228.722C353.284 228.856 354.42 228.767 355.507 228.462L388.585 219.204C390.778 218.59 392.638 217.13 393.754 215.146C394.871 213.161 395.153 210.815 394.539 208.623C393.925 206.43 392.465 204.572 390.48 203.455C388.495 202.339 386.147 202.057 383.954 202.671L350.875 211.929Z" fill="#E6E6E6"/>
<path d="M364.848 261.813C363.762 262.117 362.747 262.631 361.86 263.328C360.973 264.024 360.232 264.888 359.679 265.871C359.126 266.853 358.772 267.935 358.638 269.054C358.503 270.173 358.59 271.308 358.894 272.394C359.198 273.479 359.713 274.494 360.41 275.381C361.106 276.267 361.971 277.008 362.954 277.561C363.937 278.113 365.019 278.467 366.138 278.602C367.258 278.736 368.393 278.649 369.479 278.345L402.558 269.087C404.751 268.473 406.611 267.013 407.727 265.029C408.844 263.045 409.126 260.698 408.512 258.506C407.898 256.314 406.438 254.455 404.453 253.339C402.468 252.223 400.12 251.94 397.927 252.554L364.848 261.813Z" fill="#E6E6E6"/>
<path d="M378.822 311.696C376.631 312.312 374.775 313.772 373.66 315.756C372.545 317.739 372.264 320.084 372.878 322.274C373.491 324.465 374.95 326.323 376.933 327.439C378.916 328.556 381.261 328.84 383.453 328.229L416.532 318.97C418.723 318.354 420.58 316.894 421.694 314.911C422.809 312.927 423.09 310.583 422.477 308.392C421.863 306.201 420.404 304.344 418.421 303.227C416.438 302.111 414.093 301.827 411.901 302.438L378.822 311.696Z" fill="#E6E6E6"/>
<path d="M392.172 398.161C390.787 398.547 389.491 399.202 388.36 400.089C387.228 400.976 386.282 402.077 385.576 403.33C384.871 404.582 384.419 405.961 384.247 407.388C384.075 408.816 384.186 410.263 384.573 411.647C384.961 413.031 385.618 414.325 386.506 415.456C387.395 416.586 388.498 417.53 389.751 418.234C391.005 418.938 392.385 419.388 393.813 419.559C395.241 419.729 396.689 419.616 398.073 419.227L440.222 407.43C443.017 406.648 445.386 404.788 446.809 402.259C448.232 399.731 448.592 396.741 447.809 393.948C447.027 391.154 445.166 388.786 442.636 387.363C440.107 385.941 437.116 385.582 434.321 386.364L392.172 398.161Z" fill="#D3D3D3"/>
<path d="M435.55 355.616L123.652 442.915L124.429 445.686L436.327 358.388L435.55 355.616Z" fill="#E6E6E6"/>
<path d="M748.847 728.21L723.832 734.255L688.603 640.686L725.522 631.765L748.847 728.21Z" fill="#A0616A"/>
<path d="M680.675 770L680.506 769.301C678.524 761.063 679.891 752.376 684.308 745.145C688.725 737.914 695.832 732.73 704.068 730.73L753.01 718.903L760.692 750.664L680.675 770Z" fill="#2F2E41"/>
<path d="M638.11 745.244L612.375 745.243L600.132 646.019L638.114 646.02L638.11 745.244Z" fill="#A0616A"/>
<path d="M644.343 769.851L562.021 769.847V769.128C562.022 760.653 565.39 752.525 571.386 746.532C577.381 740.539 585.512 737.173 593.991 737.173H593.992L644.344 737.175L644.343 769.851Z" fill="#2F2E41"/>
<path d="M600.111 706.508L575.124 408.832L678.563 389.773L678.972 389.699L709.247 409.153L698.71 518.706L747.228 689.507L705.334 700.527L656.739 542.119L645.618 493.948L639.918 556.543L644.149 710.91L600.111 706.508Z" fill="#2F2E41"/>
<path d="M571.92 415.584L571.646 415.237L607.391 146.216L607.437 145.863L607.689 145.611C608.216 145.085 620.739 132.714 633.621 132.714C635.483 132.714 637.254 132.667 638.952 132.624C648.81 132.368 656.596 132.163 665.85 141.415C675.279 150.839 706.042 185.252 706.042 232.384C706.042 278.003 710.198 419.774 710.24 421.2L710.299 423.202L708.619 422.11C708.204 421.844 666.828 395.508 632.127 419.989C621.283 427.641 611.541 430.323 603.211 430.323C583.823 430.323 572.086 415.795 571.92 415.584Z" fill="#D3D3D3"/>
<path d="M652.88 110.517C677.865 96.8642 687.047 65.5506 673.389 40.5758C659.731 15.601 628.405 6.42236 603.42 20.0748C578.435 33.7273 569.253 65.041 582.911 90.0158C596.569 114.991 627.895 124.169 652.88 110.517Z" fill="#A0616A"/>
<path d="M549.224 473.398C551.664 471.509 553.659 469.108 555.069 466.364C556.48 463.62 557.271 460.601 557.388 457.518C557.505 454.436 556.944 451.365 555.745 448.523C554.546 445.681 552.738 443.135 550.449 441.067L579.728 372.032L541.392 379.085L519.465 443.56C516.243 447.635 514.629 452.749 514.928 457.934C515.226 463.119 517.418 468.014 521.086 471.692C524.754 475.37 529.645 477.575 534.831 477.89C540.017 478.204 545.138 476.606 549.224 473.398Z" fill="#A0616A"/>
<path d="M520.937 419.698L530.365 399.801C529.782 399.451 529.302 398.953 528.972 398.359C520.164 383.099 573.371 256.375 576.918 247.969C576.377 243.398 570.792 194.952 574.876 178.623C579.683 159.4 589.555 150.441 607.884 148.667C628.097 146.769 633.55 174.207 633.602 174.486L633.621 245.023L610.423 326.219L557.518 434.102L520.937 419.698Z" fill="#D3D3D3"/>
<path d="M634.742 84.712C628.562 85.5158 623.9 79.1949 621.737 73.3518C619.575 67.5088 617.927 60.7062 612.554 57.5499C605.213 53.2378 595.82 58.4242 587.424 57.0014C577.944 55.3948 571.779 45.3511 571.296 35.7511C570.813 26.1511 574.635 16.918 578.385 8.06691L579.694 19.0668C579.519 15.3387 580.304 11.628 581.974 8.28966C583.643 4.95136 586.142 2.09712 589.231 -6.10352e-05L587.543 16.1406C588.601 7.0982 598.347 0.091558 607.259 1.96542L606.994 11.5826C617.944 10.281 628.99 8.97766 639.973 9.96925C650.955 10.9608 662.015 14.4343 670.339 21.6643C682.79 32.4792 687.337 50.2873 685.811 66.7051C684.284 83.1229 677.504 98.5462 670.438 113.445C668.66 117.194 666.201 121.424 662.078 121.901C658.374 122.331 654.984 119.235 653.833 115.69C652.681 112.145 653.243 108.293 653.933 104.63C654.975 99.0959 656.288 93.4396 655.308 87.8944C654.329 82.3492 650.338 76.8695 644.746 76.19C639.154 75.5104 633.432 81.8998 636.12 86.8481L634.742 84.712Z" fill="#2F2E41"/>
<path d="M860.45 769.968H489.428V766.938H861L860.45 769.968Z" fill="#3F3D56"/>
</g>
<defs>
<clipPath id="clip0_158_271">
<rect width="861" height="770" fill="white"/>
</clipPath>
</defs>
</svg>
