<svg width="650" height="700" viewBox="0 0 650 700" fill="none" xmlns="http://www.w3.org/2000/svg">
<g clip-path="url(#clip0_158_199)">
<path d="M248 535.671L258.47 546L298 502.244L282.547 487L248 535.671Z" fill="#FFB6B6"/>
<path d="M280.175 533L258.692 514.71L315.257 404.096C274.26 374.704 246.066 338.849 223.061 299.465C215.243 286.174 210.477 270.705 221.384 260.734C221.894 260.268 222.417 259.827 222.954 259.41C235.391 249.851 231.354 264.177 248.402 257.141L263.805 277.408L297.086 317.349L353.852 362.044C365.268 371.032 368.435 389.938 360.927 404.272C360.531 405.029 360.108 405.764 359.66 406.477L280.175 533Z" fill="#2F2E41"/>
<path d="M249.415 527L267.07 543.297L261.041 552.281L267.788 582.733C268.121 584.237 268.06 585.834 267.614 587.292C267.168 588.75 266.36 589.992 265.307 590.836C264.255 591.68 263.014 592.083 261.765 591.986C260.516 591.888 259.325 591.295 258.365 590.294L238.346 569.402L240.859 556.914L233.548 564.395L226 556.518L249.415 527Z" fill="#2F2E41"/>
<path d="M225.643 417.458L116.237 465.702L119.408 476.634L228.813 428.391L225.643 417.458Z" fill="#3F3D56"/>
<path d="M250.744 604.019L222.403 573.52C220.431 571.396 219.216 568.383 219.026 565.143C218.836 561.904 219.686 558.703 221.39 556.244C223.093 553.786 225.51 552.271 228.109 552.033C230.708 551.795 233.277 552.853 235.25 554.975L263.592 585.474C264.569 586.526 265.371 587.806 265.951 589.244C266.532 590.681 266.879 592.247 266.974 593.852C267.068 595.457 266.908 597.069 266.503 598.597C266.097 600.125 265.454 601.538 264.61 602.756C263.767 603.974 262.739 604.972 261.585 605.695C260.432 606.418 259.175 606.85 257.887 606.967C256.6 607.085 255.306 606.885 254.08 606.379C252.855 605.873 251.721 605.071 250.744 604.019Z" fill="#3F3D56"/>
<path d="M413.079 253.127C411.275 253.888 409.358 254.157 407.46 253.913C405.563 253.668 403.733 252.918 402.098 251.714C400.464 250.51 399.065 248.882 397.999 246.944C396.934 245.007 396.229 242.806 395.933 240.499L294 208.358L310.624 187L407.71 221.907C410.908 221.556 414.101 222.654 416.683 224.993C419.265 227.331 421.057 230.749 421.718 234.597C422.38 238.445 421.866 242.457 420.274 245.872C418.681 249.287 416.121 251.868 413.079 253.127Z" fill="#FFB6B6"/>
<path d="M258.206 103C258.206 103 241.707 105.36 242.004 128.828C242.3 152.297 282.743 205.759 289.053 214.617C295.362 223.474 358.33 228 358.33 228L378 206.65L319.676 182.394L258.206 103Z" fill="#89B78B"/>
<path d="M225.286 214L221.59 235.564C221.59 235.564 214.863 253.512 216.168 258.307C217.462 263.076 275.687 289 275.687 289C275.687 289 280.676 256.664 289 234.851L225.286 214Z" fill="#FFB6B6"/>
<path d="M413.35 551.503L379.213 571.793C376.836 573.206 374.106 573.386 371.622 572.294C369.139 571.202 367.106 568.928 365.97 565.971C364.835 563.014 364.69 559.618 365.568 556.528C366.445 553.439 368.273 550.909 370.65 549.497L404.787 529.207C407.164 527.794 409.894 527.614 412.378 528.706C414.861 529.798 416.894 532.072 418.03 535.029C419.165 537.986 419.31 541.382 418.432 544.472C417.555 547.561 415.727 550.091 413.35 551.503Z" fill="#3F3D56"/>
<path d="M542.5 711C521.239 711 500.455 703.258 482.776 688.754C465.098 674.25 451.319 653.634 443.183 629.514C435.047 605.394 432.918 578.854 437.066 553.248C441.214 527.643 451.452 504.122 466.486 485.662C481.52 467.201 500.675 454.63 521.528 449.536C542.381 444.443 563.995 447.057 583.638 457.048C603.282 467.039 620.071 483.958 631.883 505.665C643.695 527.372 650 552.893 650 579C649.968 613.997 638.632 647.548 618.478 672.295C598.325 697.041 571.001 710.96 542.5 711ZM542.5 459.222C523.207 459.222 504.348 466.247 488.306 479.408C472.265 492.57 459.762 511.277 452.379 533.163C444.996 555.05 443.064 579.133 446.828 602.368C450.592 625.602 459.882 646.945 473.524 663.696C487.166 680.447 504.548 691.855 523.47 696.476C542.392 701.098 562.005 698.726 579.829 689.66C597.654 680.595 612.888 665.242 623.607 645.545C634.325 625.848 640.046 602.69 640.046 579C640.017 547.244 629.73 516.799 611.443 494.344C593.156 471.889 568.362 459.258 542.5 459.222Z" fill="#3F3D56"/>
<path d="M494.5 597C501.956 597 508 588.941 508 579C508 569.059 501.956 561 494.5 561C487.044 561 481 569.059 481 579C481 588.941 487.044 597 494.5 597Z" fill="#3F3D56"/>
<path d="M101 713C81.0241 713 61.4968 705.64 44.8874 691.849C28.2781 678.059 15.3327 658.459 7.68821 635.527C0.0437565 612.595 -1.95637 587.361 1.94073 563.016C5.83784 538.672 15.4572 516.31 29.5823 498.758C43.7074 481.207 61.7038 469.254 81.2959 464.412C100.888 459.569 121.196 462.054 139.651 471.553C158.106 481.052 173.88 497.138 184.978 517.776C196.076 538.414 202 562.678 202 587.5C201.97 620.773 191.319 652.673 172.384 676.2C153.45 699.728 127.778 712.962 101 713ZM101 473.62C82.8737 473.62 65.1545 480.299 50.083 492.813C35.0116 505.326 23.2648 523.111 16.3282 543.92C9.39156 564.729 7.57663 587.626 11.1129 609.717C14.6492 631.807 23.3778 652.099 36.195 668.025C49.0122 683.951 65.3424 694.797 83.1204 699.191C100.898 703.586 119.326 701.33 136.072 692.711C152.819 684.092 167.132 669.496 177.203 650.768C187.273 632.041 192.648 610.023 192.648 587.5C192.621 557.308 182.956 528.362 165.775 507.013C148.593 485.663 125.298 473.655 101 473.62Z" fill="#3F3D56"/>
<path d="M122.5 606C132.717 606 141 597.941 141 588C141 578.059 132.717 570 122.5 570C112.283 570 104 578.059 104 588C104 597.941 112.283 606 122.5 606Z" fill="#3F3D56"/>
<path d="M305.5 607C315.165 607 323 597.374 323 585.5C323 573.626 315.165 564 305.5 564C295.835 564 288 573.626 288 585.5C288 597.374 295.835 607 305.5 607Z" fill="#3F3D56"/>
<path d="M105.869 587L99 579.028L221.608 417.08L440.41 336L549 571.969L540.821 577.74L435.937 349.826L226.741 427.346L105.869 587Z" fill="#3F3D56"/>
<path d="M290 579H198V591H290V579Z" fill="#3F3D56"/>
<path d="M228 362H219V422H228V362Z" fill="#3F3D56"/>
<path d="M411.279 224.356L402.319 227.924L433.036 345.214L441.996 341.646L411.279 224.356Z" fill="#3F3D56"/>
<path d="M227.256 414.778L219.131 420.646L296.339 583.192L304.464 577.324L227.256 414.778Z" fill="#3F3D56"/>
<path d="M481.352 438.452L315.643 577.791L320.948 587.383L486.656 448.044L481.352 438.452Z" fill="#3F3D56"/>
<path d="M241.016 368H202.984C200.336 368 197.796 366.788 195.924 364.632C194.052 362.475 193 359.55 193 356.5C193 353.45 194.052 350.525 195.924 348.368C197.796 346.212 200.336 345 202.984 345H241.016C243.664 345 246.204 346.212 248.076 348.368C249.948 350.525 251 353.45 251 356.5C251 359.55 249.948 362.475 248.076 364.632C246.204 366.788 243.664 368 241.016 368Z" fill="#D7E9D7"/>
<path d="M425.016 238H386.984C384.336 238 381.796 236.736 379.924 234.485C378.052 232.235 377 229.183 377 226C377 222.817 378.052 219.765 379.924 217.515C381.796 215.264 384.336 214 386.984 214H425.016C427.664 214 430.204 215.264 432.076 217.515C433.948 219.765 435 222.817 435 226C435 229.183 433.948 232.235 432.076 234.485C430.204 236.736 427.664 238 425.016 238Z" fill="#89B78B"/>
<path d="M285.429 86.0122C300.588 82.8344 310.787 65.1059 308.21 46.4145C305.633 27.7231 291.255 15.1468 276.097 18.3246C260.939 21.5024 250.74 39.2308 253.317 57.9222C255.894 76.6136 270.271 89.1899 285.429 86.0122Z" fill="#FFB6B6"/>
<path d="M453.912 381L422 299.421L422.432 299.173C424.644 297.904 427.04 297.175 429.484 297.028C431.928 296.881 434.372 297.318 436.677 298.314C438.981 299.311 441.101 300.848 442.915 302.837C444.729 304.825 446.202 307.228 447.25 309.906L463.206 350.696C464.253 353.374 464.855 356.276 464.977 359.236C465.099 362.196 464.738 365.156 463.915 367.947C463.092 370.738 461.823 373.305 460.181 375.502C458.538 377.7 456.555 379.483 454.343 380.752L453.912 381Z" fill="#3F3D56"/>
<path d="M358.389 394C354.504 393.988 350.726 392.453 347.617 389.625C344.507 386.797 342.233 382.826 341.131 378.303L341 377.765L410.132 353L410.263 353.538C410.933 356.294 411.149 359.182 410.899 362.039C410.649 364.896 409.939 367.666 408.807 370.189C407.676 372.712 406.146 374.941 404.305 376.746C402.465 378.552 400.349 379.9 398.08 380.713L363.513 393.095C361.85 393.693 360.124 393.998 358.389 394Z" fill="#3F3D56"/>
<path d="M366.102 536L379 532.107L373.037 468L354 473.748L366.102 536Z" fill="#FFB6B6"/>
<path d="M360 518.272L379.689 507L383.104 517.616L407.508 524.574C408.714 524.917 409.798 525.725 410.603 526.88C411.408 528.034 411.892 529.475 411.984 530.991C412.076 532.507 411.771 534.02 411.113 535.308C410.456 536.596 409.481 537.592 408.33 538.151L384.323 549.81L376.807 541.319L378.569 552.604L369.518 557L360 518.272Z" fill="#2F2E41"/>
<path d="M379 477.849L351.716 498L322.616 371.434C275.41 370.938 231.762 364.429 196.125 344.381C184.051 337.648 178.68 319.841 184.129 304.609C184.384 303.897 184.66 303.198 184.958 302.512C191.895 286.707 205.344 277.425 217.277 261L276.473 287.916L272.232 307.548L339.193 311.688C352.659 312.52 362.954 326.925 362.188 343.862C362.147 344.756 362.076 345.648 361.974 346.535L379 477.849Z" fill="#2F2E41"/>
<path d="M263.197 86L281.304 97.7304C282.305 98.2251 283.156 99.0941 283.738 100.216C284.321 101.339 284.607 102.658 284.556 103.991L289.272 127.375L305.868 170.896C305.868 170.896 310.192 194.058 301.94 215.928C293.688 237.797 275.424 292.315 275.424 292.315C263.513 327.664 165.739 300.366 191.218 270.29C194.25 266.711 211.29 236.483 217.525 234.745L232.823 126.282C233.594 120.556 235.378 115.112 238.048 110.34C240.717 105.569 244.206 101.589 248.263 98.6846C250.715 96.9679 252.987 95.9515 254.544 96.4702C258.093 97.495 259.77 87.5363 263.197 86Z" fill="#89B78B"/>
<path d="M422.261 229.918C420.595 231.07 418.743 231.763 416.834 231.949C414.925 232.135 413.006 231.809 411.211 230.994C409.417 230.179 407.791 228.895 406.448 227.233C405.105 225.57 404.078 223.569 403.439 221.371L298 212.689L311.194 188L412.266 200.484C415.37 199.422 418.686 199.784 421.586 201.5C424.486 203.216 426.769 206.168 428.001 209.796C429.233 213.424 429.329 217.476 428.271 221.185C427.213 224.894 425.075 228.001 422.261 229.918Z" fill="#FFB6B6"/>
<path d="M246.858 118C246.858 118 230.755 124.031 234.591 146.942C238.426 169.852 286.836 213.074 294.466 220.323C302.097 227.572 365.597 217.801 365.597 217.801L382 192.462L320.157 181.867L246.858 118Z" fill="#89B78B"/>
<path d="M309.404 41.5874C305.248 44.1321 300.542 40.4439 296.906 36.776L298.207 38.1441C291.898 45.9323 289.011 57.0581 287.645 67.9914C286.278 78.9133 286.208 90.0658 284.463 100.915C282.716 111.753 278.997 122.667 271.937 129.382C262.479 138.375 249.328 137.974 237.608 135.404C237.452 135.367 237.307 135.339 237.15 135.301C240.204 123.966 241.385 111.98 240.621 100.063C237.584 112.054 232.336 122.997 225.296 132.02C217.519 129.467 209.92 126.135 202.576 122.058C197.823 119.412 192.7 115.777 191.335 109.528C189.967 103.327 192.97 96.7657 197.024 92.7872C201.078 88.8087 206.076 86.6961 210.708 83.8394C215.333 80.996 219.9 76.9679 221.711 70.9516C225.889 57.1119 213.531 41.4503 218.184 27.8388C220.479 21.1454 226.205 17.4473 231.592 14.5837C239.815 10.2236 248.266 6.55949 256.888 3.61642C264.456 1.0312 272.364 -1.00372 280.108 0.528523C287.852 2.06075 295.474 7.80855 298.332 16.8987C302.99 18.7896 307.937 20.9248 310.957 25.7439C313.975 30.5517 313.804 38.8971 309.404 41.5874Z" fill="#2F2E41"/>
<path d="M163 619H19V621H163V619Z" fill="#3F3D56"/>
<path d="M163 641H19V644H163V641Z" fill="#3F3D56"/>
<path d="M566 619H423V621H566V619Z" fill="#3F3D56"/>
<path d="M566 641H423V644H566V641Z" fill="#3F3D56"/>
<path d="M461.088 351.481C466.697 348.924 468.686 338.319 465.531 327.793C462.375 317.268 455.27 310.808 449.661 313.365C444.052 315.922 442.063 326.527 445.218 337.053C448.374 347.578 455.479 354.038 461.088 351.481Z" fill="#D7E9D7"/>
</g>
<defs>
<clipPath id="clip0_158_199">
<rect width="650" height="700" fill="white"/>
</clipPath>
</defs>
</svg>
