<svg width="905" height="700" viewBox="0 0 905 700" fill="none" xmlns="http://www.w3.org/2000/svg">
<path d="M352.176 526.242L364.412 536.471L410.608 493.143L392.549 478.047L352.176 526.242Z" fill="#FFB6B6"/>
<path d="M388.375 522.783L362.464 504.916L430.689 396.862C381.24 368.151 347.234 333.126 319.487 294.653C310.057 281.669 304.309 266.559 317.464 256.819C318.079 256.363 318.71 255.932 319.358 255.525C334.359 246.187 329.49 260.181 350.052 253.308L368.63 273.106L408.771 312.123L477.24 355.783C491.009 364.564 494.829 383.032 485.773 397.034C485.295 397.773 484.785 398.491 484.245 399.188L388.375 522.783Z" fill="#2F2E41"/>
<path d="M353.726 517.911L375.18 533.775L367.854 542.52L376.052 572.162C376.457 573.626 376.383 575.181 375.841 576.6C375.298 578.019 374.316 579.228 373.038 580.05C371.759 580.872 370.251 581.264 368.733 581.169C367.216 581.074 365.768 580.497 364.602 579.522L340.276 559.186L343.33 547.03L334.446 554.312L325.274 546.644L353.726 517.911Z" fill="#2F2E41"/>
<path d="M323.784 409.945L191.456 457.216L195.291 467.928L327.618 420.657L323.784 409.945Z" fill="#3F3D56"/>
<path d="M354.731 592.805L320.251 563.066C317.852 560.995 316.375 558.057 316.144 554.898C315.913 551.739 316.947 548.618 319.019 546.221C321.091 543.823 324.031 542.346 327.193 542.114C330.356 541.882 333.48 542.914 335.881 544.983L370.36 574.723C371.55 575.748 372.525 576.997 373.231 578.398C373.937 579.8 374.359 581.327 374.474 582.892C374.59 584.456 374.395 586.029 373.902 587.518C373.408 589.008 372.626 590.386 371.6 591.573C370.573 592.761 369.322 593.735 367.919 594.44C366.516 595.144 364.987 595.566 363.42 595.68C361.854 595.795 360.28 595.6 358.789 595.106C357.298 594.613 355.919 593.831 354.731 592.805Z" fill="#3F3D56"/>
<path d="M550.593 249.219C548.414 249.969 546.097 250.234 543.805 249.993C541.512 249.753 539.301 249.013 537.326 247.826C535.35 246.639 533.66 245.034 532.373 243.124C531.086 241.214 530.233 239.045 529.876 236.771L406.706 205.088L426.793 184.034L544.106 218.444C547.971 218.098 551.829 219.18 554.949 221.485C558.069 223.791 560.233 227.159 561.033 230.953C561.833 234.746 561.212 238.701 559.288 242.067C557.363 245.434 554.27 247.978 550.593 249.219Z" fill="#FFB6B6"/>
<path d="M363.48 102.113C363.48 102.113 343.452 104.431 343.812 127.486C344.172 150.541 393.266 203.059 400.925 211.761C408.585 220.462 485.022 224.908 485.022 224.908L508.899 203.935L438.1 180.106L363.48 102.113Z" fill="#89B78B"/>
<path d="M322.856 210.323L318.338 231.492C318.338 231.492 310.115 249.111 311.711 253.818C313.292 258.5 384.463 283.948 384.463 283.948C384.463 283.948 390.561 252.205 400.736 230.792L322.856 210.323Z" fill="#FFB6B6"/>
<path d="M550.948 541.423L509.845 561.04C506.983 562.405 503.696 562.58 500.706 561.524C497.716 560.468 495.268 558.27 493.901 555.411C492.533 552.552 492.359 549.268 493.416 546.281C494.472 543.294 496.674 540.849 499.535 539.483L540.639 519.866C543.5 518.501 546.788 518.326 549.778 519.382C552.768 520.438 555.216 522.637 556.583 525.495C557.95 528.354 558.125 531.638 557.068 534.625C556.011 537.612 553.81 540.057 550.948 541.423Z" fill="#3F3D56"/>
<path d="M706.863 698.016C681.191 698.016 656.094 690.411 634.748 676.163C613.402 661.915 596.765 641.664 586.94 617.97C577.115 594.276 574.545 568.205 579.553 543.052C584.562 517.899 596.924 494.794 615.078 476.66C633.231 458.525 656.36 446.176 681.54 441.172C706.719 436.169 732.819 438.737 756.537 448.551C780.256 458.365 800.529 474.985 814.792 496.309C829.055 517.633 836.668 542.703 836.668 568.348C836.629 602.726 822.941 635.685 798.606 659.994C774.271 684.303 741.278 697.977 706.863 698.016ZM706.863 450.687C683.568 450.687 660.795 457.588 641.425 470.517C622.056 483.445 606.959 501.822 598.044 523.321C589.129 544.821 586.796 568.479 591.341 591.303C595.886 614.127 607.104 635.092 623.577 651.547C640.049 668.003 661.037 679.209 683.885 683.749C706.733 688.289 730.416 685.959 751.938 677.053C773.46 668.148 791.856 653.067 804.798 633.717C817.741 614.368 824.649 591.62 824.649 568.348C824.614 537.154 812.193 507.246 790.111 485.188C768.03 463.13 738.091 450.722 706.863 450.687Z" fill="#3F3D56"/>
<path d="M712.581 595.628C722.644 595.628 730.802 587.479 730.802 577.426C730.802 567.374 722.644 559.224 712.581 559.224C702.517 559.224 694.359 567.374 694.359 577.426C694.359 587.479 702.517 595.628 712.581 595.628Z" fill="#3F3D56"/>
<path d="M173.386 699.783C149.06 699.783 125.281 692.577 105.054 679.077C84.828 665.576 69.0634 646.387 59.7543 623.937C50.4451 601.486 48.0094 576.782 52.7552 552.949C57.501 529.115 69.2151 507.223 86.4161 490.04C103.617 472.857 125.533 461.155 149.391 456.415C173.25 451.674 197.98 454.107 220.454 463.406C242.929 472.706 262.138 488.454 275.653 508.659C289.167 528.864 296.381 552.618 296.381 576.919C296.344 609.493 283.374 640.723 260.316 663.756C237.258 686.79 205.995 699.746 173.386 699.783ZM173.386 465.43C151.313 465.43 129.735 471.969 111.381 484.219C93.0278 496.47 78.723 513.882 70.2758 534.254C61.8286 554.626 59.6184 577.042 63.9248 598.669C68.2311 620.295 78.8606 640.161 94.469 655.753C110.077 671.345 129.964 681.963 151.613 686.265C173.263 690.566 195.703 688.359 216.096 679.92C236.489 671.482 253.92 657.192 266.183 638.858C278.447 620.524 284.992 598.969 284.992 576.919C284.959 547.36 273.19 519.022 252.267 498.121C231.344 477.22 202.976 465.464 173.386 465.43Z" fill="#3F3D56"/>
<path d="M173.386 595.12C183.45 595.12 191.608 586.971 191.608 576.918C191.608 566.865 183.45 558.716 173.386 558.716C163.323 558.716 155.165 566.865 155.165 576.918C155.165 586.971 163.323 595.12 173.386 595.12Z" fill="#3F3D56"/>
<path d="M420.514 595.75C432.183 595.75 441.643 586.3 441.643 574.643C441.643 562.986 432.183 553.536 420.514 553.536C408.844 553.536 399.385 562.986 399.385 574.643C399.385 586.3 408.844 595.75 420.514 595.75Z" fill="#3F3D56"/>
<path d="M178.065 575.628L169.756 567.848L318.073 409.793L582.752 330.662L714.111 560.958L704.217 566.591L577.342 344.156L324.282 419.812L178.065 575.628Z" fill="#3F3D56"/>
<path d="M402.57 568.452H290.653V579.828H402.57V568.452Z" fill="#3F3D56"/>
<path d="M326.871 355.323H315.483V414.802H326.871V355.323Z" fill="#3F3D56"/>
<path d="M548.312 220.736L537.476 224.232L574.628 339.157L585.465 335.661L548.312 220.736Z" fill="#3F3D56"/>
<path d="M325.734 407.319L315.907 413.069L409.292 572.338L419.119 566.588L325.734 407.319Z" fill="#3F3D56"/>
<path d="M633.066 430.516L432.64 567.045L439.056 576.444L639.482 439.915L633.066 430.516Z" fill="#3F3D56"/>
<path d="M343.028 362.413H297.475C294.303 362.413 291.262 361.155 289.019 358.914C286.777 356.674 285.517 353.636 285.517 350.468C285.517 347.3 286.777 344.261 289.019 342.021C291.262 339.781 294.303 338.523 297.475 338.523H343.028C346.2 338.523 349.241 339.781 351.484 342.021C353.726 344.261 354.986 347.3 354.986 350.468C354.986 353.636 353.726 356.674 351.484 358.914C349.241 361.155 346.2 362.413 343.028 362.413Z" fill="#D7E9D7"/>
<path d="M565.102 233.86H519.548C516.377 233.86 513.335 232.602 511.093 230.361C508.85 228.121 507.59 225.083 507.59 221.915C507.59 218.747 508.85 215.709 511.093 213.468C513.335 211.228 516.377 209.97 519.548 209.97H565.102C568.273 209.97 571.315 211.228 573.557 213.468C575.8 215.709 577.059 218.747 577.059 221.915C577.059 225.083 575.8 228.121 573.557 230.361C571.315 232.602 568.273 233.86 565.102 233.86Z" fill="#89B78B"/>
<path d="M396.096 85.1804C414.43 82.0667 426.766 64.6956 423.649 46.381C420.532 28.0664 403.143 15.7436 384.809 18.8573C366.475 21.971 354.139 39.3421 357.256 57.6567C360.373 75.9713 377.762 88.2941 396.096 85.1804Z" fill="#FFB6B6"/>
<path d="M598.879 373.819L560.849 293.627L561.364 293.384C563.999 292.136 566.855 291.42 569.768 291.275C572.68 291.13 575.593 291.56 578.339 292.54C581.086 293.519 583.612 295.03 585.774 296.985C587.936 298.94 589.692 301.301 590.94 303.934L609.955 344.031C611.203 346.663 611.921 349.516 612.066 352.426C612.211 355.335 611.781 358.245 610.8 360.988C609.819 363.732 608.307 366.256 606.35 368.415C604.393 370.575 602.029 372.328 599.393 373.576L598.879 373.819Z" fill="#3F3D56"/>
<path d="M482.629 387.914C477.841 387.902 473.185 386.346 469.353 383.478C465.521 380.611 462.718 376.584 461.36 371.998L461.199 371.452L546.397 346.341L546.558 346.886C547.384 349.68 547.65 352.609 547.342 355.506C547.034 358.403 546.158 361.211 544.764 363.77C543.369 366.329 541.484 368.588 539.216 370.419C536.947 372.25 534.34 373.617 531.543 374.441L488.944 386.997C486.894 387.603 484.767 387.912 482.629 387.914Z" fill="#3F3D56"/>
<path d="M493.579 526.116L509.082 522.296L501.915 459.388L479.034 465.028L493.579 526.116Z" fill="#FFB6B6"/>
<path d="M486.237 508.064L510.431 496.803L514.627 507.408L544.616 514.36C546.097 514.703 547.43 515.51 548.419 516.663C549.409 517.817 550.003 519.256 550.116 520.77C550.229 522.285 549.854 523.796 549.046 525.083C548.238 526.37 547.04 527.365 545.626 527.923L516.125 539.571L506.89 531.088L509.055 542.362L497.932 546.754L486.237 508.064Z" fill="#2F2E41"/>
<path d="M509.951 469.43L476.895 489.233L441.639 364.853C384.446 364.366 331.564 357.969 288.388 338.267C273.76 331.651 267.253 314.152 273.854 299.183C274.163 298.483 274.497 297.796 274.858 297.122C283.263 281.59 299.557 272.469 314.015 256.327L385.734 282.778L380.595 302.071L461.722 306.139C478.037 306.957 490.51 321.113 489.582 337.758C489.533 338.637 489.447 339.512 489.323 340.385L509.951 469.43Z" fill="#2F2E41"/>
<path d="M369.713 84.8556L391.753 96.3676C392.97 96.8531 394.006 97.7059 394.715 98.8072C395.425 99.9085 395.773 101.203 395.71 102.512L401.451 125.46L421.651 168.171C421.651 168.171 426.914 190.902 416.87 212.364C406.826 233.827 384.596 287.329 384.596 287.329C370.097 322.02 251.087 295.23 282.1 265.714C285.791 262.202 306.531 232.536 314.12 230.831L332.741 124.388C333.68 118.768 335.852 113.425 339.101 108.743C342.35 104.06 346.597 100.154 351.535 97.304C354.519 95.6193 357.284 94.6218 359.18 95.1309C363.5 96.1366 365.541 86.3632 369.713 84.8556Z" fill="#89B78B"/>
<path d="M561.128 225.896C559.124 227.033 556.895 227.718 554.597 227.901C552.3 228.085 549.99 227.763 547.83 226.958C545.67 226.154 543.714 224.886 542.098 223.244C540.482 221.602 539.246 219.626 538.477 217.456L411.579 208.883L427.458 184.505L549.099 196.832C552.835 195.783 556.826 196.14 560.317 197.835C563.807 199.529 566.554 202.444 568.037 206.027C569.519 209.609 569.635 213.61 568.362 217.272C567.089 220.934 564.515 224.003 561.128 225.896Z" fill="#FFB6B6"/>
<path d="M350.175 115.578C350.175 115.578 330.913 121.527 335.501 144.124C340.088 166.721 397.994 209.352 407.121 216.502C416.249 223.652 492.205 214.015 492.205 214.015L511.826 189.021L437.852 178.572L350.175 115.578Z" fill="#89B78B"/>
<path d="M426.37 40.8908C421.286 43.3929 415.528 39.7665 411.079 36.1601L412.671 37.5052C404.952 45.1629 401.42 56.1024 399.749 66.8525C398.077 77.5915 397.991 88.5572 395.855 99.2247C393.718 109.881 389.168 120.612 380.53 127.215C368.959 136.057 352.869 135.663 338.531 133.136C338.34 133.099 338.162 133.072 337.971 133.035C341.707 121.889 343.151 110.104 342.217 98.3873C338.501 110.177 332.081 120.936 323.467 129.809C313.952 127.298 304.656 124.022 295.67 120.013C289.856 117.412 283.587 113.837 281.917 107.693C280.244 101.596 283.917 95.1449 288.877 91.233C293.837 87.3211 299.953 85.2439 305.62 82.4351C311.278 79.6393 316.865 75.6786 319.082 69.7632C324.193 56.1553 309.073 40.756 314.766 27.3726C317.574 20.7913 324.579 17.1551 331.17 14.3396C341.231 10.0525 351.571 6.44971 362.118 3.55594C371.378 1.01403 381.053 -0.986796 390.527 0.519776C400.002 2.02634 409.328 7.67785 412.824 16.6158C418.524 18.475 424.576 20.5744 428.27 25.3128C431.963 30.04 431.754 38.2456 426.37 40.8908Z" fill="#2F2E41"/>
<path d="M269.215 618.981H77.0508V621.256H269.215V618.981Z" fill="#3F3D56"/>
<path d="M269.215 641.734H77.0508V644.009H269.215V641.734Z" fill="#3F3D56"/>
<path d="M809.024 618.981H616.86V621.256H809.024V618.981Z" fill="#3F3D56"/>
<path d="M809.024 641.734H616.86V644.009H809.024V641.734Z" fill="#3F3D56"/>
<path d="M608.557 345.297C615.341 342.792 617.747 332.401 613.931 322.088C610.114 311.774 601.521 305.445 594.736 307.95C587.952 310.456 585.546 320.847 589.362 331.16C593.179 341.473 601.773 347.803 608.557 345.297Z" fill="#D7E9D7"/>
</svg>
