<svg width="605" height="710" viewBox="0 0 605 710" fill="none" xmlns="http://www.w3.org/2000/svg">
<g clip-path="url(#clip0_123_1634)">
<path d="M434.265 683.018L446.163 682.918L451.43 635.979L433.869 636.126L434.265 683.018Z" fill="#A0616A"/>
<path d="M470.045 697.575L451.042 684.693L450.97 676.182L446.883 676.456L434.216 677.329L431.111 677.535L428.857 707.613L437.783 707.532L439.304 699.099L443.445 707.489L467.102 707.292C470.041 707.265 472.402 704.855 472.376 701.928C472.362 700.183 471.491 698.557 470.045 697.575Z" fill="#2F2E41"/>
<path d="M373.728 683.018L385.626 682.918L390.893 635.979L373.332 636.126L373.728 683.018Z" fill="#A0616A"/>
<path d="M409.508 697.575L390.505 684.693L390.433 676.182L386.346 676.456L373.679 677.329L370.574 677.535L368.32 707.613L377.246 707.532L378.767 699.099L382.908 707.489L406.565 707.292C409.504 707.265 411.865 704.855 411.839 701.928C411.825 700.183 410.954 698.557 409.508 697.575Z" fill="#2F2E41"/>
<path d="M467.562 58.0179C464.082 63.8691 466.006 71.4323 471.861 74.9106C474.543 76.5044 477.582 76.9518 480.426 76.419L480.438 76.4315L495.723 93.1694L513.683 86.6644L490.122 60.9465L490.038 61.0341C489.221 58.0755 487.312 55.4136 484.463 53.7213C478.609 50.2429 471.042 52.1666 467.562 58.0179Z" fill="#A0616A"/>
<path d="M480.955 303.516L432.725 305.038L387.034 315.187C387.034 315.187 391.603 320.768 376.373 335.991C376.373 335.991 356.066 371.51 370.281 406.014L374.264 496.258C374.264 496.258 377.663 503.406 374.6 503.866C371.538 504.326 371.757 509.678 375.011 513.165C378.264 516.652 375.312 519.984 375.312 519.984C381.579 524.159 376.956 535.407 376.373 544.031C376.373 544.031 358.611 641.325 372.182 672.29L390.119 673.41L420.47 545.154L435.264 407.029L442.371 543.017C442.371 543.017 415.18 636.356 432.35 673.41L451.777 672.29L485.016 543.017C485.016 543.017 490.61 484.305 494.279 433.531C494.547 429.818 493.003 421.439 495.05 422.546C497.096 423.652 491.934 414.825 495.636 413.636C499.338 412.447 493.11 403.259 496.224 403.931C499.338 404.604 494.229 330.871 493.733 323.929C491.702 295.514 480.955 303.516 480.955 303.516Z" fill="#2F2E41"/>
<path d="M455.678 183.589C450.55 183.59 445.604 181.602 441.801 177.88C436.699 172.888 434.677 165.77 436.393 158.842C438.369 150.864 444.911 144.99 453.058 143.878L520.577 134.663L485.892 85.9257L505.402 76.029L556.007 134.1C559.547 138.162 560.724 143.664 559.156 148.817C557.587 153.971 553.546 157.886 548.343 159.291L460.959 182.883C459.204 183.357 457.43 183.589 455.678 183.589Z" fill="#E6E6E6"/>
<path d="M497.74 323.821L375.545 329.423C372.189 324.329 373.098 316.67 377.798 307.079C395.544 270.865 382.066 202.356 373 166.682C370.457 156.673 377.285 146.723 387.566 145.696L399.087 144.544L409.737 112.05H447.037L462.511 129.719L488.772 145.664C483.992 194.876 463.625 264.366 492.64 299.215C498.986 306.837 500.786 315.079 497.74 323.821Z" fill="#E6E6E6"/>
<path d="M426.108 107.349C423.279 108.394 420.387 109.375 417.377 110.108C413.466 111.061 411.258 111.503 407.483 110.038C407.351 109.987 407.224 109.936 407.105 109.886C393.006 104.008 383.007 89.9898 382.699 73.5451C382.68 73.2786 382.68 72.9983 382.68 72.7249C382.68 71.399 382.737 70.0798 382.869 68.7812C383.039 66.9768 383.322 65.2066 383.724 63.4774L383.686 63.4705C380.63 60.347 379.454 56.0683 379.844 51.7692C380.341 46.151 383.504 40.4917 388.585 37.3067C392.364 34.9418 396.672 33.3629 401.294 32.823C402.495 32.6863 403.709 32.6111 404.948 32.6111H416.418C418.852 32.0507 421.273 31.6611 423.618 31.4765H423.637C446.722 29.5628 464.928 44.8592 463.23 63.4705C463.217 63.491 463.198 63.5115 463.186 63.5321C462.695 64.3317 462.261 65.0904 461.878 65.8149C461.507 66.4915 461.192 67.1408 460.922 67.756C458.815 72.513 468.827 146.319 465.236 147.44C463.192 148.075 454.954 93.1544 456.432 103.598C458.293 116.7 436.743 103.42 426.108 107.349Z" fill="#2F2E41"/>
<path d="M426.412 102.234C441.408 102.234 453.565 90.0835 453.565 75.0953C453.565 60.107 441.408 47.9566 426.412 47.9566C411.416 47.9566 399.26 60.107 399.26 75.0953C399.26 90.0835 411.416 102.234 426.412 102.234Z" fill="#A0616A"/>
<path d="M450.024 63.619C449.571 63.8579 449.125 64.0779 448.672 64.2978C448.2 64.5241 447.729 64.7504 447.251 64.9641C438.164 69.0809 430.762 69.5398 426.272 63.619C426.146 60.5204 425.455 57.4406 424.203 54.5808C424.436 57.7486 423.568 60.9792 421.807 63.619H412.764C403.451 69.7975 398.672 75.4731 405.137 95.7557C405.558 97.0882 408.444 144.429 409.268 148.068C395.169 142.663 383.007 85.2718 382.699 70.1494C382.68 69.9043 382.68 69.6466 382.68 69.3952C382.68 68.1759 382.737 66.9628 382.869 65.7686C383.039 64.1093 383.322 62.4814 383.724 60.8912L383.686 60.8849C380.63 58.0125 379.454 54.0779 379.844 50.1245C382.196 47.0447 385.12 44.4174 388.472 42.3936C391.472 40.9354 394.635 39.7538 397.917 38.8487C397.999 38.8299 398.068 38.811 398.15 38.7921C399.144 38.5218 400.162 38.2767 401.181 38.063C403.263 37.6293 405.375 37.3025 407.539 37.1014C407.696 37.0951 407.847 37.0825 407.985 37.0825C408.872 37.0825 409.696 37.3277 410.413 37.7488C410.419 37.7488 410.419 37.755 410.431 37.755C410.953 38.063 411.419 38.4716 411.783 38.9618C412.406 39.7538 412.764 40.7468 412.764 41.8279H422.839C423.21 41.8279 423.581 41.8405 423.952 41.8593C437.981 42.4187 449.257 48.4149 449.98 62.1986C450.011 62.6762 450.024 63.1413 450.024 63.619Z" fill="#2F2E41"/>
<path d="M390.463 64.7101C400.343 64.7101 408.352 56.7053 408.352 46.831C408.352 36.9566 400.343 28.9518 390.463 28.9518C380.584 28.9518 372.575 36.9566 372.575 46.831C372.575 56.7053 380.584 64.7101 390.463 64.7101Z" fill="#2F2E41"/>
<path d="M415.022 38.5613C412.99 48.2245 402.963 54.0039 393.371 51.6398C383.779 49.2756 377.921 39.5872 380.286 30C382.651 20.4128 394.293 23.1767 401.937 16.9215C412.751 8.07268 417.763 25.5297 415.022 38.5613Z" fill="#2F2E41"/>
<path d="M447.936 243.42C446.531 236.759 439.99 232.498 433.326 233.903C430.272 234.547 427.733 236.275 426.002 238.592L425.985 238.591L403.397 236.627L394.593 253.571L429.356 256.539L429.358 256.418C431.964 258.041 435.173 258.706 438.415 258.023C445.079 256.618 449.342 250.08 447.936 243.42Z" fill="#A0616A"/>
<path d="M344.451 258.008C337.995 258.008 332.087 254.761 328.626 249.306C325.146 243.818 324.745 237.043 327.553 231.184L364.446 154.211C367.531 147.774 373.62 143.567 380.735 142.959C387.838 142.347 394.566 145.46 398.702 151.28C403.463 157.981 403.651 166.768 399.179 173.667L362.129 230.829L421.713 236.342L416.493 257.578L344.567 258.007L344.451 258.008Z" fill="#E6E6E6"/>
<path d="M483.18 85.0994C483.18 85.0776 483.181 85.0574 483.184 85.0401C483.225 84.75 483.538 84.6953 483.641 84.6771C484.187 84.5812 487.222 84.6532 487.64 85.4356C487.768 85.6752 488.545 85.6109 489.112 85.5639C489.51 85.531 489.922 85.4968 490.28 85.5266C499.442 86.2853 506.498 86.1502 510.684 85.1367C513.855 84.369 516.508 82.4001 518.155 79.5927C519.797 76.7939 520.235 73.5363 519.348 70.4057L516.844 61.4437C515.98 58.348 513.951 55.7913 511.132 54.245C508.294 52.6881 505.02 52.3502 501.913 53.2929C496.113 55.0525 487.729 60.3098 481.718 64.4102C481.472 64.5779 481.125 64.7583 480.788 64.9328C480.501 65.0817 480.094 65.2925 479.904 65.432C479.945 65.5269 479.926 65.612 479.918 65.6456C479.854 65.9078 479.597 65.9526 479.273 66.0088C479.073 66.0439 478.603 66.126 478.524 66.257C478.512 66.2763 478.523 66.3196 478.531 66.3432C478.624 66.621 478.498 66.7664 478.417 66.8274C478.175 67.0095 477.941 66.8516 477.518 66.5643C477.194 66.3453 476.436 65.8322 476.199 65.9901C476.138 66.031 475.85 66.3226 476.203 68.0604C476.304 68.5551 476.207 68.9978 475.922 69.3401C475.233 70.1679 473.657 70.1505 473.591 70.1495L469.347 69.7554C461.513 69.0257 453.892 71.8563 448.436 77.5215L448.371 77.5886L444.287 78.6408L447.406 90.7359L451.603 89.6547L451.709 89.703C458.086 92.6059 465.597 91.2738 474.674 85.6307L477.251 84.0285L477.344 84.0283C479.042 84.0253 481.139 84.1227 481.493 84.6027C481.549 84.6788 481.58 84.7662 481.581 84.856C481.839 84.9938 482.663 85.0988 483.18 85.0994Z" fill="#48A1AF"/>
<path d="M441.14 92.7751C441.264 93.2575 441.758 93.5487 442.24 93.4243L448.133 91.9063C448.616 91.782 448.907 91.2886 448.782 90.8062L445.294 77.2776C445.169 76.7952 444.676 76.504 444.193 76.6283L438.3 78.1463C437.818 78.2707 437.526 78.764 437.651 79.2465L441.14 92.7751Z" fill="#3F3D56"/>
<path d="M440.808 89.7032C442.665 89.7032 444.171 88.1982 444.171 86.3418C444.171 84.4853 442.665 82.9803 440.808 82.9803C438.951 82.9803 437.445 84.4853 437.445 86.3418C437.445 88.1982 438.951 89.7032 440.808 89.7032Z" fill="#3F3D56"/>
<path d="M249.648 691.551L234.244 691.55L226.916 632.163L249.652 632.165L249.648 691.551Z" fill="#FFB6B6"/>
<path d="M250.191 707.613L202.82 707.611V707.012C202.821 696.835 211.076 688.585 221.258 688.584H221.259L229.912 682.023L246.056 688.585L250.191 688.585L250.191 707.613Z" fill="#2F2E41"/>
<path d="M187.99 691.551L172.586 691.55L165.258 632.163L187.994 632.165L187.99 691.551Z" fill="#FFB6B6"/>
<path d="M188.533 707.613L141.162 707.611V707.012C141.163 696.835 149.418 688.585 159.6 688.584H159.601L168.254 682.023L184.398 688.585L188.533 688.585L188.533 707.613Z" fill="#2F2E41"/>
<path d="M186.485 46.6479C191.215 51.8351 190.842 59.8728 185.652 64.6004C183.274 66.7667 180.297 67.8491 177.315 67.9011L177.306 67.9161L150.213 114.291L131.039 104.959L164.309 54.2866L164.411 54.3578C164.623 51.2001 165.998 48.1156 168.523 45.8155C173.713 41.0879 181.755 41.4606 186.485 46.6479Z" fill="#FFB6B6"/>
<path d="M171.513 299.17C171.513 299.17 147.623 471.108 161.494 504.611L163.416 653.642H189.564L212.282 512.698C212.282 512.698 209.971 509.232 214.594 504.611C219.218 499.99 219.218 504.611 219.218 499.99C219.218 495.369 206.503 479.195 206.503 479.195L217.741 413.345L226.988 653.642L251.261 652.486C251.261 652.486 274.379 575.083 270.911 539.27C270.911 539.27 268.599 515.009 268.599 511.543C268.599 508.077 265.132 502.301 268.599 498.835C272.067 495.369 273.047 486.655 271.401 485.236C269.755 483.816 269.755 477.376 269.755 477.376L295.184 384.463V313.309L171.513 299.17Z" fill="#2F2E41"/>
<path d="M253.573 85.2475L218.897 88.7133L202.114 110.94L181.91 125.747V248.359L186.087 276.761C177.004 283.286 164.08 294.118 169.271 305.893C169.271 305.893 267.999 337.862 295.74 310.136L293.428 240.054L300.43 143.699C301.819 124.6 289.647 107.135 271.242 101.816L256.613 97.5884L253.573 85.2475Z" fill="#E6E6E6"/>
<path d="M288.996 374.718C295.909 373.486 300.514 366.886 299.282 359.977C298.717 356.811 297.017 354.14 294.684 352.282L294.686 352.264L299.313 287.965L279.136 277.987L276.071 355.154L276.196 355.16C274.438 357.793 273.648 361.076 274.247 364.437C275.479 371.347 282.083 375.95 288.996 374.718Z" fill="#FFB6B6"/>
<path d="M300.434 311.495L278.013 312.616L269.52 267.165L250.443 141.461C249.343 134.207 251.386 126.797 256.049 121.13C260.712 115.465 267.593 112.032 274.927 111.712C288.783 111.097 300.613 121.453 301.856 135.26L311.123 238.259L300.434 311.495Z" fill="#E6E6E6"/>
<path d="M183.065 124.527L185.377 173.048L132.352 174.31C113.01 174.771 100.876 153.596 111.06 137.155L139.203 87.5811L157.497 103.778L143.766 137.235L183.065 124.527Z" fill="#E6E6E6"/>
<path d="M229.355 76.7225C247.237 76.7225 261.734 62.2336 261.734 44.3606C261.734 26.4876 247.237 11.9987 229.355 11.9987C211.473 11.9987 196.977 26.4876 196.977 44.3606C196.977 62.2336 211.473 76.7225 229.355 76.7225Z" fill="#FFB6B6"/>
<path d="M261.59 66.469C258.059 70.8837 255.043 73.472 250.178 75.3208C250.099 74.6485 250.054 73.965 250.065 73.2815C249.393 74.2003 248.731 75.1191 248.048 76.0379C245.021 76.9679 241.321 77.6962 236.534 78.4357L234.18 71.2534C233.81 68.0041 235.963 65.0123 238.362 62.7826C240.761 60.5641 243.563 58.6592 245.211 55.8356C246.859 53.0121 246.837 48.799 244.09 47.0287C241.388 45.2695 237.678 46.715 234.629 45.6729C231.108 44.474 229.46 40.1713 230.043 36.4962C230.626 32.821 232.857 29.65 235.021 26.6359C229.976 28.8321 222.342 29.1122 214.909 27.8013C215.178 25.4819 214.618 23.0504 213.216 21.1792C213.082 23.3193 212.084 25.381 210.515 26.8265C203.373 24.9104 196.983 21.5042 194.069 16.9102C195.358 16.574 196.647 16.2267 197.936 15.8906C197.566 13.2463 197.196 10.6131 196.827 7.97999C198.396 8.75312 199.977 9.53746 201.557 10.3106C201.86 9.41417 202.32 8.62989 202.903 7.93512C204.237 7.50941 205.616 7.25164 207.017 7.15084C207.465 7.12841 207.925 7.10598 208.385 7.10598C209.057 7.10598 209.752 7.12841 210.425 7.20686C209.584 6.44494 208.732 5.69416 207.891 4.9211C207.79 4.83144 207.701 4.74179 207.6 4.65213C209.136 3.99108 210.795 3.48685 212.364 3.04986C219.225 1.14503 226.333 -0.770945 233.373 0.315886C237.87 1.01129 242.344 3.28448 245.263 6.67477C247.869 9.70132 251.547 11.4948 255.463 12.2869C257.344 12.6675 259.166 13.5088 260.682 14.6804C259.729 15.2967 258.72 15.8346 257.666 16.2604C259.662 16.7421 261.646 17.224 263.641 17.717C265.502 20.1708 266.769 23.0953 267.733 26.0309C272.195 39.5551 270.491 55.3538 261.59 66.469Z" fill="#2F2E41"/>
<path d="M149.03 58.6031C149.032 58.6255 149.032 58.6464 149.03 58.6644C149.01 58.9658 148.692 59.0458 148.588 59.0723C148.034 59.2123 144.907 59.3684 144.418 58.5957C144.269 58.3589 143.475 58.484 142.895 58.5753C142.488 58.6394 142.067 58.7057 141.697 58.7022C132.219 58.617 124.974 59.2909 120.745 60.6506C117.544 61.6804 114.965 63.9061 113.485 66.9177C112.008 69.9202 111.805 73.3031 112.956 76.4548L116.21 85.4802C117.334 88.5979 119.614 91.0729 122.63 92.4492C125.666 93.8348 129.059 93.9339 132.182 92.729C138.012 90.4798 146.234 84.4381 152.104 79.7661C152.344 79.5749 152.688 79.3631 153.02 79.1582C153.304 78.9832 153.706 78.7356 153.891 78.5778C153.842 78.4833 153.855 78.3943 153.861 78.3593C153.907 78.0847 154.167 78.0192 154.496 77.9368C154.7 77.8855 155.177 77.7655 155.248 77.6247C155.259 77.6041 155.245 77.5603 155.234 77.5367C155.117 77.2581 155.236 77.0991 155.314 77.0302C155.55 76.8246 155.802 76.9693 156.259 77.2326C156.609 77.4331 157.427 77.9033 157.659 77.723C157.719 77.6762 157.992 77.3546 157.497 75.5946C157.356 75.0935 157.422 74.6309 157.689 74.2573C158.335 73.3539 159.956 73.2522 160.025 73.2483L164.419 73.3316C172.529 73.4879 180.151 69.9993 185.33 63.7603L185.392 63.6864L189.512 62.2947L185.387 50.0944L181.153 51.5244L181.041 51.4828C174.263 48.9815 166.641 50.9208 157.736 57.4117L155.208 59.2546L155.112 59.262C153.367 59.3937 151.203 59.4526 150.803 58.9859C150.739 58.9119 150.7 58.8244 150.692 58.7321C150.417 58.61 149.562 58.5645 149.03 58.6031Z" fill="#48A1AF"/>
<path d="M191.676 47.5223C191.511 47.0357 190.981 46.7738 190.495 46.9382L184.551 48.946C184.064 49.1104 183.802 49.6398 183.966 50.1265L188.58 63.7728C188.745 64.2594 189.275 64.5214 189.761 64.3569L195.705 62.3491C196.192 62.1847 196.454 61.6553 196.29 61.1687L191.676 47.5223Z" fill="#3F3D56"/>
<path d="M192.505 57.5781C194.42 57.5781 195.972 56.0264 195.972 54.1123C195.972 52.1982 194.42 50.6465 192.505 50.6465C190.59 50.6465 189.037 52.1982 189.037 54.1123C189.037 56.0264 190.59 57.5781 192.505 57.5781Z" fill="#3F3D56"/>
</g>
<defs>
<clipPath id="clip0_123_1634">
<rect width="605" height="710" fill="white"/>
</clipPath>
</defs>
</svg>
