<svg width="650" height="700" viewBox="0 0 650 700" fill="none" xmlns="http://www.w3.org/2000/svg">
<g clip-path="url(#clip0_123_1634)">
<path d="M466.565 673.398L479.348 673.299L485.007 627.021L466.14 627.167L466.565 673.398Z" fill="#A0616A"/>
<path d="M505.007 687.75L484.59 675.049L484.513 666.659L480.123 666.928L466.513 667.789L463.177 667.992L460.755 697.646L470.345 697.567L471.98 689.252L476.429 697.524L501.845 697.33C505.003 697.303 507.539 694.928 507.511 692.042C507.496 690.321 506.56 688.718 505.007 687.75Z" fill="#2F2E41"/>
<path d="M401.525 673.398L414.309 673.299L419.967 627.021L401.101 627.167L401.525 673.398Z" fill="#A0616A"/>
<path d="M439.967 687.75L419.55 675.049L419.473 666.659L415.083 666.928L401.474 667.789L398.137 667.992L395.716 697.646L405.306 697.567L406.94 689.252L411.389 697.524L436.805 697.33C439.963 697.303 442.499 694.928 442.472 692.042C442.456 690.321 441.521 688.718 439.967 687.75Z" fill="#2F2E41"/>
<path d="M502.339 57.2008C498.6 62.9695 500.668 70.4262 506.958 73.8555C509.84 75.4269 513.105 75.868 516.16 75.3427L516.173 75.355L532.595 91.8571L551.891 85.4438L526.577 60.0881L526.488 60.1745C525.609 57.2576 523.558 54.6331 520.498 52.9646C514.208 49.5353 506.078 51.4319 502.339 57.2008Z" fill="#A0616A"/>
<path d="M516.728 299.241L464.911 300.742L415.822 310.747C415.822 310.747 420.731 316.25 404.368 331.258C404.368 331.258 382.55 366.277 397.823 400.296L402.102 489.269C402.102 489.269 405.753 496.316 402.463 496.77C399.173 497.223 399.409 502.499 402.904 505.937C406.399 509.375 403.228 512.66 403.228 512.66C409.961 516.777 404.994 527.866 404.368 536.369C404.368 536.369 383.242 632.292 397.823 662.821L419.136 663.926L451.745 537.476L467.639 401.296L475.275 535.369C475.275 535.369 446.062 627.393 464.509 663.926L485.38 662.821L521.092 535.369C521.092 535.369 527.102 477.484 531.043 427.425C531.331 423.764 529.673 415.504 531.872 416.594C534.07 417.685 528.524 408.982 532.502 407.81C536.479 406.638 529.788 397.579 533.133 398.242C536.479 398.905 530.99 326.211 530.457 319.367C528.275 291.352 516.728 299.241 516.728 299.241Z" fill="#2F2E41"/>
<path d="M489.572 181.003C484.062 181.004 478.748 179.045 474.662 175.375C469.18 170.453 467.008 163.435 468.852 156.605C470.975 148.739 478.004 142.948 486.757 141.852L559.297 132.766L522.033 84.7154L542.994 74.9582L597.363 132.211C601.166 136.216 602.431 141.64 600.746 146.721C599.061 151.803 594.718 155.663 589.128 157.048L495.246 180.307C493.36 180.775 491.454 181.003 489.572 181.003Z" fill="#E6E6E6"/>
<path d="M534.762 319.26L403.478 324.783C399.873 319.761 400.849 312.21 405.899 302.754C424.964 267.05 410.485 199.506 400.744 164.335C398.011 154.467 405.348 144.657 416.393 143.643L428.771 142.508L440.214 110.472H480.287L496.912 127.892L525.127 143.613C519.991 192.131 498.109 260.642 529.283 295C536.101 302.515 538.034 310.641 534.762 319.26Z" fill="#E6E6E6"/>
<path d="M457.802 105.837C454.763 106.867 451.656 107.835 448.422 108.558C444.22 109.497 441.848 109.932 437.792 108.489C437.649 108.438 437.514 108.388 437.385 108.338C422.238 102.543 411.495 88.7223 411.164 72.5093C411.144 72.2465 411.144 71.9702 411.144 71.7006C411.144 70.3934 411.205 69.0928 411.347 67.8125C411.529 66.0335 411.833 64.2882 412.266 62.5833L412.225 62.5766C408.941 59.497 407.678 55.2787 408.097 51.0401C408.631 45.501 412.029 39.9214 417.488 36.7812C421.549 34.4497 426.177 32.8931 431.143 32.3607C432.433 32.2259 433.737 32.1518 435.068 32.1518H447.391C450.006 31.5993 452.607 31.2151 455.127 31.0332H455.147C479.95 29.1464 499.509 44.2274 497.685 62.5766C497.671 62.5968 497.651 62.617 497.638 62.6372C497.111 63.4256 496.645 64.1736 496.232 64.8879C495.834 65.555 495.496 66.1952 495.205 66.8017C492.942 71.4917 503.698 144.258 499.84 145.363C497.644 145.99 488.794 91.8423 490.381 102.139C492.381 115.057 469.228 101.963 457.802 105.837Z" fill="#2F2E41"/>
<path d="M458.129 100.794C474.24 100.794 487.301 88.8148 487.301 74.0376C487.301 59.2604 474.24 47.2812 458.129 47.2812C442.017 47.2812 428.956 59.2604 428.956 74.0376C428.956 88.8148 442.017 100.794 458.129 100.794Z" fill="#A0616A"/>
<path d="M483.497 62.723C483.01 62.9585 482.531 63.1754 482.044 63.3922C481.537 63.6153 481.031 63.8384 480.517 64.0491C470.754 68.108 462.802 68.5604 457.978 62.723C457.843 59.668 457.1 56.6316 455.756 53.8121C456.006 56.9352 455.073 60.1204 453.181 62.723H443.466C433.46 68.8144 428.325 74.4101 435.271 94.4071C435.723 95.7208 438.824 142.395 439.709 145.983C424.562 140.654 411.495 84.0708 411.164 69.1614C411.144 68.9198 411.144 68.6657 411.144 68.4178C411.144 67.2157 411.205 66.0197 411.347 64.8423C411.529 63.2063 411.833 61.6014 412.265 60.0336L412.225 60.0274C408.941 57.1955 407.678 53.3163 408.097 49.4185C410.624 46.3821 413.765 43.7919 417.366 41.7965C420.589 40.3589 423.988 39.1939 427.514 38.3015C427.602 38.283 427.676 38.2644 427.764 38.2458C428.832 37.9793 429.926 37.7376 431.021 37.5269C433.257 37.0994 435.527 36.7771 437.851 36.5789C438.02 36.5727 438.182 36.5602 438.331 36.5602C439.284 36.5602 440.169 36.8019 440.939 37.2171C440.946 37.2171 440.946 37.2233 440.959 37.2233C441.52 37.5269 442.02 37.9297 442.412 38.4131C443.081 39.1939 443.466 40.173 443.466 41.2388H454.289C454.688 41.2388 455.087 41.2512 455.485 41.2698C470.558 41.8213 482.672 47.733 483.449 61.3225C483.483 61.7935 483.497 62.2521 483.497 62.723Z" fill="#2F2E41"/>
<path d="M419.506 63.7987C430.12 63.7987 438.725 55.9067 438.725 46.1714C438.725 36.4361 430.12 28.5441 419.506 28.5441C408.892 28.5441 400.287 36.4361 400.287 46.1714C400.287 55.9067 408.892 63.7987 419.506 63.7987Z" fill="#2F2E41"/>
<path d="M445.891 38.0182C443.708 47.5453 432.936 53.2433 422.63 50.9125C412.325 48.5816 406.03 39.0296 408.572 29.5775C411.113 20.1253 423.62 22.8503 431.833 16.6832C443.451 7.95899 448.836 25.1702 445.891 38.0182Z" fill="#2F2E41"/>
<path d="M481.254 239.991C479.744 233.425 472.716 229.224 465.557 230.609C462.276 231.243 459.548 232.948 457.688 235.232L457.67 235.231L433.402 233.294L423.943 250L461.291 252.926L461.293 252.806C464.094 254.406 467.541 255.063 471.024 254.389C478.184 253.004 482.764 246.558 481.254 239.991Z" fill="#A0616A"/>
<path d="M370.071 254.374C363.135 254.374 356.787 251.173 353.069 245.794C349.33 240.384 348.899 233.705 351.916 227.928L391.553 152.039C394.868 145.693 401.41 141.545 409.055 140.946C416.686 140.342 423.914 143.412 428.357 149.149C433.473 155.756 433.674 164.419 428.87 171.221L389.064 227.577L453.08 233.013L447.472 253.95L370.196 254.373L370.071 254.374Z" fill="#E6E6E6"/>
<path d="M519.119 83.9008C519.119 83.8794 519.12 83.8594 519.124 83.8423C519.168 83.5563 519.504 83.5024 519.614 83.4844C520.201 83.39 523.462 83.4609 523.911 84.2323C524.048 84.4685 524.883 84.4051 525.492 84.3588C525.92 84.3263 526.362 84.2927 526.747 84.322C536.59 85.07 544.171 84.9368 548.669 83.9375C552.075 83.1807 554.926 81.2396 556.695 78.4717C558.46 75.7123 558.931 72.5006 557.977 69.4141L555.287 60.5783C554.358 57.5262 552.179 55.0056 549.15 53.481C546.101 51.946 542.584 51.6129 539.245 52.5423C533.014 54.2771 524.007 59.4604 517.548 63.503C517.284 63.6684 516.911 63.8462 516.549 64.0183C516.241 64.1651 515.804 64.3729 515.599 64.5105C515.644 64.604 515.623 64.6879 515.614 64.721C515.545 64.9795 515.27 65.0237 514.922 65.0791C514.706 65.1137 514.201 65.1946 514.116 65.3239C514.104 65.3428 514.115 65.3856 514.125 65.4088C514.224 65.6827 514.089 65.826 514.002 65.8862C513.742 66.0657 513.491 65.91 513.036 65.6267C512.688 65.4109 511.874 64.905 511.619 65.0607C511.553 65.101 511.244 65.3885 511.624 67.1018C511.732 67.5895 511.627 68.026 511.321 68.3635C510.581 69.1796 508.888 69.1625 508.817 69.1614L504.257 68.7729C495.841 68.0535 487.652 70.8442 481.791 76.4296L481.721 76.4958L477.333 77.5332L480.684 89.4579L485.193 88.3919L485.307 88.4396C492.158 91.3016 500.228 89.9883 509.98 84.4247L512.749 82.845L512.849 82.8448C514.673 82.8418 516.926 82.9379 517.306 83.4111C517.367 83.4861 517.4 83.5723 517.401 83.6609C517.678 83.7967 518.563 83.9003 519.119 83.9008Z" fill="#48A1AF"/>
<path d="M473.952 91.4684C474.085 91.944 474.616 92.2311 475.134 92.1085L481.465 90.6119C481.984 90.4893 482.297 90.0029 482.163 89.5273L478.415 76.1892C478.281 75.7135 477.751 75.4265 477.232 75.5491L470.901 77.0457C470.383 77.1683 470.07 77.6547 470.203 78.1303L473.952 91.4684Z" fill="#3F3D56"/>
<path d="M473.595 88.4398C475.591 88.4398 477.209 86.956 477.209 85.1257C477.209 83.2954 475.591 81.8116 473.595 81.8116C471.6 81.8116 469.982 83.2954 469.982 85.1257C469.982 86.956 471.6 88.4398 473.595 88.4398Z" fill="#3F3D56"/>
<path d="M268.217 681.811L251.667 681.81L243.794 623.26L268.221 623.261L268.217 681.811Z" fill="#FFB6B6"/>
<path d="M268.8 697.646L217.906 697.645V697.054C217.907 687.02 226.775 678.886 237.715 678.886H237.717L247.013 672.417L264.358 678.887L268.801 678.887L268.8 697.646Z" fill="#2F2E41"/>
<path d="M201.973 681.811L185.423 681.81L177.55 623.26L201.976 623.261L201.973 681.811Z" fill="#FFB6B6"/>
<path d="M202.556 697.646L151.662 697.645V697.054C151.663 687.02 160.531 678.886 171.471 678.886H171.472L180.769 672.417L198.114 678.887L202.556 678.887L202.556 697.646Z" fill="#2F2E41"/>
<path d="M200.356 45.9909C205.437 51.105 205.037 59.0295 199.461 63.6905C196.906 65.8263 193.708 66.8935 190.503 66.9448L190.494 66.9595L161.386 112.681L140.786 103.481L176.53 53.522L176.64 53.5922C176.868 50.479 178.345 47.438 181.058 45.1702C186.634 40.5092 195.274 40.8766 200.356 45.9909Z" fill="#FFB6B6"/>
<path d="M184.27 294.957C184.27 294.957 158.604 464.473 173.506 497.504L175.57 644.435H203.663L228.072 505.477C228.072 505.477 225.588 502.06 230.556 497.504C235.523 492.948 235.523 497.504 235.523 492.948C235.523 488.392 221.863 472.446 221.863 472.446L233.937 407.523L243.872 644.435L269.95 643.296C269.95 643.296 294.787 566.983 291.062 531.674C291.062 531.674 288.578 507.755 288.578 504.338C288.578 500.921 284.852 495.226 288.578 491.809C292.303 488.392 293.356 479.8 291.588 478.401C289.82 477.002 289.82 470.652 289.82 470.652L317.14 379.048V308.896L184.27 294.957Z" fill="#2F2E41"/>
<path d="M272.434 84.0468L235.179 87.4638L217.148 109.377L195.44 123.976V244.861L199.928 272.863C190.169 279.296 176.284 289.975 181.861 301.585C181.861 301.585 287.933 333.104 317.737 305.768L315.253 236.673L322.777 141.676C324.268 122.845 311.191 105.626 291.417 100.382L275.7 96.214L272.434 84.0468Z" fill="#E6E6E6"/>
<path d="M310.491 369.44C317.919 368.226 322.866 361.719 321.542 354.907C320.936 351.785 319.109 349.152 316.602 347.32L316.605 347.303L321.576 283.909L299.898 274.072L296.605 350.152L296.739 350.158C294.851 352.753 294.002 355.99 294.646 359.304C295.97 366.117 303.064 370.654 310.491 369.44Z" fill="#FFB6B6"/>
<path d="M322.781 307.108L298.692 308.213L289.567 263.402L269.071 139.469C267.889 132.317 270.084 125.011 275.094 119.424C280.104 113.838 287.497 110.454 295.376 110.139C310.263 109.532 322.973 119.742 324.308 133.355L334.264 234.904L322.781 307.108Z" fill="#E6E6E6"/>
<path d="M196.682 122.773L199.165 170.611L142.196 171.855C121.416 172.309 108.379 151.433 119.32 135.223L149.557 86.3475L169.211 102.316L154.459 135.302L196.682 122.773Z" fill="#E6E6E6"/>
<path d="M246.415 75.6419C265.627 75.6419 281.202 61.357 281.202 43.7358C281.202 26.1146 265.627 11.8298 246.415 11.8298C227.203 11.8298 211.628 26.1146 211.628 43.7358C211.628 61.357 227.203 75.6419 246.415 75.6419Z" fill="#FFB6B6"/>
<path d="M281.047 65.5328C277.253 69.8854 274.013 72.4372 268.786 74.2599C268.701 73.5971 268.653 72.9233 268.665 72.2494C267.943 73.1552 267.232 74.0611 266.497 74.9669C263.245 75.8839 259.271 76.6019 254.128 77.331L251.598 70.2499C251.201 67.0463 253.513 64.0967 256.091 61.8983C258.668 59.7111 261.68 57.8331 263.45 55.0492C265.221 52.2654 265.197 48.1117 262.246 46.3663C259.343 44.6319 255.356 46.057 252.08 45.0296C248.298 43.8476 246.528 39.6055 247.154 35.9822C247.78 32.3587 250.177 29.2324 252.502 26.2608C247.082 28.426 238.88 28.7022 230.894 27.4097C231.183 25.123 230.581 22.7258 229.075 20.8809C228.931 22.9909 227.859 25.0235 226.173 26.4486C218.5 24.5596 211.635 21.2013 208.504 16.672C209.889 16.3406 211.274 15.9981 212.659 15.6668C212.261 13.0597 211.864 10.4636 211.466 7.86759C213.153 8.62984 214.851 9.40313 216.549 10.1654C216.874 9.28157 217.368 8.50834 217.995 7.82336C219.428 7.40364 220.909 7.14951 222.415 7.05013C222.897 7.02801 223.39 7.0059 223.884 7.0059C224.607 7.0059 225.354 7.02801 226.076 7.10535C225.173 6.35417 224.258 5.61397 223.354 4.85179C223.246 4.76339 223.15 4.675 223.041 4.58661C224.691 3.93487 226.474 3.43774 228.16 3.0069C235.531 1.1289 243.167 -0.760087 250.731 0.311437C255.563 0.997046 260.37 3.23822 263.506 6.58076C266.305 9.56468 270.257 11.3329 274.464 12.1138C276.485 12.4891 278.443 13.3186 280.071 14.4737C279.048 15.0812 277.964 15.6115 276.831 16.0313C278.975 16.5063 281.107 16.9814 283.251 17.4674C285.25 19.8867 286.611 22.77 287.647 25.6643C292.441 38.998 290.61 54.5742 281.047 65.5328Z" fill="#2F2E41"/>
<path d="M160.114 57.7777C160.117 57.7998 160.117 57.8204 160.115 57.8382C160.093 58.1353 159.752 58.2142 159.64 58.2403C159.045 58.3783 155.686 58.5323 155.16 57.7704C155 57.537 154.146 57.6603 153.524 57.7503C153.087 57.8135 152.634 57.8789 152.237 57.8754C142.053 57.7914 134.269 58.4558 129.727 59.7964C126.287 60.8117 123.517 63.006 121.926 65.9753C120.34 68.9354 120.121 72.2706 121.357 75.378L124.854 84.2763C126.061 87.35 128.511 89.7902 131.751 91.1471C135.013 92.5132 138.658 92.6109 142.014 91.423C148.278 89.2055 157.111 83.2489 163.417 78.6426C163.675 78.4541 164.044 78.2453 164.402 78.0433C164.707 77.8708 165.139 77.6267 165.338 77.471C165.285 77.378 165.299 77.2902 165.305 77.2556C165.355 76.985 165.634 76.9203 165.987 76.8391C166.206 76.7886 166.719 76.6702 166.796 76.5314C166.807 76.5111 166.792 76.4679 166.78 76.4446C166.655 76.17 166.782 76.0132 166.867 75.9453C167.119 75.7426 167.39 75.8852 167.882 76.1448C168.257 76.3425 169.136 76.8061 169.386 76.6283C169.45 76.5822 169.744 76.2651 169.212 74.5298C169.06 74.0359 169.131 73.5797 169.418 73.2114C170.112 72.3207 171.854 72.2205 171.928 72.2166L176.648 72.2988C185.362 72.4529 193.551 69.0134 199.115 62.8623L199.182 62.7894L203.608 61.4173L199.176 49.3888L194.627 50.7987L194.506 50.7577C187.225 48.2916 179.036 50.2036 169.469 56.6031L166.752 58.4201L166.649 58.4273C164.774 58.5572 162.449 58.6152 162.019 58.1551C161.951 58.0822 161.909 57.9959 161.901 57.9049C161.605 57.7845 160.686 57.7396 160.114 57.7777Z" fill="#48A1AF"/>
<path d="M205.932 46.853C205.756 46.3732 205.187 46.115 204.663 46.2771L198.277 48.2566C197.754 48.4187 197.473 48.9407 197.649 49.4205L202.607 62.8746C202.784 63.3544 203.353 63.6126 203.876 63.4505L210.262 61.471C210.785 61.3089 211.067 60.7869 210.89 60.3071L205.932 46.853Z" fill="#3F3D56"/>
<path d="M206.823 56.7672C208.881 56.7672 210.549 55.2373 210.549 53.3502C210.549 51.463 208.881 49.9332 206.823 49.9332C204.766 49.9332 203.098 51.463 203.098 53.3502C203.098 55.2373 204.766 56.7672 206.823 56.7672Z" fill="#3F3D56"/>
</g>
<defs>
<clipPath id="clip0_123_1634">
<rect width="650" height="700" fill="white"/>
</clipPath>
</defs>
</svg>
