<svg width="614" height="700" viewBox="0 0 614 700" fill="none" xmlns="http://www.w3.org/2000/svg">
<g clip-path="url(#clip0_123_1608)">
<path d="M437.738 22.5352C443.764 22.3815 449.256 26.7094 452.036 32.1159C454.816 37.5225 455.321 43.8264 455.181 49.9182C455.041 56.0101 454.313 62.1115 454.844 68.1813C455.973 81.0941 463.123 93.3377 473.761 100.577C469.751 100.891 465.817 99.0133 462.787 96.3395C459.758 93.6656 457.491 90.2399 455.26 86.8572C453.373 83.9947 451.475 81.113 450.12 77.9573C448.135 73.3342 447.38 68.2827 446.667 63.2947C444.91 51.0137 443.29 38.7126 441.808 26.3947" fill="#2F2E41"/>
<path d="M335.65 684.89L355.985 684.888L365.659 605.597L335.646 605.599L335.65 684.89Z" fill="#FFB6B6"/>
<path d="M405.321 684.424C405.954 685.502 406.288 688.981 406.288 690.235C406.288 694.088 403.198 697.212 399.386 697.212H336.411C333.81 697.212 331.702 695.081 331.702 692.452V689.801C331.702 689.801 328.587 681.835 335.001 672.017C335.001 672.017 342.972 679.705 354.884 667.663L358.397 661.231L383.824 680.029L397.917 681.783C401.001 682.167 403.735 681.723 405.321 684.424Z" fill="#2F2E41"/>
<path d="M423.407 669.921L443.175 674.742L470.981 599.958L441.806 592.842L423.407 669.921Z" fill="#FFB6B6"/>
<path d="M491.241 685.992C491.607 687.19 491.124 690.651 490.833 691.87C489.939 695.616 486.21 697.919 482.505 697.015L421.287 682.079C418.759 681.462 417.205 678.891 417.815 676.335L418.43 673.759C418.43 673.759 417.25 665.276 425.764 657.253C425.764 657.253 431.729 666.617 446.103 657.737L451.01 652.317L471.364 676.621L484.658 681.669C487.566 682.773 490.326 682.991 491.241 685.992Z" fill="#2F2E41"/>
<path d="M541.337 289.117C537.548 286.011 534.767 282.297 533.213 278.635L495.269 251.346L508.642 233.474L545.693 263.081C549.557 263.863 553.726 265.846 557.515 268.953C566.171 276.05 569.566 286.317 565.099 291.885C560.631 297.453 549.993 296.214 541.337 289.117Z" fill="#FFB6B6"/>
<path d="M534.339 248.925L532.566 252.589L523.374 271.556L520.655 277.154L493.916 252.881L472.415 233.371L421.874 187.504C418.368 184.323 416.655 180.004 416.655 175.705C416.655 170.561 419.105 165.456 423.835 162.356C426.763 160.433 430.239 159.557 433.715 159.859C441.921 160.574 458.452 162.104 475.99 164.218L482.025 181.876L479.067 197.742L471.02 195.336L478.35 201.548L534.339 248.925Z" fill="#48A1AF"/>
<path d="M374.467 230.202C378.364 230.226 386.536 283.584 380.443 291.613C375.444 298.2 467.053 291.613 467.053 291.613C458.441 289.843 462.316 232.838 471.57 230.202L416.294 213.088L374.467 230.202Z" fill="#FFB6B6"/>
<path d="M462.984 284.415H381.541C381.541 284.415 347.578 338.93 347.578 444.637L333.636 614.776L368.492 616.789L424.653 386.155L455.517 499.383L434.22 620.179H467.97L507.924 483.969L499.949 412.422C499.949 412.422 491.63 314.104 462.984 284.415Z" fill="#2F2E41"/>
<path d="M482.025 181.876L479.067 197.742L478.35 201.548L472.414 233.371L464.364 245.342C464.364 245.342 407.049 227.38 380.161 249.529L358.535 178.856L381.44 128.519L399.366 118.452L402.354 106.371H440.327L446.173 118.452L463.103 126.506L475.99 164.218L482.025 181.876Z" fill="#48A1AF"/>
<path d="M470.494 124.414C467.391 128.219 463.695 131 460.061 132.543L432.763 170.68L415.192 157.019L444.774 119.803C445.579 115.902 447.574 111.704 450.678 107.898C457.767 99.2054 467.95 95.8554 473.422 100.416C478.895 104.977 477.584 115.721 470.494 124.414Z" fill="#FFB6B6"/>
<path d="M396.907 129.157C396.907 129.157 367.998 113.09 358.612 129.157C350.604 142.865 343.644 212.129 341.773 232.168C341.444 235.685 342.284 239.202 344.161 242.183C349.717 251.01 362.052 252.09 369.027 244.361L458.494 145.223L430.68 131.165L383 181.373L396.907 129.157Z" fill="#48A1AF"/>
<path d="M416.745 98.6896C436.82 98.6896 453.095 82.2379 453.095 61.9438C453.095 41.6496 436.82 25.1979 416.745 25.1979C396.669 25.1979 380.395 41.6496 380.395 61.9438C380.395 82.2379 396.669 98.6896 416.745 98.6896Z" fill="#FFB6B6"/>
<path d="M444.736 42.0837C439.069 45.9518 435.443 52.4341 434.521 62.0941C430.961 59.2363 430.434 54.0376 431.788 47.3862C429.313 54.1944 409.219 88.8445 407.894 99.7987C407.052 106.776 409.813 113.809 414.05 119.377C418.012 124.568 423.175 128.642 428.462 132.466C418.523 128.796 410.24 120.716 406.306 110.781C400.619 96.4357 404.001 80.4719 408.474 65.4431C407.424 67.4386 405.92 71.0807 404.181 72.504C401.944 74.332 399.294 73.7599 397.499 76.0344C395.318 78.7975 394.904 82.6628 395.581 86.1374C396.271 89.6121 397.927 92.7936 399.556 95.9193C376.509 91.5388 369.657 64.9121 380.19 46.7722C373.453 58.9962 371.99 83.6116 380.562 94.5798C385.366 100.734 392.323 105.534 394.725 112.986C396.409 118.218 395.484 124.051 393.165 129.033C390.846 134.015 387.216 138.257 383.378 142.164C381.804 143.769 380.189 145.318 378.505 146.825C376.644 144.909 373.486 145.815 372.799 148.409C372.417 149.85 371.814 151.335 371.051 152.853C364.231 154.418 355.022 152.246 353.617 161.937C353.242 164.522 348.62 163.375 346.052 163.793C346.744 161.848 344.51 160.125 342.877 161.37C340.743 162.997 338.47 163.95 336.086 164.352C330.012 164.017 324.063 162.454 318.79 159.412C335.603 148.82 350.353 151.877 356.924 132.982C357.953 130.027 358.284 123.862 358.266 116.927C358.225 101.203 354.566 85.7691 348.267 71.393C347.498 69.639 346.913 67.9444 346.66 66.4618C344.824 55.7588 347.681 41.0509 352.319 34.1296C356.957 27.2222 364.977 22.7568 373.246 22.5335C377.373 22.4079 379.83 24.2359 383.475 22.2684C387.367 20.1613 388.278 22.9242 390.915 19.3519C395.622 12.9747 403.642 9.68153 411.51 9.40243C419.379 9.12333 423.782 6.90399 430.932 10.2391C435.446 12.3462 440.645 24.1502 445.62 24.2221C455.918 24.371 457.894 33.1036 444.736 42.0837Z" fill="#2F2E41"/>
<path d="M429.607 133.289C429.221 133.01 428.848 132.745 428.462 132.466C428.765 132.591 429.069 132.703 429.373 132.801L429.607 133.289Z" fill="#2F2E41"/>
<path d="M606.856 282.662C601.119 275.816 592.739 271.889 583.863 271.889H548.977C539.81 271.889 531.255 276.029 525.505 283.247C519.756 290.465 517.58 299.798 519.536 308.852L527.149 344.092C525.281 348.933 524.244 354.195 524.244 359.705C524.244 383.443 543.28 402.686 566.762 402.686C590.244 402.686 609.28 383.443 609.28 359.705C609.28 355.028 608.531 350.53 607.165 346.315L613.588 307.36C615.047 298.51 612.593 289.507 606.856 282.662ZM566.762 316.723C554.391 316.723 543.258 322.068 535.489 330.594L530.279 306.48C529.037 300.73 530.419 294.803 534.07 290.218C537.722 285.634 543.155 283.005 548.977 283.005H583.863C589.5 283.005 594.823 285.499 598.466 289.846C602.11 294.194 603.668 299.912 602.741 305.533L598.52 331.138C590.732 322.297 579.394 316.723 566.762 316.723Z" fill="#3F3D56"/>
<path d="M214.379 604.239C209.88 598.871 203.309 595.792 196.349 595.792H168.993C161.804 595.792 155.096 599.038 150.588 604.698C146.079 610.359 144.373 617.676 145.907 624.776L151.877 652.41C150.411 656.206 149.598 660.332 149.598 664.653C149.598 683.267 164.526 698.357 182.939 698.357C201.352 698.357 216.28 683.267 216.28 664.653C216.28 660.985 215.692 657.458 214.621 654.153L219.657 623.607C220.801 616.667 218.878 609.607 214.379 604.239ZM182.939 630.949C173.238 630.949 164.509 635.14 158.416 641.825L154.331 622.917C153.357 618.408 154.44 613.76 157.304 610.165C160.167 606.57 164.427 604.509 168.993 604.509H196.349C200.769 604.509 204.943 606.464 207.8 609.873C210.657 613.283 211.879 617.766 211.152 622.174L207.842 642.252C201.735 635.319 192.844 630.949 182.939 630.949Z" fill="#3F3D56"/>
<path d="M387.029 26.2537L384.393 25.4278C384.786 16.0763 387.287 7.56263 392.18 -1.52588e-05L394.816 0.825803L387.029 26.2537Z" fill="#48A1AF"/>
<path d="M387.044 22.9819L385.35 25.1851L364.557 8.8535L366.251 6.65031C375.431 9.92633 382.13 15.5939 387.044 22.9819Z" fill="#48A1AF"/>
</g>
<defs>
<clipPath id="clip0_123_1608">
<rect width="614" height="700" fill="white"/>
</clipPath>
</defs>
</svg>
