<svg width="650" height="700" viewBox="0 0 650 700" fill="none" xmlns="http://www.w3.org/2000/svg">
<g clip-path="url(#clip0_123_1608)">
<path d="M463.403 22.5352C469.783 22.3815 475.597 26.7094 478.54 32.1159C481.483 37.5225 482.017 43.8264 481.869 49.9182C481.721 56.0101 480.95 62.1115 481.512 68.1813C482.708 81.0941 490.277 93.3377 501.538 100.577C497.294 100.891 493.128 99.0133 489.922 96.3395C486.715 93.6656 484.315 90.2399 481.953 86.8572C479.955 83.9947 477.946 81.113 476.512 77.9573C474.41 73.3342 473.611 68.2827 472.856 63.2947C470.996 51.0137 469.281 38.7126 467.712 26.3947" fill="#2F2E41"/>
<path d="M355.33 684.89L376.857 684.888L387.098 605.597L355.326 605.599L355.33 684.89Z" fill="#FFB6B6"/>
<path d="M429.085 684.424C429.756 685.502 430.109 688.981 430.109 690.235C430.109 694.088 426.838 697.212 422.803 697.212H356.135C353.382 697.212 351.151 695.081 351.151 692.452V689.801C351.151 689.801 347.853 681.835 354.643 672.017C354.643 672.017 363.082 679.705 375.692 667.664L379.41 661.231L406.328 680.029L421.248 681.783C424.512 682.167 427.406 681.723 429.085 684.424Z" fill="#2F2E41"/>
<path d="M448.232 669.921L469.159 674.742L498.596 599.958L467.71 592.842L448.232 669.921Z" fill="#FFB6B6"/>
<path d="M520.044 685.992C520.431 687.19 519.92 690.651 519.612 691.87C518.665 695.616 514.717 697.919 510.795 697.015L445.988 682.079C443.312 681.462 441.666 678.891 442.312 676.335L442.963 673.759C442.963 673.759 441.714 665.276 450.727 657.253C450.727 657.253 457.042 666.617 472.259 657.737L477.454 652.317L499.001 676.621L513.074 681.669C516.153 682.773 519.075 682.991 520.044 685.992Z" fill="#2F2E41"/>
<path d="M573.076 289.117C569.065 286.011 566.122 282.297 564.476 278.635L524.307 251.346L538.465 233.474L577.687 263.081C581.779 263.863 586.192 265.846 590.203 268.953C599.366 276.05 602.961 286.317 598.231 291.885C593.502 297.453 582.24 296.214 573.076 289.117Z" fill="#FFB6B6"/>
<path d="M565.668 248.925L563.791 252.589L554.06 271.556L551.182 277.154L522.875 252.881L500.113 233.371L446.609 187.504C442.898 184.323 441.084 180.004 441.084 175.705C441.084 170.561 443.678 165.456 448.686 162.356C451.785 160.433 455.465 159.557 459.144 159.859C467.831 160.574 485.332 162.104 503.898 164.218L510.287 181.876L507.156 197.742L498.637 195.336L506.397 201.548L565.668 248.925Z" fill="#48A1AF"/>
<path d="M396.423 230.202C400.548 230.226 409.199 283.584 402.748 291.613C397.457 298.2 494.437 291.613 494.437 291.613C485.32 289.843 489.422 232.838 499.219 230.202L440.702 213.088L396.423 230.202Z" fill="#FFB6B6"/>
<path d="M490.13 284.415H403.912C403.912 284.415 367.958 338.93 367.958 444.637L353.198 614.776L390.097 616.789L449.552 386.155L482.225 499.383L459.679 620.179H495.409L537.705 483.969L529.262 412.422C529.262 412.422 520.455 314.104 490.13 284.415Z" fill="#2F2E41"/>
<path d="M510.287 181.876L507.156 197.742L506.397 201.548L500.113 233.371L491.591 245.342C491.591 245.342 430.916 227.38 402.45 249.529L379.557 178.856L403.805 128.519L422.782 118.452L425.945 106.371H466.144L472.333 118.452L490.256 126.506L503.898 164.218L510.287 181.876Z" fill="#48A1AF"/>
<path d="M498.081 124.414C494.795 128.219 490.882 131 487.035 132.543L458.137 170.68L439.535 157.019L470.852 119.803C471.704 115.902 473.817 111.704 477.102 107.898C484.607 99.2054 495.387 95.8554 501.18 100.416C506.973 104.977 505.586 115.721 498.081 124.414Z" fill="#FFB6B6"/>
<path d="M420.178 129.157C420.178 129.157 389.574 113.09 379.638 129.157C371.161 142.865 363.792 212.129 361.811 232.168C361.464 235.685 362.353 239.202 364.339 242.183C370.222 251.01 383.279 252.09 390.664 244.361L485.376 145.223L455.932 131.165L405.456 181.373L420.178 129.157Z" fill="#48A1AF"/>
<path d="M441.179 98.6896C462.432 98.6896 479.66 82.2379 479.66 61.9437C479.66 41.6495 462.432 25.1979 441.179 25.1979C419.927 25.1979 402.698 41.6495 402.698 61.9437C402.698 82.2379 419.927 98.6896 441.179 98.6896Z" fill="#FFB6B6"/>
<path d="M470.812 42.0837C464.812 45.9518 460.974 52.4341 459.998 62.094C456.23 59.2363 455.671 54.0376 457.105 47.3862C454.484 54.1944 433.212 88.8445 431.81 99.7987C430.918 106.776 433.841 113.809 438.327 119.377C442.521 124.568 447.986 128.642 453.583 132.466C443.062 128.796 434.294 120.716 430.129 110.781C424.108 96.4357 427.689 80.4719 432.423 65.4431C431.313 67.4386 429.72 71.0807 427.879 72.504C425.511 74.332 422.706 73.7599 420.806 76.0344C418.497 78.7974 418.059 82.6627 418.775 86.1374C419.505 89.6121 421.259 92.7936 422.983 95.9193C398.585 91.5388 391.331 64.9121 402.481 46.7722C395.349 58.9962 393.8 83.6116 402.875 94.5798C407.961 100.734 415.326 105.534 417.869 112.986C419.651 118.218 418.672 124.051 416.217 129.033C413.762 134.015 409.919 138.257 405.856 142.164C404.19 143.769 402.481 145.318 400.698 146.825C398.728 144.909 395.385 145.815 394.657 148.409C394.253 149.85 393.615 151.335 392.807 152.853C385.587 154.418 375.838 152.246 374.35 161.937C373.954 164.522 369.06 163.375 366.342 163.793C367.074 161.847 364.71 160.125 362.981 161.37C360.722 162.996 358.316 163.95 355.791 164.352C349.362 164.017 343.063 162.454 337.481 159.412C355.28 148.82 370.895 151.877 377.851 132.982C378.941 130.027 379.291 123.862 379.272 116.927C379.228 101.203 375.356 85.7691 368.687 71.393C367.873 69.639 367.253 67.9444 366.985 66.4618C365.042 55.7588 368.066 41.0509 372.977 34.1296C377.887 27.2222 386.377 22.7568 395.13 22.5335C399.5 22.4079 402.101 24.2359 405.959 22.2684C410.08 20.1613 411.044 22.9242 413.835 19.3519C418.818 12.9747 427.309 9.68153 435.638 9.40243C443.968 9.12332 448.629 6.90398 456.199 10.2391C460.978 12.3462 466.481 24.1502 471.748 24.2221C482.65 24.3709 484.741 33.1036 470.812 42.0837Z" fill="#2F2E41"/>
<path d="M454.796 133.289C454.387 133.01 453.992 132.745 453.583 132.466C453.905 132.591 454.226 132.703 454.548 132.801L454.796 133.289Z" fill="#2F2E41"/>
<path d="M642.437 282.662C636.364 275.816 627.492 271.889 618.096 271.889H581.164C571.46 271.889 562.403 276.029 556.317 283.247C550.23 290.465 547.927 299.798 549.998 308.852L558.057 344.092C556.079 348.933 554.981 354.195 554.981 359.705C554.981 383.443 575.133 402.686 599.992 402.686C624.851 402.686 645.003 383.443 645.003 359.705C645.003 355.028 644.211 350.53 642.764 346.315L649.563 307.36C651.108 298.51 648.511 289.507 642.437 282.662ZM599.992 316.723C586.896 316.723 575.11 322.068 566.885 330.594L561.37 306.48C560.055 300.73 561.518 294.803 565.384 290.218C569.249 285.634 575.001 283.005 581.164 283.005H618.096C624.064 283.005 629.698 285.499 633.556 289.846C637.413 294.194 639.062 299.912 638.081 305.533L633.612 331.138C625.368 322.297 613.364 316.723 599.992 316.723Z" fill="#3F3D56"/>
<path d="M226.948 604.239C222.186 598.871 215.229 595.792 207.861 595.792H178.901C171.291 595.792 164.189 599.038 159.417 604.698C154.644 610.359 152.838 617.676 154.462 624.776L160.782 652.41C159.23 656.206 158.37 660.332 158.37 664.653C158.37 683.267 174.172 698.357 193.665 698.357C213.158 698.357 228.96 683.267 228.96 664.653C228.96 660.985 228.339 657.458 227.204 654.153L232.536 623.607C233.747 616.667 231.711 609.607 226.948 604.239ZM193.665 630.949C183.395 630.949 174.154 635.14 167.704 641.825L163.379 622.917C162.348 618.408 163.496 613.76 166.527 610.165C169.558 606.57 174.068 604.509 178.901 604.509H207.861C212.54 604.509 216.959 606.464 219.983 609.873C223.008 613.283 224.302 617.766 223.532 622.174L220.028 642.252C213.563 635.319 204.151 630.949 193.665 630.949Z" fill="#3F3D56"/>
<path d="M409.722 26.2537L406.93 25.4278C407.347 16.0763 409.995 7.56263 415.174 -1.52588e-05L417.965 0.825803L409.722 26.2537Z" fill="#48A1AF"/>
<path d="M409.737 22.9819L407.944 25.1851L385.932 8.8535L387.725 6.65032C397.443 9.92634 404.535 15.5939 409.737 22.9819Z" fill="#48A1AF"/>
</g>
<defs>
<clipPath id="clip0_123_1608">
<rect width="650" height="700" fill="white"/>
</clipPath>
</defs>
</svg>
