<svg width="650" height="700" viewBox="0 0 650 700" fill="none" xmlns="http://www.w3.org/2000/svg">
<path d="M538.726 439C494.922 439 447.32 431.865 400.038 418.145C341.567 401.178 287.956 375.569 245 344.085L246.272 342C289.021 373.332 342.395 398.824 400.623 415.719C453.244 430.989 506.259 438.064 553.917 436.197L554 438.704C548.967 438.902 543.876 439.001 538.726 439Z" fill="#F0F0F0"/>
<path d="M485.726 443C441.921 443 394.32 435.865 347.038 422.145C288.567 405.178 234.956 379.569 192 348.085L193.272 346C236.021 377.332 289.395 402.824 347.623 419.719C400.244 434.989 453.259 442.064 500.917 440.197L501 442.703C495.967 442.902 490.876 443.001 485.726 443Z" fill="#F0F0F0"/>
<path d="M250.404 304C245.686 304.006 241.162 306.044 237.826 309.666C234.49 313.289 232.613 318.201 232.608 323.324C225.841 377.418 223.582 432.065 225.856 486.6C225.991 490.082 226.141 493.266 226.315 496.339C226.567 501.414 226.888 506.771 227.267 512.264C227.485 515.505 227.715 518.756 227.967 521.995C228.388 527.272 228.852 532.634 229.344 537.931C229.654 541.167 229.975 544.419 230.319 547.657C230.979 554.019 231.725 560.539 232.603 567.592C232.594 572.729 234.464 577.659 237.803 581.298C241.141 584.938 245.674 586.989 250.404 587H548.927C553.646 586.994 558.169 584.956 561.506 581.334C564.842 577.711 566.719 572.799 566.724 567.676L566.738 567.542C568.067 560.964 569.306 554.261 570.419 547.617C571.015 544.114 571.529 540.933 571.991 537.892C572.828 532.355 573.573 526.995 574.203 521.964C574.635 518.585 575.025 515.314 575.362 512.236C575.918 507.199 576.421 501.993 576.899 496.32C577.161 493.236 577.401 490.051 577.633 486.584V486.582C581.283 431.922 577.613 376.975 566.737 323.458L566.724 323.324C566.719 318.201 564.842 313.289 561.506 309.666C558.169 306.043 553.646 304.006 548.927 304L250.404 304Z" fill="#3F3D56"/>
<path d="M411.579 386C346.955 386 278.476 379.625 188.854 366.873H188.844C184.198 366.866 179.717 364.997 176.262 361.626C172.806 358.255 170.619 353.617 170.119 348.603C170.037 347.849 169.998 347.09 170 346.331V287.805C169.998 287.68 170.004 287.555 170.016 287.431C170.117 282.053 172.152 276.932 175.686 273.162C179.221 269.393 183.973 267.274 188.928 267.259C344.852 244.245 439.571 244.247 611.142 267.264H611.15C616.102 267.299 620.845 269.435 624.365 273.216C627.885 276.997 629.903 282.123 629.988 287.498C629.998 287.6 630.002 287.702 629.999 287.805V346.331C630.002 347.092 629.962 347.853 629.88 348.609C629.373 353.636 627.172 358.282 623.7 361.654C620.228 365.027 615.73 366.887 611.072 366.878C536.945 379.624 476.188 386 411.579 386Z" fill="white"/>
<path d="M421.896 427H382.103C377.038 426.994 372.183 424.834 368.602 420.993C365.02 417.153 363.006 411.946 363 406.515V251.485C363.006 246.054 365.02 240.847 368.602 237.007C372.183 233.166 377.038 231.006 382.103 231H421.896C426.961 231.006 431.817 233.166 435.398 237.007C438.98 240.847 440.994 246.054 441 251.485V406.515C440.994 411.946 438.98 417.153 435.398 420.993C431.817 424.834 426.961 426.994 421.896 427Z" fill="#3F3D56"/>
<path d="M511.748 201.492C511.464 198.601 510.963 195.741 510.251 192.938C509.483 190.13 508.51 187.391 507.342 184.749C503.154 175.035 496.091 167.107 487.269 162.218C476.319 156.391 463.794 155.914 452.021 158.721C442.125 161.118 432.832 165.821 424.791 172.503C420.622 175.898 416.814 179.781 413.434 184.082C409.946 188.606 403.457 201.037 402.99 202.188C399.321 193.184 394.057 185.043 387.494 178.226C379.866 170.399 370.761 164.45 360.804 160.788C355.51 158.86 350.015 157.653 344.445 157.194C338.551 156.664 332.617 157.224 326.897 158.849C316.622 161.959 307.735 168.982 301.875 178.621C296.291 187.58 293.549 198.256 294.06 209.045C294.343 214.492 295.43 219.855 297.279 224.931C298.27 227.679 299.446 230.344 300.796 232.907C302.194 235.438 303.756 237.859 305.472 240.15C312.205 249.081 321.273 255.609 331.493 258.88C342.403 262.526 353.976 262.645 365.195 260.933C376.716 259.176 387.805 255.144 398.656 250.729C400.103 250.14 401.545 249.534 402.988 248.934C412.635 252.945 422.363 256.814 432.461 259.27C443.821 262.236 455.611 262.747 467.154 260.774C477.913 258.865 487.916 253.583 495.923 245.582C503.331 238.046 508.516 228.312 510.828 217.603C511.968 212.326 512.28 206.88 511.748 201.492ZM362.199 248.94C355.972 249.802 349.671 249.842 343.436 249.058C338.966 248.358 334.588 247.098 330.388 245.304C320.489 240.847 312.597 232.377 308.404 221.708C307.15 218.345 306.258 214.837 305.743 211.254C305.413 208.066 305.413 204.848 305.741 201.66C306.229 198.306 307.066 195.022 308.235 191.87C309.5 188.805 311.071 185.899 312.919 183.202C314.712 180.789 316.737 178.59 318.961 176.641C321.07 174.956 323.338 173.518 325.729 172.354C328.583 171.149 331.552 170.291 334.581 169.795C338.684 169.304 342.826 169.339 346.922 169.899C351.795 170.712 356.565 172.134 361.135 174.134C365.997 176.415 370.591 179.311 374.822 182.761C378.737 186.114 382.286 189.938 385.399 194.16C388.482 198.592 391.067 203.405 393.1 208.496C395.076 213.808 396.464 219.353 397.236 225.018L397.244 225.1C396.943 227.946 396.793 230.808 396.793 233.673C396.795 234.776 396.84 235.878 396.891 236.98C396.406 237.485 396.002 238.073 395.695 238.721C387.695 242.113 379.495 244.925 371.149 247.136C368.191 247.874 365.207 248.475 362.199 248.94ZM500.259 211.253C499.744 214.837 498.852 218.345 497.598 221.709C493.425 232.393 485.527 240.87 475.614 245.304C471.414 247.098 467.036 248.358 462.566 249.058C456.319 249.843 450.007 249.802 443.769 248.935C432.69 247.222 422.001 243.442 411.546 239.222C411.116 239.049 410.689 238.865 410.259 238.69C409.967 238.052 409.58 237.471 409.114 236.968C409.298 232.971 409.183 228.964 408.771 224.987C409.543 219.333 410.93 213.798 412.902 208.496C414.935 203.405 417.52 198.593 420.603 194.161C423.716 189.938 427.265 186.114 431.18 182.761C435.411 179.311 440.005 176.415 444.867 174.134C449.437 172.134 454.207 170.712 459.081 169.899C463.176 169.339 467.318 169.304 471.421 169.795C474.45 170.291 477.419 171.149 480.273 172.354C482.664 173.519 484.933 174.956 487.041 176.642C489.265 178.59 491.291 180.789 493.083 183.202C494.931 185.899 496.502 188.805 497.767 191.87C498.936 195.022 499.773 198.306 500.262 201.66C500.59 204.848 500.589 208.066 500.259 211.253Z" fill="#3F3D56"/>
<path d="M285.5 468C290.194 468 294 464.194 294 459.5C294 454.806 290.194 451 285.5 451C280.806 451 277 454.806 277 459.5C277 464.194 280.806 468 285.5 468Z" fill="white"/>
<path d="M332.5 415C336.09 415 339 411.642 339 407.5C339 403.358 336.09 400 332.5 400C328.91 400 326 403.358 326 407.5C326 411.642 328.91 415 332.5 415Z" fill="white"/>
<path d="M311 474C314.866 474 318 470.642 318 466.5C318 462.358 314.866 459 311 459C307.134 459 304 462.358 304 466.5C304 470.642 307.134 474 311 474Z" fill="white"/>
<path d="M515 434C518.866 434 522 430.642 522 426.5C522 422.358 518.866 419 515 419C511.134 419 508 422.358 508 426.5C508 430.642 511.134 434 515 434Z" fill="white"/>
<path d="M465.5 415C469.09 415 472 411.642 472 407.5C472 403.358 469.09 400 465.5 400C461.91 400 459 403.358 459 407.5C459 411.642 461.91 415 465.5 415Z" fill="white"/>
<path d="M487.5 474C491.09 474 494 470.642 494 466.5C494 462.358 491.09 459 487.5 459C483.91 459 481 462.358 481 466.5C481 470.642 483.91 474 487.5 474Z" fill="white"/>
<path d="M520 565C523.866 565 527 561.642 527 557.5C527 553.358 523.866 550 520 550C516.134 550 513 553.358 513 557.5C513 561.642 516.134 565 520 565Z" fill="white"/>
<path d="M537.5 511C541.642 511 545 507.642 545 503.5C545 499.358 541.642 496 537.5 496C533.358 496 530 499.358 530 503.5C530 507.642 533.358 511 537.5 511Z" fill="white"/>
<path d="M484 535C487.866 535 491 531.642 491 527.5C491 523.358 487.866 520 484 520C480.134 520 477 523.358 477 527.5C477 531.642 480.134 535 484 535Z" fill="white"/>
<path d="M323.5 565C327.09 565 330 561.642 330 557.5C330 553.358 327.09 550 323.5 550C319.91 550 317 553.358 317 557.5C317 561.642 319.91 565 323.5 565Z" fill="white"/>
<path d="M341 511C344.866 511 348 507.642 348 503.5C348 499.358 344.866 496 341 496C337.134 496 334 499.358 334 503.5C334 507.642 337.134 511 341 511Z" fill="white"/>
<path d="M290 587C294.971 587 299 582.971 299 578C299 573.029 294.971 569 290 569C285.029 569 281 573.029 281 578C281 582.971 285.029 587 290 587Z" fill="white"/>
<path d="M255.579 319.556C254.78 320.901 252.842 320.706 251.754 319.864C250.244 318.697 250.733 316.448 251.773 315.119C255.078 310.896 260.545 315.355 261.283 319.549C261.557 321.594 261.261 323.68 260.432 325.548C259.603 327.415 258.276 328.983 256.618 330.056C252.846 332.435 247.947 331.242 244.705 328.395C237.94 322.456 239.782 310.566 247.296 306.269C252.091 303.527 258.153 304.731 262.876 307.028C268.193 309.613 272.766 313.576 277.683 316.879C288.472 324.067 300.676 328.503 313.343 329.839C315.56 330.08 315.544 326.388 313.343 326.149C306.324 325.377 299.433 323.611 292.853 320.898C286.342 318.09 280.163 314.48 274.441 310.143C268.651 305.919 262.602 301.816 255.437 301.118C252.546 300.759 249.617 301.221 246.947 302.457C244.278 303.693 241.964 305.66 240.24 308.156C238.707 310.39 237.681 312.972 237.242 315.699C236.803 318.426 236.963 321.224 237.71 323.874C238.611 326.645 240.185 329.112 242.272 331.025C244.36 332.938 246.887 334.228 249.595 334.764C252.203 335.288 254.899 334.934 257.307 333.749C259.716 332.565 261.718 330.61 263.032 328.157C265.67 323.302 265.584 316.782 261.601 312.757C260.459 311.522 259.03 310.632 257.459 310.177C255.888 309.722 254.231 309.719 252.659 310.169C251.21 310.69 249.936 311.649 248.991 312.928C248.046 314.208 247.472 315.753 247.34 317.374C246.955 323.675 255.36 326.826 258.572 321.418C259.768 319.405 256.769 317.552 255.579 319.556Z" fill="#8E24AA"/>
<path d="M549.66 319.556C550.448 320.901 552.361 320.706 553.435 319.864C554.926 318.697 554.444 316.448 553.417 315.119C550.153 310.896 544.756 315.355 544.028 319.549C543.758 321.594 544.05 323.68 544.868 325.548C545.687 327.415 546.996 328.983 548.634 330.056C552.357 332.435 557.193 331.242 560.394 328.395C567.072 322.456 565.254 310.566 557.836 306.269C553.103 303.527 547.119 304.731 542.456 307.028C537.207 309.613 532.693 313.576 527.839 316.879C517.188 324.067 505.14 328.503 492.636 329.839C490.447 330.08 490.463 326.388 492.636 326.149C499.565 325.377 506.368 323.611 512.863 320.898C519.29 318.09 525.391 314.48 531.039 310.143C536.755 305.919 542.726 301.816 549.799 301.118C552.653 300.759 555.545 301.221 558.18 302.457C560.815 303.693 563.1 305.66 564.801 308.156C566.315 310.39 567.328 312.972 567.761 315.699C568.195 318.426 568.036 321.224 567.299 323.874C566.41 326.645 564.856 329.112 562.795 331.025C560.734 332.938 558.24 334.228 555.566 334.764C552.992 335.288 550.331 334.934 547.953 333.749C545.575 332.565 543.599 330.61 542.301 328.157C539.698 323.302 539.783 316.782 543.715 312.757C544.842 311.522 546.253 310.632 547.804 310.177C549.355 309.722 550.99 309.719 552.542 310.169C553.972 310.69 555.23 311.649 556.163 312.928C557.095 314.208 557.662 315.753 557.793 317.374C558.172 323.675 549.876 326.826 546.705 321.418C545.524 319.405 548.484 317.552 549.66 319.556Z" fill="#8E24AA"/>
<path d="M76.748 71.0355C71.7871 52.045 111.8 35.7603 122.307 51.0534C123.768 48.8792 129.167 47.5585 131.645 48.2255C134.07 49.071 136.311 50.413 138.238 52.1739C141.034 54.4283 143.93 56.7626 145.645 60.004C147.373 63.2321 147.64 67.6341 145.315 70.4353C143.473 72.6629 138.035 74.1036 135.266 74.6905C133.334 75.104 131.708 75.4375 130.311 75.6776C129.041 73.7574 128.457 71.4291 128.659 69.1014C127.718 69.7676 126.93 70.6441 126.35 71.6681C125.77 72.6921 125.413 73.8381 125.305 75.024C125.267 75.5175 140.919 135.984 140.919 135.984C139.038 137.108 137.06 138.041 135.011 138.772C130.958 132.268 127.854 125.164 125.801 117.696C125.329 122.69 125.388 127.723 125.978 132.703C126.292 135.495 126.742 138.269 127.325 141.013C108.726 145.228 80.75 143.841 68.5789 125.913L68.5728 125.69C68.5633 124.983 68.3198 124.3 67.884 123.761C67.4481 123.221 66.847 122.857 66.1837 122.731C65.5203 122.605 64.836 122.726 64.2478 123.071C63.6597 123.417 63.2044 123.967 62.9599 124.626C62.6646 125.417 62.3928 126.102 62.1503 126.647C58.6059 113.334 63.1922 97.9273 76.748 71.0355Z" fill="#2F2E41"/>
<path d="M163.472 653L177.701 652.879L184 596L163 596.18L163.472 653Z" fill="#A0616A"/>
<path d="M194.125 678.545L178.842 662.56L178.784 652L175.498 652.339L165.31 653.422L162.813 653.679L161 691L168.179 690.9L169.402 680.436L172.733 690.847L191.758 690.602C192.67 690.59 193.556 690.128 194.286 689.285C195.016 688.442 195.552 687.262 195.816 685.915C196.081 684.569 196.059 683.128 195.755 681.802C195.451 680.477 194.88 679.335 194.125 678.545Z" fill="#2F2E41"/>
<path d="M27 670.958L40.4927 673L55 621.012L35.0856 618L27 670.958Z" fill="#A0616A"/>
<path d="M57.2835 689.335L43.7202 671.556L44.7581 662.048L41.4496 661.621L31.1911 660.326L28.677 660L23 693.157L30.1601 694.665L32.464 685.528L34.7012 695.632L53.6754 699.649C54.585 699.841 55.5149 699.624 56.3294 699.028C57.1439 698.433 57.8005 697.491 58.2033 696.339C58.6062 695.187 58.7342 693.887 58.5687 692.627C58.4032 691.367 57.953 690.213 57.2835 689.335Z" fill="#2F2E41"/>
<path d="M158.376 275L186.01 350.005C186.01 350.005 195.714 500.09 200.892 505.708C206.07 511.325 210.758 516.363 206.07 516.318C201.382 516.272 195.707 528.31 195.707 528.31L186.01 642.106H161.557C161.557 642.106 144.351 574.999 148.018 536.73L119.05 396.882C119.05 396.882 98.2385 529.135 94.4878 533.093C90.7372 537.051 88.4747 537.023 92.4189 540.995C96.3631 544.967 92.4189 553.95 92.4189 553.95L51.3023 644L29 641.032C29 641.032 32.8664 567.518 46.3303 535.958V386.816C45.3161 399.604 92.7516 270.18 63.7442 279.894C72.9214 276.821 158.376 275 158.376 275Z" fill="#2F2E41"/>
<path d="M124.897 135.872L85.4605 127L77.6302 143.715L51.2614 159.906C51.2614 159.906 68.2586 233.61 68.1616 243.976C67.9154 270.294 28.2091 329.291 58.2006 324.752C88.1921 320.214 94.2842 301.203 103.912 304.209C143.634 316.61 190.842 315.296 174.778 298.259C158.714 281.222 162.304 167.814 162.304 167.814L131.189 152.22L124.897 135.872Z" fill="#8E24AA"/>
<path d="M49.703 423.744C51.2494 421.881 52.0153 419.482 51.8376 417.058C51.6599 414.634 50.5527 412.375 48.7515 410.763C48.3803 410.441 47.9834 410.151 47.5647 409.895L54 377.994L39.1231 369L34.9852 413.664C34.0697 415.499 33.7815 417.589 34.1657 419.607C34.5498 421.626 35.5847 423.459 37.1087 424.821C38.8749 426.369 41.1777 427.145 43.5103 426.978C45.8429 426.811 48.0143 425.715 49.5469 423.931C49.5997 423.869 49.6518 423.807 49.703 423.744Z" fill="#A0616A"/>
<path d="M42.2972 242.873L43.5642 180.679C43.6437 176.77 44.4636 172.916 45.9755 169.347C47.4874 165.777 49.6609 162.562 52.3677 159.892C55.0746 157.223 58.2602 155.152 61.7369 153.802C65.2135 152.452 68.911 151.85 72.6114 152.032C84.6501 152.625 81.4426 157.703 84.6404 169.97C89.8367 189.91 91.8353 201.436 90.5812 204.228C90.1567 205.173 89.7094 206.078 89.2791 206.95C87.0626 211.436 85.4613 214.679 89.531 217.784C91.1407 218.908 92.8938 219.784 94.7376 220.386C96.5743 221.075 97.9019 221.573 97.9951 222.669C98.0847 223.731 96.9502 224.831 93.8081 226.729C85.3715 231.826 78.0556 262.29 77.9841 262.591L53.5026 371L34 369.978L42.2972 242.873Z" fill="#8E24AA" fill-opacity="0.9"/>
<path d="M240.5 258L209 262.688L162 232.104C161.748 231.893 154.901 241.225 145.091 243.843C141.437 244.818 139.847 244.796 139.222 243.76C138.578 242.69 139.273 241.104 140.233 238.91C141.256 236.788 142.031 234.496 142.533 232.104C143.63 225.815 140.282 224.257 135.648 222.102C134.749 221.684 133.813 221.249 132.87 220.758C130.083 219.311 124.088 207.19 115.053 184.733C109.496 170.917 103.715 169.076 112.575 158.235C115.298 154.903 118.532 152.282 122.085 150.526C125.637 148.769 129.437 147.913 133.26 148.007C137.084 148.101 140.853 149.144 144.347 151.074C147.841 153.004 150.988 155.783 153.603 159.246L195.207 214.334L240.5 258Z" fill="#8E24AA" fill-opacity="0.9"/>
<path d="M108 127C126.225 127 141 111.554 141 92.5C141 73.4462 126.225 58 108 58C89.7746 58 75 73.4462 75 92.5C75 111.554 89.7746 127 108 127Z" fill="#A0616A"/>
<path d="M59.748 73.0356C54.787 54.0451 94.7996 37.7603 105.307 53.0535C106.768 50.8792 112.167 49.5586 114.645 50.2256C117.07 51.071 119.311 52.413 121.238 54.174C124.033 56.4283 126.93 58.7627 128.645 62.0041C130.373 65.2321 130.64 69.6341 128.315 72.4353C126.473 74.663 121.035 76.1036 118.266 76.6905C116.334 77.104 114.708 77.4375 113.311 77.6776C112.041 75.7574 111.457 73.4292 111.659 71.1014C110.718 71.7676 109.93 72.6441 109.35 73.6681C108.77 74.6921 108.413 75.8381 108.305 77.024C108.267 77.5175 123.919 137.984 123.919 137.984C122.038 139.108 120.06 140.041 118.011 140.772C113.958 134.268 110.854 127.164 108.801 119.696C108.329 124.69 108.388 129.723 108.978 134.703C109.292 137.495 109.742 140.269 110.325 143.013C91.7255 147.228 63.7499 145.841 51.5789 127.913L51.5727 127.69C51.5632 126.983 51.3197 126.301 50.8839 125.761C50.448 125.221 49.847 124.857 49.1837 124.731C48.5203 124.605 47.836 124.726 47.2479 125.071C46.6598 125.417 46.2045 125.967 45.9599 126.626C45.6646 127.417 45.3929 128.102 45.1503 128.647C41.6058 115.334 46.1922 99.9273 59.748 73.0356Z" fill="#2F2E41"/>
</svg>
