<svg width="905" height="700" viewBox="0 0 905 700" fill="none" xmlns="http://www.w3.org/2000/svg">
<path d="M642.246 525.867C586.461 525.867 525.84 517.532 465.627 501.503C391.165 481.681 322.891 451.761 268.187 414.979L269.807 412.543C324.248 449.147 392.219 478.93 466.373 498.669C533.385 516.508 600.899 524.774 661.592 522.593L661.697 525.521C655.288 525.753 648.804 525.868 642.246 525.867Z" fill="#F0F0F0"/>
<path d="M573.74 530.264C517.955 530.264 457.334 521.929 397.121 505.899C322.659 486.077 254.385 456.158 199.681 419.376L201.301 416.94C255.741 453.544 323.713 483.327 397.866 503.066C464.878 520.905 532.392 529.171 593.086 526.99L593.191 529.918C586.781 530.15 580.298 530.265 573.74 530.264Z" fill="#F0F0F0"/>
<path d="M275.784 367.198C269.794 367.205 264.052 369.601 259.816 373.86C255.581 378.118 253.198 383.893 253.192 389.916C244.602 453.51 241.733 517.754 244.62 581.867C244.792 585.96 244.982 589.704 245.203 593.317C245.523 599.283 245.93 605.58 246.412 612.038C246.689 615.849 246.98 619.67 247.3 623.479C247.835 629.682 248.423 635.985 249.049 642.213C249.442 646.017 249.849 649.84 250.286 653.648C251.123 661.126 252.071 668.792 253.185 677.084C253.174 683.122 255.548 688.918 259.786 693.197C264.024 697.476 269.779 699.887 275.784 699.9H654.756C660.745 699.893 666.488 697.497 670.724 693.239C674.959 688.98 677.341 683.205 677.348 677.182L677.365 677.025C679.053 669.292 680.626 661.411 682.039 653.6C682.795 649.482 683.448 645.742 684.034 642.167C685.097 635.658 686.043 629.357 686.843 623.441C687.39 619.47 687.886 615.624 688.314 612.005C689.02 606.084 689.658 599.964 690.265 593.294C690.597 589.669 690.902 585.924 691.197 581.848V581.847C695.831 517.586 691.172 452.989 677.365 390.073L677.348 389.916C677.341 383.893 674.959 378.118 670.724 373.859C666.488 369.601 660.745 367.205 654.756 367.198L275.784 367.198Z" fill="#3F3D56"/>
<path d="M479.983 464.453C397.869 464.453 310.858 456.951 196.98 441.941H196.968C191.064 441.932 185.371 439.733 180.981 435.765C176.59 431.797 173.81 426.339 173.175 420.437C173.071 419.549 173.021 418.657 173.024 417.763V348.878C173.022 348.73 173.029 348.583 173.044 348.437C173.173 342.108 175.758 336.08 180.249 331.643C184.74 327.206 190.779 324.712 197.075 324.695C395.198 297.607 515.551 297.61 733.555 324.7H733.565C739.857 324.742 745.883 327.256 750.356 331.707C754.829 336.157 757.393 342.189 757.501 348.516C757.514 348.636 757.518 348.757 757.515 348.878V417.763C757.519 418.659 757.468 419.554 757.364 420.444C756.719 426.361 753.922 431.829 749.511 435.798C745.099 439.768 739.385 441.957 733.465 441.946C639.277 456.949 562.077 464.453 479.983 464.453Z" fill="#8E24AA"/>
<path d="M493.155 512.297H443.333C436.992 512.29 430.912 509.754 426.428 505.245C421.944 500.736 419.422 494.623 419.415 488.247V306.241C419.422 299.865 421.944 293.752 426.428 289.243C430.912 284.734 436.992 282.198 443.333 282.191H493.155C499.496 282.198 505.575 284.734 510.059 289.243C514.543 293.751 517.066 299.865 517.073 306.241V488.247C517.066 494.624 514.543 500.737 510.059 505.245C505.575 509.754 499.496 512.29 493.155 512.297Z" fill="#3F3D56"/>
<path d="M606.268 247.364C605.907 243.952 605.272 240.575 604.368 237.266C603.393 233.95 602.158 230.718 600.675 227.599C595.361 216.13 586.396 206.77 575.199 200.999C561.302 194.12 545.405 193.557 530.463 196.871C517.903 199.7 506.108 205.253 495.903 213.141C490.613 217.149 485.779 221.734 481.49 226.81C477.063 232.152 468.827 246.827 468.233 248.185C463.577 237.556 456.896 227.945 448.567 219.897C438.885 210.657 427.329 203.634 414.692 199.311C407.973 197.035 400.998 195.61 393.929 195.068C386.449 194.442 378.917 195.103 371.658 197.022C358.618 200.694 347.338 208.985 339.901 220.364C332.814 230.94 329.333 243.544 329.983 256.281C330.341 262.711 331.72 269.042 334.068 275.035C335.326 278.279 336.818 281.426 338.532 284.451C340.305 287.439 342.288 290.296 344.466 293.001C353.011 303.545 364.521 311.252 377.491 315.114C391.338 319.417 406.026 319.557 420.265 317.537C434.887 315.462 448.961 310.703 462.733 305.49C464.57 304.795 466.4 304.08 468.232 303.371C480.475 308.107 492.822 312.675 505.637 315.574C520.055 319.075 535.019 319.678 549.669 317.349C563.325 315.095 576.021 308.859 586.183 299.415C595.585 290.517 602.166 279.027 605.1 266.384C606.547 260.155 606.942 253.725 606.268 247.364ZM416.462 303.378C408.559 304.396 400.563 304.443 392.649 303.518C386.976 302.691 381.419 301.204 376.089 299.086C363.525 293.825 353.509 283.826 348.187 271.23C346.596 267.259 345.463 263.118 344.81 258.888C344.392 255.125 344.39 251.326 344.807 247.562C345.427 243.602 346.489 239.726 347.973 236.005C349.579 232.387 351.572 228.955 353.918 225.772C356.193 222.923 358.763 220.327 361.586 218.027C364.262 216.037 367.142 214.34 370.176 212.966C373.798 211.543 377.566 210.53 381.41 209.944C386.618 209.364 391.875 209.406 397.073 210.067C403.258 211.027 409.312 212.705 415.113 215.067C421.283 217.76 427.114 221.178 432.484 225.251C437.452 229.209 441.956 233.724 445.908 238.708C449.82 243.941 453.101 249.622 455.682 255.633C458.19 261.903 459.952 268.45 460.93 275.137L460.942 275.235C460.56 278.594 460.368 281.973 460.369 285.355C460.372 286.658 460.428 287.959 460.494 289.259C459.878 289.855 459.365 290.549 458.975 291.314C448.822 295.319 438.415 298.638 427.822 301.249C424.067 302.12 420.28 302.83 416.462 303.378ZM591.686 258.888C591.033 263.119 589.9 267.26 588.309 271.231C583.012 283.844 572.988 293.851 560.407 299.086C555.077 301.204 549.519 302.691 543.847 303.518C535.919 304.445 527.907 304.396 519.99 303.373C505.928 301.351 492.363 296.888 479.093 291.906C478.547 291.701 478.005 291.485 477.459 291.278C477.089 290.525 476.598 289.838 476.006 289.246C476.24 284.526 476.095 279.796 475.571 275.1C476.551 268.426 478.311 261.892 480.814 255.633C483.395 249.622 486.675 243.941 490.588 238.709C494.539 233.725 499.043 229.209 504.012 225.251C509.382 221.178 515.213 217.76 521.383 215.067C527.184 212.705 533.238 211.027 539.423 210.067C544.621 209.406 549.878 209.364 555.085 209.944C558.93 210.53 562.698 211.543 566.32 212.966C569.354 214.34 572.234 216.037 574.91 218.027C577.733 220.327 580.304 222.924 582.578 225.772C584.924 228.956 586.917 232.387 588.523 236.005C590.007 239.726 591.069 243.602 591.689 247.562C592.105 251.326 592.104 255.124 591.686 258.888Z" fill="#3F3D56"/>
<path d="M316.597 520.358C321.427 520.358 325.342 516.421 325.342 511.564C325.342 506.708 321.427 502.771 316.597 502.771C311.767 502.771 307.851 506.708 307.851 511.564C307.851 516.421 311.767 520.358 316.597 520.358Z" fill="#886AD6"/>
<path d="M379.272 498.374C384.102 498.374 388.018 494.436 388.018 489.58C388.018 484.723 384.102 480.786 379.272 480.786C374.442 480.786 370.527 484.723 370.527 489.58C370.527 494.436 374.442 498.374 379.272 498.374Z" fill="#886AD6"/>
<path d="M351.579 567.259C356.409 567.259 360.324 563.322 360.324 558.465C360.324 553.608 356.409 549.671 351.579 549.671C346.749 549.671 342.833 553.608 342.833 558.465C342.833 563.322 346.749 567.259 351.579 567.259Z" fill="#886AD6"/>
<path d="M611.028 520.358C615.858 520.358 619.774 516.421 619.774 511.564C619.774 506.708 615.858 502.771 611.028 502.771C606.198 502.771 602.283 506.708 602.283 511.564C602.283 516.421 606.198 520.358 611.028 520.358Z" fill="#886AD6"/>
<path d="M548.352 498.374C553.182 498.374 557.097 494.436 557.097 489.58C557.097 484.723 553.182 480.786 548.352 480.786C543.522 480.786 539.606 484.723 539.606 489.58C539.606 494.436 543.522 498.374 548.352 498.374Z" fill="#886AD6"/>
<path d="M576.046 567.259C580.876 567.259 584.792 563.322 584.792 558.465C584.792 553.608 580.876 549.671 576.046 549.671C571.216 549.671 567.301 553.608 567.301 558.465C567.301 563.322 571.216 567.259 576.046 567.259Z" fill="#886AD6"/>
<path d="M618.316 674.251C623.146 674.251 627.062 670.314 627.062 665.457C627.062 660.6 623.146 656.663 618.316 656.663C613.486 656.663 609.571 660.6 609.571 665.457C609.571 670.314 613.486 674.251 618.316 674.251Z" fill="#886AD6"/>
<path d="M640.18 611.228C645.01 611.228 648.926 607.291 648.926 602.434C648.926 597.578 645.01 593.641 640.18 593.641C635.35 593.641 631.435 597.578 631.435 602.434C631.435 607.291 635.35 611.228 640.18 611.228Z" fill="#886AD6"/>
<path d="M571.673 639.076C576.503 639.076 580.419 635.138 580.419 630.282C580.419 625.425 576.503 621.488 571.673 621.488C566.843 621.488 562.928 625.425 562.928 630.282C562.928 635.138 566.843 639.076 571.673 639.076Z" fill="#886AD6"/>
<path d="M367.612 674.251C372.442 674.251 376.357 670.314 376.357 665.457C376.357 660.6 372.442 656.663 367.612 656.663C362.782 656.663 358.866 660.6 358.866 665.457C358.866 670.314 362.782 674.251 367.612 674.251Z" fill="#886AD6"/>
<path d="M389.475 611.228C394.305 611.228 398.221 607.291 398.221 602.434C398.221 597.578 394.305 593.641 389.475 593.641C384.645 593.641 380.73 597.578 380.73 602.434C380.73 607.291 384.645 611.228 389.475 611.228Z" fill="#886AD6"/>
<path d="M320.969 639.076C325.799 639.076 329.715 635.138 329.715 630.282C329.715 625.425 325.799 621.488 320.969 621.488C316.139 621.488 312.224 625.425 312.224 630.282C312.224 635.138 316.139 639.076 320.969 639.076Z" fill="#886AD6"/>
<path d="M281.946 385.865C280.938 387.468 278.494 387.235 277.121 386.233C275.216 384.842 275.833 382.162 277.145 380.578C281.314 375.545 288.211 380.859 289.141 385.857C289.487 388.294 289.113 390.78 288.067 393.006C287.021 395.232 285.349 397.1 283.256 398.379C278.499 401.213 272.32 399.792 268.23 396.399C259.697 389.322 262.02 375.152 271.498 370.031C277.546 366.764 285.192 368.198 291.15 370.935C297.857 374.016 303.624 378.739 309.827 382.676C323.436 391.242 338.83 396.527 354.807 398.12C357.604 398.407 357.584 394.008 354.807 393.723C345.953 392.803 337.262 390.698 328.962 387.465C320.749 384.118 312.955 379.817 305.737 374.648C298.435 369.614 290.805 364.725 281.767 363.893C278.12 363.465 274.426 364.015 271.059 365.488C267.692 366.961 264.773 369.305 262.598 372.28C260.664 374.943 259.37 378.019 258.816 381.269C258.263 384.519 258.465 387.853 259.407 391.011C260.543 394.313 262.528 397.254 265.162 399.533C267.795 401.813 270.982 403.351 274.398 403.989C277.687 404.614 281.088 404.191 284.126 402.78C287.165 401.368 289.689 399.038 291.348 396.115C294.674 390.33 294.566 382.56 289.542 377.763C288.101 376.291 286.298 375.23 284.317 374.688C282.335 374.146 280.246 374.143 278.263 374.679C276.436 375.299 274.828 376.442 273.636 377.967C272.445 379.492 271.721 381.333 271.553 383.265C271.069 390.774 281.669 394.53 285.721 388.084C287.229 385.686 283.447 383.477 281.946 385.865Z" fill="#3F3D56"/>
<path d="M655.882 385.865C656.89 387.468 659.334 387.235 660.707 386.233C662.612 384.842 661.995 382.161 660.683 380.578C656.514 375.545 649.617 380.859 648.687 385.857C648.341 388.294 648.715 390.78 649.761 393.006C650.807 395.232 652.48 397.1 654.572 398.378C659.329 401.213 665.508 399.792 669.599 396.399C678.131 389.322 675.808 375.152 666.331 370.031C660.282 366.764 652.636 368.198 646.678 370.935C639.971 374.016 634.204 378.739 628.001 382.676C614.392 391.242 598.998 396.527 583.021 398.12C580.224 398.407 580.244 394.008 583.021 393.723C591.875 392.803 600.567 390.698 608.867 387.465C617.079 384.118 624.873 379.817 632.091 374.648C639.394 369.614 647.023 364.725 656.061 363.893C659.708 363.465 663.403 364.015 666.77 365.488C670.136 366.961 673.055 369.305 675.23 372.28C677.164 374.943 678.458 378.019 679.012 381.269C679.566 384.518 679.363 387.853 678.421 391.011C677.285 394.313 675.3 397.254 672.666 399.533C670.033 401.813 666.846 403.351 663.43 403.989C660.141 404.614 656.74 404.191 653.702 402.78C650.664 401.368 648.139 399.038 646.48 396.115C643.154 390.33 643.262 382.559 648.287 377.763C649.727 376.291 651.53 375.23 653.511 374.688C655.493 374.146 657.582 374.143 659.565 374.679C661.393 375.299 663 376.442 664.192 377.967C665.384 379.492 666.107 381.333 666.275 383.265C666.76 390.774 656.159 394.53 652.107 388.084C650.599 385.686 654.381 383.477 655.882 385.865Z" fill="#3F3D56"/>
</svg>
