<svg width="650" height="700" viewBox="0 0 650 700" fill="none" xmlns="http://www.w3.org/2000/svg">
<path d="M343.821 202.678C343.292 197.552 341.574 192.608 338.795 188.22C336.016 183.832 332.249 180.113 327.776 177.343C323.304 174.574 318.243 172.825 312.974 172.229C307.705 171.633 302.366 172.205 297.358 173.902L299.901 174.155C288.496 176.37 278.36 182.659 271.496 191.778C268.143 196.337 265.839 201.543 264.739 207.042C263.639 212.542 263.769 218.207 265.12 223.653C268.002 234.469 276.51 243.854 287.401 247.454C293.456 249.456 299.957 249.701 306.351 249.912C310.501 250.049 314.727 250.171 318.728 249.091C323.875 247.543 328.399 244.48 331.676 240.325C334.921 236.186 337.503 231.594 339.335 226.705C342.436 219.059 344.663 210.855 343.821 202.678Z" fill="#2F2E41"/>
<path d="M227.41 426.69C226.304 425.214 225.553 423.528 225.211 421.748C224.869 419.969 224.943 418.14 225.429 416.391C225.915 414.641 226.801 413.014 228.024 411.623C229.246 410.233 230.777 409.113 232.507 408.342L268.755 301L294 313.403L250.431 415.016C251.607 417.851 251.644 420.995 250.533 423.853C249.422 426.711 247.241 429.085 244.403 430.524C241.565 431.963 238.268 432.367 235.136 431.661C232.004 430.954 229.255 429.185 227.41 426.69Z" fill="#FFB6B6"/>
<path d="M254.509 338.633C254.169 337.897 253.995 337.098 254 336.291C254.005 335.484 254.188 334.687 254.536 333.955L274.385 280.432C275.586 276.472 270.672 301.098 274.385 299.123C278.098 297.147 282.462 296.69 286.519 297.851C290.577 299.013 293.997 301.698 296.031 305.319C298.065 308.94 298.546 313.2 297.368 317.167L293.299 345.172C293.183 345.971 292.892 346.737 292.445 347.416C291.999 348.096 291.408 348.673 290.712 349.109C290.017 349.545 289.233 349.83 288.415 349.944C287.597 350.058 286.763 349.998 285.971 349.769L258.118 341.709C257.326 341.48 256.593 341.086 255.97 340.556C255.347 340.025 254.849 339.369 254.509 338.633Z" fill="#8E24AA"/>
<path d="M361.831 320C353.273 341.366 355.46 363.777 366 387H291.333C294.334 370.477 293.117 355.121 282 342.506L361.831 320Z" fill="#FFB6B6"/>
<path d="M274.313 280.228L296.265 264.703L332.186 255L362.12 260.822L363.879 276.907C366.02 296.473 365.09 316.241 361.122 335.535L283.293 353L275.311 339.416C275.311 339.416 257.35 321.951 271.319 302.545L274.313 280.228Z" fill="#8E24AA"/>
<path d="M466.552 172.394C467.047 174.162 467.133 176.012 466.804 177.814C466.474 179.617 465.737 181.329 464.645 182.828C463.553 184.327 462.132 185.579 460.482 186.493C458.832 187.408 456.993 187.964 455.095 188.122L382.062 278L363 257.856L440.783 175.842C440.719 172.762 441.832 169.765 443.913 167.42C445.994 165.075 448.897 163.545 452.074 163.12C455.25 162.695 458.478 163.405 461.147 165.114C463.815 166.823 465.738 169.413 466.552 172.394Z" fill="#FFB6B6"/>
<path d="M397.985 267.331C398.045 268.14 397.922 268.953 397.625 269.713C397.329 270.472 396.865 271.162 396.266 271.733L375.358 291.703C372.776 295.029 368.927 297.235 364.657 297.835C360.387 298.436 356.044 297.382 352.58 294.906C349.116 292.43 346.814 288.733 346.178 284.625C345.542 280.518 346.625 276.336 349.188 272.995L363.221 247.966C363.621 247.252 364.177 246.629 364.85 246.14C365.524 245.651 366.298 245.307 367.122 245.133C367.946 244.958 368.799 244.956 369.623 245.127C370.448 245.298 371.224 245.638 371.9 246.124L395.644 263.202C396.32 263.687 396.879 264.307 397.283 265.02C397.687 265.733 397.927 266.521 397.985 267.331Z" fill="#8E24AA"/>
<path d="M274.002 680H285.52L291 637H274L274.002 680Z" fill="#FFB6B6"/>
<path d="M270.243 674.025L288.032 673V680.355L304.944 691.626C305.78 692.182 306.409 692.982 306.74 693.908C307.071 694.834 307.086 695.838 306.784 696.773C306.482 697.708 305.878 698.526 305.06 699.106C304.243 699.687 303.254 700 302.239 700H281.061L277.41 692.725L275.985 700H268L270.243 674.025Z" fill="#2F2E41"/>
<path d="M355.002 680H366.52L372 637H355L355.002 680Z" fill="#FFB6B6"/>
<path d="M351.301 674.025L369.546 673V680.355L386.891 691.626C387.748 692.182 388.394 692.982 388.733 693.908C389.073 694.834 389.089 695.838 388.779 696.773C388.469 697.708 387.849 698.526 387.011 699.106C386.172 699.687 385.158 700 384.117 700H362.396L358.652 692.725L357.19 700H349L351.301 674.025Z" fill="#2F2E41"/>
<path d="M386 442.532V464.104L383.794 490.458C383.794 490.458 383.097 513.472 382.254 531.625C381.744 542.659 381.172 551.895 380.672 553.088C380.059 554.549 380.204 558.535 380.558 562.721C380.974 567.562 381.661 572.672 381.775 574.382C381.994 577.573 380.225 591.282 380.225 591.282C380.225 591.282 378.248 625.658 375.376 628.402C372.504 631.146 375.376 638.949 375.376 638.949C361.912 648.433 344.91 636.842 344.91 636.842C348.667 631.126 342.704 592.107 342.704 592.107C342.704 592.107 341.83 578.786 340.062 575.207C338.293 571.628 337.845 549.27 337.845 549.27V516.156C337.845 516.156 333.205 509.376 332.549 506.215C331.894 503.054 332.549 491.88 332.549 491.88L327.7 476.272L324.381 488.5C324.381 488.5 315.787 522.668 314.236 526.883C312.686 531.098 315.111 535.323 315.111 535.323C315.111 535.323 317.327 541.824 315.111 544.807C313.734 546.675 312.68 548.743 311.989 550.93C311.989 550.93 310.855 563.377 308.868 567.83C306.88 572.284 305.122 577.772 305.122 577.772C305.122 577.772 305.59 586.182 303.603 588.081C301.615 589.979 300.96 599.473 300.96 599.473C300.96 599.473 301.397 610.219 298.743 614.017C296.09 617.814 296.09 639.327 296.09 639.327C291.489 642.148 286.186 643.752 280.724 643.973C275.261 644.195 269.835 643.028 265 640.59C265 640.59 267.622 638.244 265.635 627.308C263.648 616.373 267.06 586.599 267.06 586.599C267.06 586.599 266.623 579.044 268.829 575.664C271.035 572.284 267.716 565.753 268.6 562.8C269.485 559.848 272.138 543.813 272.138 543.813C272.138 543.813 271.035 504.376 271.035 502.268C270.774 498.517 269.711 494.856 267.913 491.512C265.926 488.142 267.913 463.677 267.913 463.677C267.913 463.677 272.595 451.032 271.035 448.288C269.474 445.544 272.075 440.693 272.075 440.693C272.075 440.693 269.651 434.997 272.075 433.943C274.5 432.889 274.947 428.674 274.947 428.674L276.632 408.215C276.632 408.215 277.268 398.93 279.286 398.513C281.305 398.095 280.42 394.516 282.408 391.981C283.376 390.268 284.044 388.414 284.384 386.494C284.665 385.321 284.925 384.098 285.144 382.925C285.768 379.744 286.154 377 286.154 377C299.181 387.339 367.676 380.092 367.75 380.092C372.099 380.996 377.27 395.421 381.005 407.997C384.326 419.234 386.007 430.855 386 442.532Z" fill="#2F2E41"/>
<path d="M335.859 228.133C340.854 212.436 331.584 195.843 315.154 191.071C298.724 186.299 281.356 195.156 276.362 210.853C271.367 226.55 280.637 243.143 297.067 247.915C313.497 252.686 330.865 243.83 335.859 228.133Z" fill="#FFB6B6"/>
<path d="M271.687 225L283.67 222.612L285.877 207.379L290.014 221.347L295.741 220.206L297.029 211.32L299.442 219.468L342 210.986C341.124 206.952 339.426 203.123 337.005 199.717C334.583 196.311 331.485 193.395 327.887 191.136C324.289 188.877 320.262 187.319 316.035 186.55C311.809 185.782 307.466 185.819 303.254 186.658L297.086 187.887C288.58 189.583 281.125 194.445 276.362 201.405C271.599 208.365 269.917 216.852 271.687 225Z" fill="#2F2E41"/>
<path d="M398.648 30.291L398.578 30.4176C384.836 24.3839 369.185 23.6195 354.868 28.2828C340.55 32.946 328.664 42.6796 321.671 55.4668C314.678 68.2541 313.114 83.1151 317.304 96.971C321.494 110.827 331.116 122.616 344.177 129.895L344.108 130.022L448.754 182L503.294 82.2692C506.884 75.72 509.084 68.5607 509.769 61.2006C510.454 53.8404 509.611 46.4238 507.286 39.3745C504.962 32.3253 501.203 25.7818 496.224 20.118C491.244 14.4542 485.142 9.78124 478.267 6.36618C471.392 2.95112 463.877 0.860953 456.154 0.215172C448.43 -0.43061 440.649 0.380651 433.255 2.60258C425.86 4.82451 418.998 8.41355 413.06 13.1645C407.122 17.9155 402.224 23.7352 398.648 30.291Z" fill="#8E24AA"/>
<path d="M379.519 46.5478C370.349 40.1426 358.121 42.2225 350.165 49.0959C341.238 56.8092 338.984 70.021 341.372 81.6676C344.059 94.7755 352.391 105.651 362.132 114.18C372.465 123.007 383.931 130.254 396.167 135.693C408.4 141.281 421.239 145.174 434.347 147.271C435.96 147.528 437.576 147.758 439.195 147.959C439.555 147.987 439.906 147.869 440.175 147.629C440.445 147.39 440.611 147.047 440.639 146.675C440.667 146.302 440.554 145.928 440.325 145.631C440.096 145.335 439.769 145.139 439.411 145.085C414.407 141.976 390.393 132.204 369.699 116.717C359.832 109.262 350.552 99.8678 346.017 87.8785C342.013 77.2904 341.868 64.2382 348.506 55.0981C354.96 46.2131 368.384 42.1968 377.967 48.8904C379.471 49.941 381.027 47.6011 379.519 46.5478Z" fill="white"/>
<path d="M297.229 176.126C300.134 164.943 294.507 152.949 285.796 145.044C277.084 137.139 265.716 132.595 254.465 128.662C245.493 125.525 234.983 122.796 226.862 127.628C220.337 131.51 217.507 139.051 213.776 145.505C206.668 157.804 195.2 167.228 181.469 172.053C167.739 176.878 152.663 176.782 139 171.782C143.816 185.245 160.404 191.831 175.161 190.916C189.917 190.002 203.546 183.458 217.292 178.21C231.038 172.962 246.329 168.908 260.457 173.11C266.42 174.884 271.843 178.05 277.747 179.998C283.651 181.946 290.561 182.526 295.822 179.294" fill="#2F2E41"/>
</svg>
