<svg width="715" height="772" viewBox="0 0 715 772" fill="none" xmlns="http://www.w3.org/2000/svg">
<g clip-path="url(#clip0_158_171)">
<path d="M309.388 247.69C308.852 242.333 307.109 237.166 304.289 232.58C301.469 227.994 297.647 224.107 293.109 221.212C288.571 218.317 283.436 216.489 278.091 215.866C272.745 215.243 267.328 215.841 262.246 217.616L264.827 217.879C253.255 220.195 242.972 226.767 236.008 236.299C232.606 241.063 230.268 246.504 229.151 252.252C228.035 258 228.167 263.92 229.538 269.613C232.462 280.918 241.095 290.726 252.144 294.489C258.288 296.581 264.883 296.837 271.371 297.057C275.581 297.201 279.87 297.329 283.929 296.2C289.151 294.581 293.741 291.38 297.066 287.038C300.358 282.712 302.978 277.913 304.836 272.803C307.982 264.811 310.242 256.237 309.388 247.69Z" fill="#2F2E41"/>
<path d="M192.534 483.097C191.431 481.539 190.682 479.759 190.34 477.88C189.999 476.002 190.073 474.072 190.558 472.225C191.043 470.379 191.926 468.661 193.146 467.194C194.366 465.726 195.893 464.544 197.62 463.73L233.787 350.431L258.976 363.522L215.504 470.775C216.678 473.767 216.714 477.086 215.605 480.102C214.497 483.119 212.321 485.624 209.489 487.143C206.658 488.662 203.368 489.089 200.243 488.343C197.118 487.597 194.375 485.73 192.534 483.097Z" fill="#FFB6B6"/>
<path d="M222.082 366.099C221.736 365.332 221.559 364.499 221.564 363.658C221.569 362.816 221.755 361.986 222.11 361.223L234.498 334.577C235.72 330.45 238.528 326.976 242.306 324.917C246.084 322.858 250.524 322.381 254.653 323.592C258.782 324.803 262.262 327.602 264.332 331.376C266.401 335.15 266.89 339.59 265.692 343.725L261.552 372.915C261.433 373.748 261.137 374.545 260.683 375.254C260.229 375.962 259.627 376.564 258.92 377.018C258.212 377.473 257.415 377.77 256.582 377.888C255.75 378.007 254.901 377.945 254.095 377.706L225.754 369.305C224.948 369.066 224.202 368.656 223.568 368.103C222.935 367.549 222.428 366.866 222.082 366.099Z" fill="#2F2E41"/>
<path d="M326.569 370.595C317.962 393.145 320.161 416.797 330.762 441.306H255.665C258.684 423.868 257.459 407.662 246.278 394.348L326.569 370.595Z" fill="#FFB6B6"/>
<path d="M238.679 329.156L260.904 312.985L297.273 302.878L327.58 308.942L329.361 325.697C331.528 346.078 330.587 366.669 326.569 386.767L247.771 404.959L239.689 390.81C239.689 390.81 221.505 372.617 235.648 352.403L238.679 329.156Z" fill="#2F2E41"/>
<path d="M431.715 216.043C432.211 217.887 432.297 219.816 431.967 221.697C431.637 223.577 430.899 225.362 429.805 226.926C428.71 228.49 427.287 229.795 425.634 230.749C423.981 231.703 422.139 232.283 420.238 232.448L347.076 326.193L327.98 305.182L405.901 219.64C405.836 216.426 406.951 213.301 409.036 210.855C411.12 208.409 414.029 206.814 417.211 206.37C420.393 205.927 423.627 206.667 426.3 208.45C428.973 210.232 430.9 212.934 431.715 216.043Z" fill="#FFB6B6"/>
<path d="M363.482 315.553C363.541 316.393 363.419 317.235 363.123 318.022C362.827 318.81 362.365 319.525 361.768 320.117L340.92 340.819C338.344 344.268 334.507 346.554 330.25 347.176C325.992 347.799 321.661 346.707 318.207 344.14C314.753 341.572 312.457 337.74 311.823 333.482C311.189 329.224 312.269 324.888 314.825 321.426L328.817 295.478C329.217 294.738 329.771 294.092 330.442 293.585C331.113 293.079 331.886 292.722 332.707 292.541C333.529 292.36 334.379 292.358 335.201 292.535C336.024 292.713 336.798 293.065 337.471 293.569L361.147 311.273C361.821 311.776 362.379 312.419 362.782 313.158C363.185 313.897 363.423 314.714 363.482 315.553Z" fill="#2F2E41"/>
<path d="M238.777 748.023H250.285L255.76 703.614H238.775L238.777 748.023Z" fill="#FFB6B6"/>
<path d="M234.88 742.344L253.072 741.257V749.055L270.367 761.005C271.221 761.596 271.865 762.443 272.203 763.425C272.542 764.407 272.558 765.472 272.249 766.463C271.94 767.455 271.322 768.321 270.486 768.937C269.65 769.552 268.639 769.884 267.601 769.884H245.943L242.21 762.171L240.752 769.884H232.586L234.88 742.344Z" fill="#2F2E41"/>
<path d="M320.132 748.023H331.64L337.115 703.614H320.13L320.132 748.023Z" fill="#FFB6B6"/>
<path d="M316.235 742.344L334.427 741.257V749.055L351.722 761.005C352.576 761.596 353.22 762.443 353.558 763.425C353.897 764.407 353.913 765.472 353.604 766.463C353.295 767.455 352.677 768.321 351.841 768.937C351.005 769.552 349.994 769.884 348.956 769.884H327.298L323.565 762.171L322.107 769.884H313.941L316.235 742.344Z" fill="#2F2E41"/>
<path d="M350.704 499.21V521.854L348.493 549.517C348.493 549.517 347.794 573.674 346.949 592.729C346.439 604.312 345.865 614.006 345.364 615.258C344.749 616.792 344.895 620.976 345.249 625.37C345.667 630.451 346.355 635.815 346.47 637.61C346.689 640.96 344.915 655.349 344.915 655.349C344.915 655.349 342.934 691.434 340.055 694.314C337.176 697.194 340.055 705.386 340.055 705.386C326.559 715.341 309.516 703.173 309.516 703.173C313.281 697.173 307.304 656.216 307.304 656.216C307.304 656.216 306.428 642.233 304.656 638.476C302.882 634.719 302.434 611.251 302.434 611.251V576.492C302.434 576.492 297.782 569.375 297.125 566.057C296.468 562.738 297.125 551.009 297.125 551.009L292.264 534.626L288.937 547.462C288.937 547.462 280.322 583.327 278.768 587.751C277.214 592.176 279.644 596.611 279.644 596.611C279.644 596.611 281.866 603.435 279.644 606.566C278.264 608.527 277.207 610.697 276.515 612.994C276.515 612.994 275.378 626.058 273.386 630.733C271.394 635.408 269.631 641.168 269.631 641.168C269.631 641.168 270.1 649.996 268.108 651.989C266.116 653.983 265.459 663.948 265.459 663.948C265.459 663.948 265.897 675.228 263.237 679.214C260.578 683.201 260.578 705.782 260.578 705.782C255.965 708.743 250.65 710.426 245.174 710.659C239.699 710.892 234.26 709.666 229.413 707.107C229.413 707.107 232.041 704.645 230.049 693.166C228.057 681.688 231.478 650.435 231.478 650.435C231.478 650.435 231.04 642.504 233.251 638.956C235.462 635.408 232.135 628.552 233.021 625.453C233.908 622.354 236.568 605.522 236.568 605.522C236.568 605.522 235.462 564.126 235.462 561.914C235.2 557.976 234.135 554.134 232.333 550.623C230.341 547.086 232.333 521.405 232.333 521.405C232.333 521.405 237.026 508.132 235.462 505.252C233.897 502.372 236.505 497.279 236.505 497.279C236.505 497.279 234.075 491.3 236.505 490.194C238.935 489.088 239.384 484.663 239.384 484.663L241.073 463.188C241.073 463.188 241.71 453.442 243.733 453.004C245.757 452.565 244.87 448.809 246.862 446.148C247.833 444.349 248.502 442.403 248.844 440.388C249.125 439.156 249.386 437.873 249.605 436.641C250.231 433.302 250.617 430.422 250.617 430.422C263.676 441.275 332.337 433.667 332.41 433.667C336.769 434.617 341.953 449.758 345.698 462.959C349.026 474.754 350.711 486.953 350.704 499.21Z" fill="#2F2E41"/>
<path d="M300.762 274.383C305.767 257.912 296.478 240.501 280.015 235.494C263.551 230.487 246.148 239.78 241.143 256.251C236.139 272.722 245.428 290.134 261.891 295.141C278.354 300.148 295.758 290.855 300.762 274.383Z" fill="#FFB6B6"/>
<path d="M235.737 270.75L247.801 268.238L250.023 252.22L254.188 266.909L259.954 265.708L261.25 256.364L263.68 264.933L306.527 256.013C305.644 251.771 303.936 247.744 301.498 244.162C299.06 240.58 295.94 237.514 292.318 235.139C288.696 232.763 284.641 231.124 280.386 230.316C276.131 229.508 271.758 229.547 267.518 230.43L261.308 231.722C252.744 233.505 245.239 238.619 240.443 245.938C235.648 253.257 233.955 262.182 235.737 270.75Z" fill="#2F2E41"/>
<path d="M359.162 36.3652L359.083 36.5174C343.348 29.2649 325.428 28.3461 309.035 33.9513C292.641 39.5565 279.031 51.2561 271.024 66.6263C263.018 81.9965 261.227 99.8592 266.025 116.514C270.822 133.169 281.839 147.339 296.794 156.089L296.715 156.241L416.533 218.718L478.981 98.8424C483.092 90.9704 485.611 82.365 486.396 73.5182C487.18 64.6714 486.214 55.7566 483.553 47.2835C480.892 38.8105 476.587 30.9452 470.886 24.1374C465.185 17.3295 458.198 11.7126 450.326 7.60778C442.454 3.50291 433.85 0.990546 425.006 0.214323C416.163 -0.5619 407.253 0.413228 398.787 3.08397C390.32 5.75471 382.463 10.0687 375.664 15.7793C368.865 21.4899 363.258 28.4852 359.162 36.3652Z" fill="#8E24AA"/>
<path d="M64.1798 340.077V340.249C46.8761 341.093 30.5602 348.565 18.6122 361.116C6.66429 373.667 -8.04436e-06 390.335 0 407.667C8.04438e-06 425 6.66434 441.668 18.6123 454.219C30.5603 466.769 46.8762 474.241 64.1798 475.085V475.257L199.296 475.257L199.296 340.077C199.304 331.196 197.563 322.4 194.172 314.192C190.78 305.984 185.805 298.525 179.531 292.242C173.257 285.959 165.807 280.974 157.606 277.573C149.405 274.173 140.615 272.422 131.738 272.422C122.86 272.422 114.07 274.173 105.869 277.573C97.6686 280.974 90.2182 285.959 83.944 292.242C77.6698 298.525 72.6949 305.984 69.3036 314.192C65.9123 322.4 64.1712 331.196 64.1798 340.077Z" fill="#8E24AA"/>
<path d="M344.768 61.1724C335.865 52.7172 321.807 52.7393 311.526 58.6253C299.988 65.2306 294.757 78.8796 295.021 91.695C295.319 106.118 302.368 119.178 311.469 129.995C321.169 141.234 332.457 150.996 344.977 158.972C357.461 167.106 370.97 173.547 385.148 178.125C386.894 178.688 388.648 179.221 390.411 179.725C390.806 179.82 391.222 179.757 391.571 179.55C391.92 179.344 392.176 179.009 392.284 178.618C392.392 178.226 392.343 177.808 392.149 177.452C391.955 177.095 391.63 176.828 391.243 176.707C364.014 168.922 339.259 154.228 319.38 134.049C309.917 124.352 301.507 112.698 298.921 99.1332C296.637 87.1541 299.161 73.2452 308.441 64.7124C317.463 56.4178 333.252 54.5501 342.555 63.386C344.015 64.7728 346.232 62.5628 344.768 61.1724Z" fill="white"/>
<path d="M61.8665 373.007C49.8409 371.511 38.5472 379.973 33.8634 390.662C28.6109 402.648 32.1522 416.465 39.771 426.595C48.1618 437.752 60.8714 444.256 74.1569 447.708C88.418 451.414 103.557 452.414 118.237 451.73C135.591 450.925 152.716 447.442 169.007 441.405C170.878 440.709 170.069 437.683 168.175 438.386C141.056 448.46 110.866 451.638 82.3487 446.32C69.6015 443.942 56.6191 439.407 47.1199 430.231C38.5128 421.917 32.4237 409.325 35.0141 397.166C37.588 385.083 49.0704 374.546 61.8665 376.138C63.8598 376.386 63.8418 373.253 61.8665 373.007Z" fill="white"/>
<path d="M261.935 219.664C264.844 208.032 259.21 195.554 250.488 187.331C241.765 179.107 230.382 174.381 219.116 170.289C210.132 167.026 199.609 164.187 191.478 169.213C184.944 173.252 182.11 181.097 178.374 187.811C171.257 200.605 159.774 210.408 146.025 215.427C132.277 220.446 117.182 220.346 103.501 215.146C108.323 229.151 124.933 236.002 139.709 235.05C154.484 234.099 168.131 227.291 181.895 221.832C195.659 216.373 210.969 212.156 225.116 216.527C231.087 218.373 236.517 221.666 242.429 223.692C248.34 225.719 255.259 226.322 260.527 222.96" fill="#2F2E41"/>
</g>
<defs>
<clipPath id="clip0_158_171">
<rect width="715" height="772" fill="white"/>
</clipPath>
</defs>
</svg>
