<svg width="826" height="770" viewBox="0 0 826 770" fill="none" xmlns="http://www.w3.org/2000/svg">
<path d="M171.049 179.332C166.238 161.792 205.041 146.751 215.231 160.876C216.648 158.868 221.884 157.648 224.287 158.264C226.639 159.045 228.812 160.284 230.681 161.911C233.392 163.993 236.201 166.149 237.864 169.143C239.54 172.125 239.799 176.191 237.544 178.778C235.758 180.835 230.484 182.166 227.798 182.708C225.926 183.09 224.349 183.398 222.993 183.62C221.762 181.846 221.195 179.696 221.392 177.546C220.479 178.161 219.715 178.971 219.152 179.916C218.59 180.862 218.244 181.921 218.139 183.016C218.102 183.472 233.281 239.321 233.281 239.321C231.457 240.359 229.539 241.222 227.552 241.896C223.621 235.889 220.61 229.327 218.619 222.43C218.162 227.042 218.22 231.691 218.792 236.29C219.096 238.87 219.532 241.432 220.098 243.966C202.06 247.86 174.93 246.578 163.127 230.019L163.121 229.814C163.112 229.16 162.875 228.53 162.453 228.031C162.03 227.533 161.447 227.196 160.804 227.08C160.161 226.964 159.497 227.075 158.927 227.395C158.356 227.714 157.915 228.222 157.678 228.831C157.391 229.562 157.128 230.194 156.892 230.697C153.455 218.401 157.903 204.171 171.049 179.332Z" fill="#2F2E41"/>
<path d="M256.113 740.373L269.553 740.26L275.502 687.214L255.667 687.382L256.113 740.373Z" fill="#A0616A"/>
<path d="M296.528 756.825L275.063 742.266L274.982 732.649L270.366 732.958L256.059 733.944L252.551 734.177L250.005 768.168L260.087 768.077L261.805 758.547L266.483 768.028L293.204 767.805C294.485 767.794 295.728 767.374 296.754 766.606C297.779 765.839 298.532 764.763 298.903 763.537C299.274 762.311 299.244 760.999 298.817 759.791C298.39 758.584 297.588 757.544 296.528 756.825Z" fill="#2F2E41"/>
<path d="M122.104 735.133L135.391 737.153L149.678 685.721L130.067 682.741L122.104 735.133Z" fill="#A0616A"/>
<path d="M159.399 757.785L140.514 740.007L141.96 730.499L137.353 730.072L123.07 728.777L119.57 728.451L111.666 761.608L121.635 763.116L124.842 753.979L127.957 764.083L154.375 768.1C155.642 768.292 156.936 768.075 158.07 767.479C159.204 766.884 160.119 765.941 160.679 764.79C161.24 763.638 161.419 762.338 161.188 761.078C160.958 759.818 160.331 758.664 159.399 757.785Z" fill="#2F2E41"/>
<path d="M249.932 369.772L288.037 438.019C288.037 438.019 286.447 578.38 291.511 583.586C296.575 588.792 301.161 593.461 296.576 593.419C291.99 593.377 286.441 604.534 286.441 604.534L276.957 709.997H253.042C253.042 709.997 236.215 647.804 239.802 612.337L211.471 482.729C211.471 482.729 191.118 605.299 187.45 608.967C183.782 612.635 181.569 612.609 185.426 616.29C189.284 619.971 185.426 628.296 185.426 628.296L145.215 711.752L123.404 709.001C123.404 709.001 127.185 640.87 140.353 611.622V473.401C139.361 485.252 185.752 365.305 157.383 374.308C166.358 371.46 249.932 369.772 249.932 369.772Z" fill="#2F2E41"/>
<path d="M217.544 239.638L178.807 231.421L171.116 246.903L145.215 261.898C145.215 261.898 161.911 330.161 161.815 339.762C161.574 364.137 122.572 418.779 152.031 414.576C181.491 410.372 187.475 392.764 196.932 395.549C235.949 407.035 282.32 405.817 266.541 390.038C250.761 374.259 254.287 269.222 254.287 269.222L223.725 254.779L217.544 239.638Z" fill="#EC9D9D"/>
<path d="M144.482 487.542C146.039 485.686 146.81 483.296 146.631 480.881C146.452 478.465 145.338 476.215 143.525 474.608C143.151 474.287 142.752 473.998 142.33 473.743L148.807 441.957L133.834 432.996L129.67 477.498C128.748 479.327 128.458 481.41 128.845 483.421C129.232 485.432 130.273 487.258 131.807 488.615C133.585 490.158 135.902 490.931 138.25 490.764C140.597 490.598 142.783 489.506 144.325 487.728C144.379 487.667 144.431 487.605 144.482 487.542Z" fill="#A0616A"/>
<path d="M136.212 338.811L137.458 280.889C137.536 277.248 138.342 273.659 139.828 270.335C141.315 267.01 143.451 264.016 146.113 261.53C148.774 259.044 151.906 257.115 155.324 255.858C158.742 254.6 162.377 254.04 166.015 254.209C177.851 254.762 174.697 259.491 177.841 270.916C182.95 289.486 184.915 300.221 183.682 302.82C183.264 303.7 182.825 304.544 182.402 305.355C180.223 309.534 178.648 312.553 182.649 315.446C184.232 316.492 185.955 317.308 187.768 317.869C189.574 318.511 190.879 318.974 190.971 319.995C191.059 320.984 189.943 322.008 186.854 323.776C178.56 328.523 171.367 356.894 171.297 357.175L147.228 458.138L128.055 457.186L136.212 338.811Z" fill="#EC9D9D"/>
<path d="M377.474 417.949C375.076 417.608 372.906 416.344 371.425 414.427C369.945 412.51 369.271 410.091 369.546 407.685C369.61 407.197 369.714 406.714 369.858 406.243L343.803 386.917L348.958 370.247L381.787 400.58C383.695 401.325 385.302 402.681 386.357 404.436C387.413 406.191 387.858 408.245 387.623 410.28C387.479 411.436 387.108 412.553 386.531 413.565C385.955 414.578 385.185 415.468 384.265 416.183C383.345 416.898 382.293 417.425 381.169 417.734C380.046 418.043 378.872 418.127 377.716 417.983C377.635 417.972 377.555 417.961 377.474 417.949Z" fill="#A0616A"/>
<path d="M369.419 384.386L355.787 397.903L270.429 338.853C270.189 338.692 245.883 322.384 236.54 324.393C233.061 325.142 231.546 325.124 230.951 324.33C230.337 323.509 230.999 322.292 231.914 320.608C232.888 318.98 233.626 317.222 234.104 315.385C235.149 310.56 231.961 309.365 227.547 307.711C226.691 307.39 225.8 307.056 224.901 306.68C222.247 305.57 216.538 296.269 207.934 279.038C202.641 268.436 197.135 267.024 205.573 258.706C208.167 256.149 211.247 254.138 214.63 252.79C218.013 251.443 221.632 250.785 225.273 250.858C228.915 250.93 232.505 251.73 235.832 253.211C239.159 254.692 242.156 256.824 244.647 259.481L284.269 301.75L369.419 384.386Z" fill="#EC9D9D"/>
<path d="M201.201 230.84C218.655 230.84 232.804 216.691 232.804 199.237C232.804 181.784 218.655 167.634 201.201 167.634C183.747 167.634 169.598 181.784 169.598 199.237C169.598 216.691 183.747 230.84 201.201 230.84Z" fill="#A0616A"/>
<path d="M153.8 181.796C148.989 164.256 187.792 149.215 197.982 163.34C199.399 161.332 204.635 160.112 207.038 160.728C209.39 161.509 211.563 162.749 213.432 164.375C216.143 166.457 218.952 168.613 220.615 171.607C222.291 174.589 222.55 178.655 220.295 181.242C218.508 183.3 213.235 184.63 210.549 185.172C208.677 185.554 207.099 185.862 205.744 186.084C204.513 184.31 203.946 182.16 204.142 180.01C203.23 180.625 202.466 181.435 201.903 182.381C201.341 183.326 200.995 184.385 200.89 185.48C200.853 185.936 216.032 241.786 216.032 241.786C214.208 242.823 212.29 243.686 210.303 244.361C206.372 238.353 203.361 231.792 201.37 224.894C200.913 229.506 200.971 234.155 201.543 238.755C201.847 241.334 202.283 243.896 202.849 246.43C184.811 250.324 157.681 249.042 145.878 232.483L145.872 232.278C145.863 231.624 145.626 230.994 145.204 230.496C144.781 229.997 144.198 229.661 143.555 229.545C142.912 229.428 142.248 229.54 141.678 229.859C141.107 230.178 140.666 230.686 140.429 231.295C140.142 232.026 139.879 232.658 139.643 233.161C136.206 220.865 140.654 206.635 153.8 181.796Z" fill="#2F2E41"/>
<path d="M755.413 77.8663H407.081C402.947 77.8663 398.853 78.6806 395.033 80.2628C391.213 81.845 387.742 84.1641 384.819 87.0877C381.895 90.0112 379.576 93.4819 377.994 97.3017C376.412 101.122 375.597 105.216 375.597 109.35V635.283C375.597 643.633 378.914 651.641 384.819 657.545C390.723 663.45 398.731 666.767 407.081 666.767H755.413C763.763 666.767 771.771 663.45 777.675 657.545C783.58 651.641 786.897 643.633 786.897 635.283C833.105 456.549 834.526 281.133 786.897 109.35C786.897 101 783.58 92.992 777.675 87.0877C771.771 81.1833 763.763 77.8663 755.413 77.8663ZM417.662 593.899C417.662 595.251 417.125 596.548 416.169 597.504C415.213 598.459 413.917 598.996 412.565 598.996H399.39C398.038 598.996 396.741 598.459 395.786 597.504C394.83 596.548 394.293 595.251 394.293 593.899V580.724C394.293 579.373 394.83 578.076 395.786 577.12C396.741 576.164 398.038 575.627 399.39 575.627H412.565C413.917 575.627 415.213 576.164 416.169 577.12C417.125 578.076 417.662 579.373 417.662 580.724V593.899ZM417.662 541.903C417.662 543.255 417.125 544.552 416.169 545.507C415.213 546.463 413.917 547 412.565 547H399.39C398.038 547 396.741 546.463 395.786 545.507C394.83 544.552 394.293 543.255 394.293 541.903V528.728C394.293 528.059 394.425 527.396 394.681 526.778C394.937 526.159 395.312 525.597 395.786 525.124C396.259 524.651 396.821 524.275 397.439 524.019C398.058 523.763 398.72 523.631 399.39 523.631H412.565C413.234 523.631 413.897 523.763 414.515 524.019C415.134 524.275 415.696 524.651 416.169 525.124C416.642 525.597 417.018 526.159 417.274 526.778C417.53 527.396 417.662 528.059 417.662 528.728V541.903ZM417.662 489.907C417.662 491.259 417.125 492.555 416.169 493.511C415.213 494.467 413.917 495.004 412.565 495.004H399.39C398.038 495.004 396.741 494.467 395.786 493.511C394.83 492.555 394.293 491.259 394.293 489.907V476.732C394.293 475.38 394.83 474.084 395.786 473.128C396.741 472.172 398.038 471.635 399.39 471.635H412.565C413.917 471.635 415.213 472.172 416.169 473.128C417.125 474.084 417.662 475.38 417.662 476.732V489.907ZM417.662 437.911C417.662 439.263 417.125 440.559 416.169 441.515C415.213 442.471 413.917 443.008 412.565 443.008H399.39C398.038 443.008 396.741 442.471 395.786 441.515C394.83 440.559 394.293 439.263 394.293 437.911V424.736C394.293 423.384 394.83 422.088 395.786 421.132C396.741 420.176 398.038 419.639 399.39 419.639H412.565C413.917 419.639 415.213 420.176 416.169 421.132C417.125 422.088 417.662 423.384 417.662 424.736V437.911ZM417.662 385.915C417.662 387.267 417.125 388.563 416.169 389.519C415.213 390.475 413.917 391.012 412.565 391.012H399.39C398.038 391.012 396.741 390.475 395.786 389.519C394.83 388.563 394.293 387.267 394.293 385.915V372.74C394.293 371.388 394.83 370.091 395.786 369.136C396.741 368.18 398.038 367.643 399.39 367.643H412.565C413.917 367.643 415.213 368.18 416.169 369.136C417.125 370.091 417.662 371.388 417.662 372.74V385.915ZM417.662 333.919C417.662 335.27 417.125 336.567 416.169 337.523C415.213 338.479 413.917 339.016 412.565 339.016H399.39C398.038 339.016 396.741 338.479 395.786 337.523C394.83 336.567 394.293 335.27 394.293 333.919V320.744C394.293 319.392 394.83 318.095 395.786 317.139C396.741 316.184 398.038 315.647 399.39 315.647H412.565C413.917 315.647 415.213 316.184 416.169 317.139C417.125 318.095 417.662 319.392 417.662 320.744V333.919ZM417.662 281.922C417.662 283.274 417.125 284.571 416.169 285.527C415.213 286.482 413.917 287.019 412.565 287.019H399.39C398.038 287.019 396.741 286.482 395.786 285.527C394.83 284.571 394.293 283.274 394.293 281.922V268.747C394.293 267.396 394.83 266.099 395.786 265.143C396.741 264.187 398.038 263.65 399.39 263.65H412.565C413.917 263.65 415.213 264.187 416.169 265.143C417.125 266.099 417.662 267.396 417.662 268.747V281.922ZM417.662 229.926C417.662 231.278 417.125 232.575 416.169 233.53C415.213 234.486 413.917 235.023 412.565 235.023H399.39C398.038 235.023 396.741 234.486 395.786 233.53C394.83 232.575 394.293 231.278 394.293 229.926V216.751C394.293 215.399 394.83 214.103 395.786 213.147C396.741 212.191 398.038 211.654 399.39 211.654H412.565C413.917 211.654 415.213 212.191 416.169 213.147C417.125 214.103 417.662 215.399 417.662 216.751V229.926ZM417.662 177.93C417.662 179.282 417.125 180.578 416.169 181.534C415.213 182.49 413.917 183.027 412.565 183.027H399.39C398.038 183.027 396.741 182.49 395.786 181.534C394.83 180.578 394.293 179.282 394.293 177.93V164.755C394.293 163.403 394.83 162.107 395.786 161.151C396.741 160.195 398.038 159.658 399.39 159.658H412.565C413.917 159.658 415.213 160.195 416.169 161.151C417.125 162.107 417.662 163.403 417.662 164.755V177.93Z" fill="#F2F2F2"/>
<path d="M414.688 105.909H397.266C395.624 105.909 394.292 107.24 394.292 108.882V126.305C394.292 127.947 395.624 129.278 397.266 129.278H414.688C416.331 129.278 417.662 127.947 417.662 126.305V108.882C417.662 107.24 416.331 105.909 414.688 105.909Z" fill="#FBDBDB"/>
<path d="M719.125 172.706H464.731C464.37 172.706 464.023 172.562 463.767 172.306C463.512 172.051 463.368 171.704 463.368 171.342C463.368 170.981 463.512 170.634 463.767 170.378C464.023 170.123 464.37 169.979 464.731 169.979H719.125C719.487 169.979 719.834 170.123 720.089 170.378C720.345 170.634 720.489 170.981 720.489 171.342C720.489 171.704 720.345 172.051 720.089 172.306C719.834 172.562 719.487 172.706 719.125 172.706Z" fill="#E6E6E6"/>
<path d="M719.126 121.293H646.681C646.319 121.293 645.972 121.15 645.717 120.894C645.461 120.639 645.317 120.292 645.317 119.93C645.317 119.569 645.461 119.222 645.717 118.966C645.972 118.711 646.319 118.567 646.681 118.567H719.126C719.487 118.567 719.834 118.711 720.09 118.966C720.345 119.222 720.489 119.569 720.489 119.93C720.489 120.292 720.345 120.639 720.09 120.894C719.834 121.15 719.487 121.293 719.126 121.293Z" fill="#E6E6E6"/>
<path d="M719.125 224.118H464.731C464.37 224.118 464.023 223.974 463.767 223.718C463.512 223.463 463.368 223.116 463.368 222.754C463.368 222.393 463.512 222.046 463.767 221.79C464.023 221.535 464.37 221.391 464.731 221.391H719.125C719.487 221.391 719.834 221.535 720.089 221.79C720.345 222.046 720.489 222.393 720.489 222.754C720.489 223.116 720.345 223.463 720.089 223.718C719.834 223.974 719.487 224.118 719.125 224.118Z" fill="#E6E6E6"/>
<path d="M719.125 275.53H464.731C464.37 275.53 464.023 275.386 463.767 275.13C463.512 274.875 463.368 274.528 463.368 274.166C463.368 273.805 463.512 273.458 463.767 273.203C464.023 272.947 464.37 272.803 464.731 272.803H719.125C719.487 272.803 719.834 272.947 720.089 273.203C720.345 273.458 720.489 273.805 720.489 274.166C720.489 274.528 720.345 274.875 720.089 275.13C719.834 275.386 719.487 275.53 719.125 275.53Z" fill="#E6E6E6"/>
<path d="M719.125 326.942H464.731C464.37 326.942 464.023 326.798 463.767 326.542C463.512 326.287 463.368 325.94 463.368 325.578C463.368 325.217 463.512 324.87 463.767 324.615C464.023 324.359 464.37 324.215 464.731 324.215H719.125C719.487 324.215 719.834 324.359 720.089 324.615C720.345 324.87 720.489 325.217 720.489 325.578C720.489 325.94 720.345 326.287 720.089 326.542C719.834 326.798 719.487 326.942 719.125 326.942Z" fill="#E6E6E6"/>
<path d="M719.125 378.354H464.731C464.37 378.354 464.023 378.21 463.767 377.954C463.512 377.699 463.368 377.352 463.368 376.991C463.368 376.629 463.512 376.282 463.767 376.027C464.023 375.771 464.37 375.627 464.731 375.627H719.125C719.487 375.627 719.834 375.771 720.089 376.027C720.345 376.282 720.489 376.629 720.489 376.991C720.489 377.352 720.345 377.699 720.089 377.954C719.834 378.21 719.487 378.354 719.125 378.354Z" fill="#E6E6E6"/>
<path d="M719.125 429.765H464.731C464.37 429.765 464.023 429.622 463.767 429.366C463.512 429.11 463.368 428.763 463.368 428.402C463.368 428.04 463.512 427.694 463.767 427.438C464.023 427.182 464.37 427.039 464.731 427.039H719.125C719.487 427.039 719.834 427.182 720.089 427.438C720.345 427.694 720.489 428.04 720.489 428.402C720.489 428.763 720.345 429.11 720.089 429.366C719.834 429.622 719.487 429.765 719.125 429.765Z" fill="#E6E6E6"/>
<path d="M719.125 481.178H464.731C464.37 481.178 464.023 481.034 463.767 480.778C463.512 480.523 463.368 480.176 463.368 479.815C463.368 479.453 463.512 479.106 463.767 478.851C464.023 478.595 464.37 478.451 464.731 478.451H719.125C719.487 478.451 719.834 478.595 720.089 478.851C720.345 479.106 720.489 479.453 720.489 479.815C720.489 480.176 720.345 480.523 720.089 480.778C719.834 481.034 719.487 481.178 719.125 481.178Z" fill="#E6E6E6"/>
<path d="M719.125 532.589H464.731C464.37 532.589 464.023 532.446 463.767 532.19C463.512 531.934 463.368 531.588 463.368 531.226C463.368 530.864 463.512 530.518 463.767 530.262C464.023 530.006 464.37 529.863 464.731 529.863H719.125C719.487 529.863 719.834 530.006 720.089 530.262C720.345 530.518 720.489 530.864 720.489 531.226C720.489 531.588 720.345 531.934 720.089 532.19C719.834 532.446 719.487 532.589 719.125 532.589Z" fill="#E6E6E6"/>
<path d="M719.125 584.002H464.731C464.37 584.002 464.023 583.858 463.767 583.603C463.512 583.347 463.368 583 463.368 582.639C463.368 582.277 463.512 581.93 463.767 581.675C464.023 581.419 464.37 581.276 464.731 581.276H719.125C719.487 581.276 719.834 581.419 720.089 581.675C720.345 581.93 720.489 582.277 720.489 582.639C720.489 583 720.345 583.347 720.089 583.603C719.834 583.858 719.487 584.002 719.125 584.002Z" fill="#E6E6E6"/>
<path d="M681.411 160.704H505.965C505.282 160.705 504.605 160.571 503.974 160.31C503.342 160.05 502.768 159.667 502.285 159.184C501.801 158.702 501.418 158.129 501.156 157.498C500.894 156.867 500.76 156.19 500.76 155.507C500.76 154.824 500.894 154.147 501.156 153.516C501.418 152.885 501.801 152.312 502.285 151.829C502.768 151.347 503.342 150.964 503.974 150.704C504.605 150.443 505.282 150.309 505.965 150.31H681.411C682.788 150.313 684.108 150.861 685.08 151.835C686.053 152.81 686.599 154.13 686.599 155.507C686.599 156.884 686.053 158.204 685.08 159.179C684.108 160.153 682.788 160.701 681.411 160.704Z" fill="#CCCCCC"/>
<path d="M681.411 212.115H505.965C504.586 212.115 503.265 211.568 502.29 210.593C501.316 209.619 500.768 208.297 500.768 206.919C500.768 205.541 501.316 204.219 502.29 203.244C503.265 202.27 504.586 201.722 505.965 201.722H681.411C682.789 201.722 684.111 202.27 685.086 203.244C686.06 204.219 686.608 205.541 686.608 206.919C686.608 208.297 686.06 209.619 685.086 210.593C684.111 211.568 682.789 212.115 681.411 212.115Z" fill="#CCCCCC"/>
<path d="M681.411 263.527H505.965C505.282 263.529 504.605 263.395 503.974 263.134C503.342 262.874 502.768 262.491 502.285 262.008C501.801 261.526 501.418 260.952 501.156 260.321C500.894 259.69 500.76 259.014 500.76 258.331C500.76 257.648 500.894 256.971 501.156 256.34C501.418 255.709 501.801 255.136 502.285 254.653C502.768 254.171 503.342 253.788 503.974 253.527C504.605 253.267 505.282 253.133 505.965 253.134H681.411C682.788 253.137 684.108 253.685 685.08 254.659C686.053 255.634 686.599 256.954 686.599 258.331C686.599 259.708 686.053 261.028 685.08 262.002C684.108 262.977 682.788 263.525 681.411 263.527Z" fill="#CCCCCC"/>
<path d="M681.411 314.939H505.965C504.586 314.939 503.265 314.392 502.29 313.417C501.316 312.443 500.768 311.121 500.768 309.743C500.768 308.365 501.316 307.043 502.29 306.068C503.265 305.094 504.586 304.546 505.965 304.546H681.411C682.789 304.546 684.111 305.094 685.086 306.068C686.06 307.043 686.608 308.365 686.608 309.743C686.608 311.121 686.06 312.443 685.086 313.417C684.111 314.392 682.789 314.939 681.411 314.939Z" fill="#CCCCCC"/>
<path d="M681.411 366.351H505.965C505.282 366.352 504.605 366.219 503.974 365.958C503.342 365.698 502.768 365.315 502.285 364.832C501.801 364.35 501.418 363.776 501.156 363.145C500.894 362.514 500.76 361.838 500.76 361.155C500.76 360.472 500.894 359.795 501.156 359.164C501.418 358.533 501.801 357.96 502.285 357.477C502.768 356.995 503.342 356.612 503.974 356.351C504.605 356.091 505.282 355.957 505.965 355.958H681.411C682.788 355.96 684.108 356.509 685.08 357.483C686.053 358.458 686.599 359.778 686.599 361.155C686.599 362.532 686.053 363.852 685.08 364.826C684.108 365.801 682.788 366.349 681.411 366.351Z" fill="#CCCCCC"/>
<path d="M681.411 417.763H505.965C505.282 417.764 504.605 417.631 503.974 417.37C503.342 417.109 502.768 416.727 502.285 416.244C501.801 415.762 501.418 415.188 501.156 414.557C500.894 413.926 500.76 413.25 500.76 412.567C500.76 411.884 500.894 411.207 501.156 410.576C501.418 409.945 501.801 409.372 502.285 408.889C502.768 408.407 503.342 408.024 503.974 407.763C504.605 407.503 505.282 407.369 505.965 407.37H681.411C682.788 407.372 684.108 407.921 685.08 408.895C686.053 409.869 686.599 411.19 686.599 412.567C686.599 413.943 686.053 415.264 685.08 416.238C684.108 417.213 682.788 417.761 681.411 417.763Z" fill="#CCCCCC"/>
<path d="M681.411 469.175H505.965C504.586 469.175 503.265 468.628 502.29 467.653C501.316 466.679 500.768 465.357 500.768 463.979C500.768 462.6 501.316 461.279 502.29 460.304C503.265 459.33 504.586 458.782 505.965 458.782H681.411C682.789 458.782 684.111 459.33 685.086 460.304C686.06 461.279 686.608 462.6 686.608 463.979C686.608 465.357 686.06 466.679 685.086 467.653C684.111 468.628 682.789 469.175 681.411 469.175Z" fill="#CCCCCC"/>
<path d="M681.411 520.587H505.965C505.282 520.588 504.605 520.455 503.974 520.194C503.342 519.933 502.768 519.551 502.285 519.068C501.801 518.585 501.418 518.012 501.156 517.381C500.894 516.75 500.76 516.074 500.76 515.391C500.76 514.707 500.894 514.031 501.156 513.4C501.418 512.769 501.801 512.196 502.285 511.713C502.768 511.23 503.342 510.848 503.974 510.587C504.605 510.327 505.282 510.193 505.965 510.194H681.411C682.788 510.196 684.108 510.745 685.08 511.719C686.053 512.693 686.599 514.014 686.599 515.391C686.599 516.767 686.053 518.088 685.08 519.062C684.108 520.036 682.788 520.585 681.411 520.587Z" fill="#CCCCCC"/>
<path d="M681.411 571.999H505.965C505.282 571.999 504.607 571.865 503.976 571.604C503.346 571.342 502.773 570.96 502.29 570.477C501.808 569.995 501.425 569.422 501.164 568.791C500.902 568.161 500.768 567.485 500.768 566.802C500.768 566.12 500.902 565.444 501.164 564.814C501.425 564.183 501.808 563.611 502.29 563.128C502.773 562.645 503.346 562.263 503.976 562.002C504.607 561.74 505.282 561.606 505.965 561.606H681.411C682.789 561.606 684.111 562.153 685.086 563.128C686.06 564.103 686.608 565.424 686.608 566.802C686.608 568.181 686.06 569.503 685.086 570.477C684.111 571.452 682.789 571.999 681.411 571.999Z" fill="#CCCCCC"/>
<path d="M522.92 121.811H477.516C477.154 121.811 476.808 121.954 476.552 122.21C476.296 122.466 476.153 122.812 476.153 123.174C476.153 123.535 476.296 123.882 476.552 124.138C476.808 124.393 477.154 124.537 477.516 124.537H498.855V169.029C498.855 169.39 498.998 169.737 499.254 169.992C499.51 170.248 499.856 170.392 500.218 170.392C500.58 170.392 500.926 170.248 501.182 169.992C501.438 169.737 501.581 169.39 501.581 169.029V145.875C501.581 140.216 503.829 134.789 507.831 130.787C511.833 126.785 517.261 124.537 522.92 124.537C523.281 124.537 523.628 124.393 523.884 124.138C524.139 123.882 524.283 123.535 524.283 123.174C524.283 122.812 524.139 122.466 523.884 122.21C523.628 121.954 523.281 121.811 522.92 121.811Z" fill="#3F3D56"/>
<path d="M687.772 582.834C687.019 582.834 677.462 582.223 677.462 581.47L686.409 536.067C686.409 535.705 686.552 535.359 686.808 535.103C687.063 534.847 687.41 534.704 687.772 534.704C688.133 534.704 688.48 534.847 688.736 535.103C688.991 535.359 689.135 535.705 689.135 536.067V581.47C689.135 581.832 688.991 582.179 688.736 582.434C688.48 582.69 688.133 582.834 687.772 582.834Z" fill="#3F3D56"/>
<path d="M790.809 109.35C790.809 101 787.492 92.9921 781.587 87.0877C775.683 81.1834 767.675 77.8663 759.325 77.8663H406.951C421.198 77.8663 592.39 87.9333 701.454 100.64C719.637 102.757 736.695 110.534 750.218 122.873C763.74 135.212 773.042 151.489 776.81 169.403C808.875 321.96 803.018 477.326 762.182 635.283C762.182 643.633 758.864 651.641 752.96 657.545C747.056 663.45 739.048 666.767 730.698 666.767H759.325C767.675 666.767 775.683 663.45 781.587 657.545C787.492 651.641 790.809 643.633 790.809 635.283C837.017 456.549 838.438 281.133 790.809 109.35Z" fill="#E6E6E6"/>
<path d="M777.521 651.231L774.881 650.55C821.495 470.246 821.511 293.587 774.93 125.476C770.081 116.685 763.105 109.251 754.641 103.853C746.177 98.4556 736.494 95.2664 726.479 94.5774L586.798 84.6789L586.991 81.9592L726.672 91.8577C737.168 92.5802 747.314 95.9299 756.178 101.599C765.041 107.268 772.337 115.074 777.395 124.299L777.515 124.593C801.065 209.495 812.921 297.213 812.753 385.32C812.577 472.016 800.723 561.483 777.521 651.231Z" fill="white"/>
</svg>
