<svg width="650" height="700" viewBox="0 0 650 700" fill="none" xmlns="http://www.w3.org/2000/svg">
<path d="M511 691H386.732L385.52 685.967L378.877 658.277L372.244 685.967L371.043 691H243.212C242.934 689.303 242.667 687.625 242.4 685.967C238.673 663.103 234.987 644.067 231.866 638.619C222.81 622.85 231.25 632.728 240.912 623.432C250.573 614.146 240.912 623.432 235.254 611.511C229.587 599.59 260.276 509 260.276 509L474 511.5C474 511.5 488.6 576.03 489 585C489.226 590.102 510.004 642.527 510.887 685.967C510.928 687.655 510.959 689.342 511 691Z" fill="#2F2E41"/>
<path d="M390 528C390 528 439.922 528 477.5 528C491.449 497.661 498.086 510.658 489.445 505.35C496.5 402 474.358 508.9 487 492C499.642 475.1 476.713 413.236 471.145 410.32C466.905 408.1 455.371 282.998 450.109 223.438C449.295 214.231 445.757 205.449 439.922 198.149C434.086 190.849 426.202 185.343 417.219 182.293L396.289 149.469L342.596 149L315.772 185.111L277.061 199.171L248.002 315.701C248.002 315.701 247.722 367.172 253.829 422.13C255.729 439.229 258.248 456.666 261.586 472.995C269.447 511.455 242.009 506.22 261.585 513.5C316.185 533.805 390 528 390 528Z" fill="#E6E6E6"/>
<path d="M481.287 409.672L466.221 422.339L462.732 425.264L457.154 429.985L340.865 527.752C338.693 531.789 335.308 535.022 331.239 536.945C327.169 538.868 322.645 539.373 318.373 538.38C313.475 537.195 309.309 534.039 306.788 529.607C304.268 525.175 303.6 519.828 304.932 514.742C304.979 514.561 305.048 514.402 305.095 514.221C306.557 509.007 309.918 504.509 314.464 501.682C319.01 498.855 324.382 497.921 329.441 499.079C330.461 499.346 331.457 499.696 332.419 500.125L335.299 496.986L344.341 487.158L351.172 479.735L364.745 464.937L370.014 459.209L387.092 440.631L403.568 422.716L423.526 400.998L438.863 384.298L445.79 388.439L481.287 409.672Z" fill="#A0616A"/>
<path d="M487.678 380.038C486.952 383.599 486.288 385.9 485.814 386.64C481.739 392.776 479.244 384.202 481.487 400.637C483.287 413.977 472.484 412.306 476.369 415.155C482.782 419.866 473.937 421.948 470.052 424.496C468.314 425.619 473.125 425.352 475.115 426.913C476.062 427.627 471.566 429.688 472.673 430.138C476.906 432.056 474.474 433.508 468.851 434.631C459.533 436.466 441.495 437.37 430.597 437.726C427.502 437.863 424.975 437.918 423.395 437.973C422.226 438 421.563 438 421.563 438C421.563 438 396.137 435.315 395 430.138C394.178 426.523 415.869 399.034 425 398.377C426.39 393.665 423.86 401.712 425.25 399C426.055 397.736 425.107 399.856 425 398.377L425.354 399.459C425.133 398.062 424.09 396.775 421.721 395.405C417.456 392.94 419.826 387.763 423.142 382.887C426.301 378.312 430.281 373.957 430.281 372.368C430.281 368.999 404 297.396 404 297.396L413.666 189.279C421.038 184.411 429.987 182.262 438.873 183.225C444.97 183.992 451.762 186.457 458.743 191.99C464.839 196.839 471.094 204.07 477.096 214.534C502.619 258.992 493.111 353.796 487.678 380.038Z" fill="#EC9D9D" fill-opacity="0.9"/>
<path d="M361.5 136C392.704 136 418 111.823 418 82C418 52.1766 392.704 28 361.5 28C330.296 28 305 52.1766 305 82C305 111.823 330.296 136 361.5 136Z" fill="#A0616A"/>
<path d="M419.24 109.14C419.24 109.14 403.71 121.418 395.194 125C397.552 117.073 400.009 103.464 402.36 95.559C403.582 91.3998 404.831 87.1501 404.632 82.8514C404.416 78.5238 402.503 74.0551 398.713 71.8126C396.874 70.7199 394.726 70.2151 392.574 70.3696C390.423 70.5241 388.376 71.3302 386.723 72.6736C385.071 74.017 383.897 75.8297 383.368 77.8548C382.839 79.88 382.981 82.015 383.775 83.9573C380.066 83.7127 377.971 79.6098 377.517 76.023C377.062 72.436 377.406 68.5278 375.359 65.4867C373.385 62.5389 369.488 61.1947 365.837 61.3563C362.217 61.5017 358.779 62.9404 355.535 64.5782C346.26 69.2237 337.836 75.6361 327.856 78.701C325.855 79.3172 323.798 79.7505 321.713 79.9954C321.786 74.153 319.785 68.4633 316.046 63.8771C315.504 69.3202 313.919 74.6178 311.372 79.4986C306.56 78.5932 302.285 75.9479 299.415 72.1003C296.291 67.7199 295.523 62.0722 296.258 56.8056C296.614 54.3865 297.223 52.0086 298.075 49.7083C299.543 49.3668 300.972 48.8864 302.343 48.274C305.368 46.9908 308.102 45.1415 310.386 42.8324C307.299 42.9576 304.207 42.7452 301.169 42.1993C301.244 42.0246 301.313 41.8724 301.389 41.6976C303.128 38.0194 305.053 34.2207 308.412 31.8333C311.77 29.446 316.973 28.971 319.89 31.8807C327.473 20.3436 339.479 12.1954 353.268 9.22841C367.057 6.26146 381.498 8.71887 393.415 16.06C393.681 16.2237 393.945 16.3896 394.208 16.5579C392.034 18.9601 390.366 21.7506 389.298 24.7723C392.604 23.1265 396.116 21.9011 399.747 21.1266C402.303 23.89 403.919 27.205 403.226 30.7506C407.464 32.748 415.73 36.0761 411.823 38.2668C421.966 47.0571 428.35 59.1996 429.722 72.3118C431.094 85.4239 427.356 98.5592 419.24 109.14Z" fill="#2F2E41"/>
<path d="M198.148 421.968C193.301 421.627 188.776 419.206 185.568 415.237C182.359 411.267 180.73 406.074 181.037 400.798C181.068 400.619 181.088 400.439 181.099 400.257C181.509 394.831 183.844 389.793 187.611 386.211C191.377 382.628 196.277 380.784 201.272 381.069C202.283 381.169 203.285 381.35 204.272 381.61L206.403 378.007L213.127 366.701L218.176 358.188L228.252 341.185L232.142 334.609L232.659 333.73L244.825 313.259L254.57 296.818L255.398 295.422L257.032 292.674L271.826 267.721L275.798 261.01C275.819 260.987 275.819 261.01 275.819 261.01C276.212 260.785 282.647 274.905 283.04 274.68C289.516 271.122 294.958 266.618 318.213 272.428L328 266.505L316.124 281.639L313.372 285.13L308.986 290.76L254.405 360.395L217.41 407.599C216.108 411.973 213.512 415.755 210.027 418.354C206.543 420.954 202.365 422.224 198.148 421.968Z" fill="#A0616A"/>
<path d="M379.727 276.599L303.601 389.627L334.187 422.639L332.123 424.42L306.126 446.703L298.77 453L285.156 450.328C285.156 450.328 282.456 446.364 268.249 444.328C254.043 442.293 262.321 437.628 268.6 428.511C270.094 426.328 264.297 429.762 263.924 428.999C263.748 428.533 260.235 426.985 259.532 426.879C256.634 426.349 259.466 424.759 255.294 423.932C248.597 422.617 248.202 427.197 235.225 402.497C235.203 402.475 235.225 402.475 235.225 402.475C235.006 402.073 234.808 401.691 234.589 401.288C231.119 394.652 233.622 376.206 239.287 352.375C247.938 316.034 263.923 267.185 277.23 228.788C279.819 221.331 284.023 214.491 289.563 208.725C295.102 202.958 301.85 198.397 309.357 195.344C316.864 192.291 324.958 190.816 333.101 191.018C341.243 191.22 349.248 193.094 356.583 196.516C363.917 199.937 370.414 204.827 375.639 210.861C380.864 216.894 384.699 223.933 386.889 231.509C389.078 239.085 389.572 247.024 388.337 254.799C387.102 262.573 384.167 270.005 379.727 276.599Z" fill="#E6E6E6"/>
<path d="M275.934 174H61.3915C58.845 174 56.3234 174.516 53.9707 175.518C51.618 176.52 49.4803 177.989 47.6796 179.841C45.879 181.692 44.4506 183.891 43.4761 186.31C42.5016 188.729 42 191.323 42 193.941V527.059C42 532.347 44.043 537.42 47.6796 541.159C51.3162 544.899 56.2486 547 61.3915 547H275.934C281.077 547 286.009 544.899 289.646 541.159C293.282 537.42 295.325 532.347 295.325 527.059C323.786 413.851 324.661 302.746 295.325 193.941C295.325 188.653 293.282 183.58 289.646 179.841C286.009 176.101 281.077 174 275.934 174ZM67.9083 500.847C67.9083 501.703 67.5775 502.524 66.9888 503.13C66.4001 503.735 65.6016 504.075 64.769 504.075H56.6541C55.8215 504.075 55.0231 503.735 54.4343 503.13C53.8456 502.524 53.5148 501.703 53.5148 500.847V492.502C53.5148 491.646 53.8456 490.825 54.4343 490.219C55.0231 489.614 55.8215 489.274 56.6541 489.274H64.769C65.6016 489.274 66.4001 489.614 66.9888 490.219C67.5775 490.825 67.9083 491.646 67.9083 492.502V500.847ZM67.9083 467.914C67.9083 468.77 67.5775 469.591 66.9888 470.196C66.4001 470.802 65.6016 471.142 64.769 471.142H56.6541C55.8215 471.142 55.0231 470.802 54.4343 470.196C53.8456 469.591 53.5148 468.77 53.5148 467.914V459.569C53.5148 459.145 53.596 458.725 53.7538 458.333C53.9116 457.942 54.1428 457.586 54.4343 457.286C54.7258 456.986 55.0719 456.748 55.4528 456.586C55.8337 456.424 56.2419 456.34 56.6541 456.34H64.769C65.1812 456.34 65.5894 456.424 65.9703 456.586C66.3512 456.748 66.6973 456.986 66.9888 457.286C67.2803 457.586 67.5115 457.942 67.6693 458.333C67.8271 458.725 67.9083 459.145 67.9083 459.569V467.914ZM67.9083 434.98C67.9083 435.836 67.5775 436.657 66.9888 437.263C66.4001 437.868 65.6016 438.208 64.769 438.208H56.6541C55.8215 438.208 55.0231 437.868 54.4343 437.263C53.8456 436.657 53.5148 435.836 53.5148 434.98V426.635C53.5148 425.779 53.8456 424.958 54.4343 424.352C55.0231 423.747 55.8215 423.407 56.6541 423.407H64.769C65.6016 423.407 66.4001 423.747 66.9888 424.352C67.5775 424.958 67.9083 425.779 67.9083 426.635V434.98ZM67.9083 402.046C67.9083 402.903 67.5775 403.724 66.9888 404.329C66.4001 404.935 65.6016 405.275 64.769 405.275H56.6541C55.8215 405.275 55.0231 404.935 54.4343 404.329C53.8456 403.724 53.5148 402.903 53.5148 402.046V393.702C53.5148 392.845 53.8456 392.024 54.4343 391.419C55.0231 390.813 55.8215 390.473 56.6541 390.473H64.769C65.6016 390.473 66.4001 390.813 66.9888 391.419C67.5775 392.024 67.9083 392.845 67.9083 393.702V402.046ZM67.9083 369.113C67.9083 369.969 67.5775 370.79 66.9888 371.396C66.4001 372.001 65.6016 372.341 64.769 372.341H56.6541C55.8215 372.341 55.0231 372.001 54.4343 371.396C53.8456 370.79 53.5148 369.969 53.5148 369.113V360.768C53.5148 359.912 53.8456 359.091 54.4343 358.485C55.0231 357.88 55.8215 357.54 56.6541 357.54H64.769C65.6016 357.54 66.4001 357.88 66.9888 358.485C67.5775 359.091 67.9083 359.912 67.9083 360.768V369.113ZM67.9083 336.179C67.9083 337.036 67.5775 337.857 66.9888 338.462C66.4001 339.068 65.6016 339.408 64.769 339.408H56.6541C55.8215 339.408 55.0231 339.068 54.4343 338.462C53.8456 337.857 53.5148 337.036 53.5148 336.179V327.835C53.5148 326.978 53.8456 326.157 54.4343 325.552C55.0231 324.946 55.8215 324.606 56.6541 324.606H64.769C65.6016 324.606 66.4001 324.946 66.9888 325.552C67.5775 326.157 67.9083 326.978 67.9083 327.835V336.179ZM67.9083 303.246C67.9083 304.102 67.5775 304.923 66.9888 305.529C66.4001 306.134 65.6016 306.474 64.769 306.474H56.6541C55.8215 306.474 55.0231 306.134 54.4343 305.529C53.8456 304.923 53.5148 304.102 53.5148 303.246V294.901C53.5148 294.045 53.8456 293.224 54.4343 292.618C55.0231 292.013 55.8215 291.673 56.6541 291.673H64.769C65.6016 291.673 66.4001 292.013 66.9888 292.618C67.5775 293.224 67.9083 294.045 67.9083 294.901V303.246ZM67.9083 270.312C67.9083 271.169 67.5775 271.99 66.9888 272.595C66.4001 273.201 65.6016 273.541 64.769 273.541H56.6541C55.8215 273.541 55.0231 273.201 54.4343 272.595C53.8456 271.99 53.5148 271.169 53.5148 270.312V261.967C53.5148 261.111 53.8456 260.29 54.4343 259.685C55.0231 259.079 55.8215 258.739 56.6541 258.739H64.769C65.6016 258.739 66.4001 259.079 66.9888 259.685C67.5775 260.29 67.9083 261.111 67.9083 261.967V270.312ZM67.9083 237.379C67.9083 238.235 67.5775 239.056 66.9888 239.662C66.4001 240.267 65.6016 240.607 64.769 240.607H56.6541C55.8215 240.607 55.0231 240.267 54.4343 239.662C53.8456 239.056 53.5148 238.235 53.5148 237.379V229.034C53.5148 228.178 53.8456 227.357 54.4343 226.751C55.0231 226.146 55.8215 225.806 56.6541 225.806H64.769C65.6016 225.806 66.4001 226.146 66.9888 226.751C67.5775 227.357 67.9083 228.178 67.9083 229.034V237.379Z" fill="#F2F2F2"/>
<path d="M139.544 216.736H130.092C129.201 216.736 128.479 217.571 128.479 218.6V229.518C128.479 230.547 129.201 231.381 130.092 231.381H139.544C140.435 231.381 141.157 230.547 141.157 229.518V218.6C141.157 217.571 140.435 216.736 139.544 216.736Z" fill="#EC9D9D"/>
<path d="M254.157 234H96.843C96.6194 234 96.405 233.947 96.2469 233.854C96.0888 233.76 96 233.633 96 233.5C96 233.367 96.0888 233.24 96.2469 233.146C96.405 233.053 96.6194 233 96.843 233H254.157C254.381 233 254.595 233.053 254.753 233.146C254.911 233.24 255 233.367 255 233.5C255 233.633 254.911 233.76 254.753 233.854C254.595 233.947 254.381 234 254.157 234Z" fill="#E6E6E6"/>
<path d="M254.148 201H208.852C208.626 201 208.409 200.895 208.25 200.707C208.09 200.52 208 200.265 208 200C208 199.735 208.09 199.48 208.25 199.293C208.409 199.105 208.626 199 208.852 199H254.148C254.374 199 254.591 199.105 254.75 199.293C254.91 199.48 255 199.735 255 200C255 200.265 254.91 200.52 254.75 200.707C254.591 200.895 254.374 201 254.148 201Z" fill="#E6E6E6"/>
<path d="M254.157 267H96.843C96.6194 267 96.405 266.895 96.2469 266.707C96.0888 266.52 96 266.265 96 266C96 265.735 96.0888 265.48 96.2469 265.293C96.405 265.105 96.6194 265 96.843 265H254.157C254.381 265 254.595 265.105 254.753 265.293C254.911 265.48 255 265.735 255 266C255 266.265 254.911 266.52 254.753 266.707C254.595 266.895 254.381 267 254.157 267Z" fill="#E6E6E6"/>
<path d="M254.157 299H96.843C96.6194 299 96.405 298.895 96.2469 298.707C96.0888 298.52 96 298.265 96 298C96 297.735 96.0888 297.48 96.2469 297.293C96.405 297.105 96.6194 297 96.843 297H254.157C254.381 297 254.595 297.105 254.753 297.293C254.911 297.48 255 297.735 255 298C255 298.265 254.911 298.52 254.753 298.707C254.595 298.895 254.381 299 254.157 299Z" fill="#E6E6E6"/>
<path d="M254.157 331H96.843C96.6194 331 96.405 330.947 96.2469 330.854C96.0888 330.76 96 330.633 96 330.5C96 330.367 96.0888 330.24 96.2469 330.146C96.405 330.053 96.6194 330 96.843 330H254.157C254.381 330 254.595 330.053 254.753 330.146C254.911 330.24 255 330.367 255 330.5C255 330.633 254.911 330.76 254.753 330.854C254.595 330.947 254.381 331 254.157 331Z" fill="#E6E6E6"/>
<path d="M254.157 364H96.843C96.6194 364 96.405 363.895 96.2469 363.707C96.0888 363.52 96 363.265 96 363C96 362.735 96.0888 362.48 96.2469 362.293C96.405 362.105 96.6194 362 96.843 362H254.157C254.381 362 254.595 362.105 254.753 362.293C254.911 362.48 255 362.735 255 363C255 363.265 254.911 363.52 254.753 363.707C254.595 363.895 254.381 364 254.157 364Z" fill="#E6E6E6"/>
<path d="M254.157 397H96.843C96.6194 397 96.405 396.895 96.2469 396.707C96.0888 396.52 96 396.265 96 396C96 395.735 96.0888 395.48 96.2469 395.293C96.405 395.105 96.6194 395 96.843 395H254.157C254.381 395 254.595 395.105 254.753 395.293C254.911 395.48 255 395.735 255 396C255 396.265 254.911 396.52 254.753 396.707C254.595 396.895 254.381 397 254.157 397Z" fill="#E6E6E6"/>
<path d="M254.157 430H96.843C96.6194 430 96.405 429.895 96.2469 429.707C96.0888 429.52 96 429.265 96 429C96 428.735 96.0888 428.48 96.2469 428.293C96.405 428.105 96.6194 428 96.843 428H254.157C254.381 428 254.595 428.105 254.753 428.293C254.911 428.48 255 428.735 255 429C255 429.265 254.911 429.52 254.753 429.707C254.595 429.895 254.381 430 254.157 430Z" fill="#E6E6E6"/>
<path d="M254.157 462H96.843C96.6194 462 96.405 461.895 96.2469 461.707C96.0888 461.52 96 461.265 96 461C96 460.735 96.0888 460.48 96.2469 460.293C96.405 460.105 96.6194 460 96.843 460H254.157C254.381 460 254.595 460.105 254.753 460.293C254.911 460.48 255 460.735 255 461C255 461.265 254.911 461.52 254.753 461.707C254.595 461.895 254.381 462 254.157 462Z" fill="#E6E6E6"/>
<path d="M254.157 494H96.843C96.6194 494 96.405 493.947 96.2469 493.854C96.0888 493.76 96 493.633 96 493.5C96 493.367 96.0888 493.24 96.2469 493.146C96.405 493.053 96.6194 493 96.843 493H254.157C254.381 493 254.595 493.053 254.753 493.146C254.911 493.24 255 493.367 255 493.5C255 493.633 254.911 493.76 254.753 493.854C254.595 493.947 254.381 494 254.157 494Z" fill="#E6E6E6"/>
<path d="M230.789 227H122.221C121.798 227.001 121.38 226.911 120.989 226.735C120.598 226.56 120.243 226.302 119.944 225.977C119.645 225.652 119.407 225.266 119.245 224.841C119.083 224.416 119 223.96 119 223.5C119 223.04 119.083 222.584 119.245 222.159C119.407 221.734 119.645 221.348 119.944 221.023C120.243 220.698 120.598 220.44 120.989 220.265C121.38 220.089 121.798 219.999 122.221 220H230.789C231.641 220.002 232.458 220.371 233.06 221.027C233.662 221.683 234 222.573 234 223.5C234 224.427 233.662 225.317 233.06 225.973C232.458 226.629 231.641 226.998 230.789 227Z" fill="#CCCCCC"/>
<path d="M230.784 259H122.216C121.363 259 120.545 258.631 119.942 257.975C119.339 257.319 119 256.428 119 255.5C119 254.572 119.339 253.681 119.942 253.025C120.545 252.369 121.363 252 122.216 252H230.784C231.637 252 232.455 252.369 233.058 253.025C233.661 253.681 234 254.572 234 255.5C234 256.428 233.661 257.319 233.058 257.975C232.455 258.631 231.637 259 230.784 259Z" fill="#EC9D9D"/>
<path d="M230.789 291H122.221C121.798 291.001 121.38 290.924 120.989 290.773C120.598 290.623 120.243 290.402 119.944 290.123C119.645 289.844 119.407 289.513 119.245 289.149C119.083 288.785 119 288.394 119 288C119 287.606 119.083 287.215 119.245 286.851C119.407 286.487 119.645 286.156 119.944 285.877C120.243 285.598 120.598 285.377 120.989 285.227C121.38 285.076 121.798 284.999 122.221 285H230.789C231.641 285.001 232.458 285.318 233.06 285.88C233.662 286.443 234 287.205 234 288C234 288.795 233.662 289.557 233.06 290.12C232.458 290.682 231.641 290.999 230.789 291Z" fill="#CCCCCC"/>
<path d="M230.784 324H122.216C121.363 324 120.545 323.631 119.942 322.975C119.339 322.319 119 321.428 119 320.5C119 319.572 119.339 318.681 119.942 318.025C120.545 317.369 121.363 317 122.216 317H230.784C231.637 317 232.455 317.369 233.058 318.025C233.661 318.681 234 319.572 234 320.5C234 321.428 233.661 322.319 233.058 322.975C232.455 323.631 231.637 324 230.784 324Z" fill="#CCCCCC"/>
<path d="M230.789 357H122.221C121.798 357.001 121.38 356.911 120.989 356.735C120.598 356.56 120.243 356.302 119.944 355.977C119.645 355.652 119.407 355.266 119.245 354.841C119.083 354.416 119 353.96 119 353.5C119 353.04 119.083 352.584 119.245 352.159C119.407 351.734 119.645 351.348 119.944 351.023C120.243 350.698 120.598 350.44 120.989 350.265C121.38 350.089 121.798 349.999 122.221 350H230.789C231.641 350.002 232.458 350.371 233.06 351.027C233.662 351.683 234 352.573 234 353.5C234 354.427 233.662 355.317 233.06 355.973C232.458 356.629 231.641 356.998 230.789 357Z" fill="#EC9D9D"/>
<path d="M230.789 389H122.221C121.798 389.001 121.38 388.923 120.989 388.773C120.598 388.623 120.243 388.402 119.944 388.123C119.645 387.844 119.407 387.513 119.245 387.149C119.083 386.785 119 386.394 119 386C119 385.606 119.083 385.215 119.245 384.851C119.407 384.487 119.645 384.156 119.944 383.877C120.243 383.598 120.598 383.377 120.989 383.227C121.38 383.076 121.798 382.999 122.221 383H230.789C231.641 383.001 232.458 383.318 233.06 383.88C233.662 384.443 234 385.205 234 386C234 386.795 233.662 387.557 233.06 388.12C232.458 388.682 231.641 388.999 230.789 389Z" fill="#CCCCCC"/>
<path d="M230.784 422H122.216C121.363 422 120.545 421.631 119.942 420.975C119.339 420.318 119 419.428 119 418.5C119 417.572 119.339 416.682 119.942 416.025C120.545 415.369 121.363 415 122.216 415H230.784C231.637 415 232.455 415.369 233.058 416.025C233.661 416.682 234 417.572 234 418.5C234 419.428 233.661 420.318 233.058 420.975C232.455 421.631 231.637 422 230.784 422Z" fill="#CCCCCC"/>
<path d="M230.789 454H122.221C121.798 454.001 121.38 453.911 120.989 453.735C120.598 453.56 120.243 453.302 119.944 452.977C119.645 452.652 119.407 452.266 119.245 451.841C119.083 451.416 119 450.96 119 450.5C119 450.04 119.083 449.584 119.245 449.159C119.407 448.734 119.645 448.348 119.944 448.023C120.243 447.698 120.598 447.44 120.989 447.265C121.38 447.089 121.798 446.999 122.221 447H230.789C231.641 447.002 232.458 447.371 233.06 448.027C233.662 448.683 234 449.573 234 450.5C234 451.427 233.662 452.317 233.06 452.973C232.458 453.629 231.641 453.998 230.789 454Z" fill="#EC9D9D"/>
<path d="M230.784 486H122.216C121.793 486 121.375 485.935 120.985 485.81C120.595 485.684 120.24 485.5 119.942 485.268C119.643 485.036 119.406 484.76 119.245 484.457C119.083 484.153 119 483.828 119 483.5C119 483.172 119.083 482.847 119.245 482.543C119.406 482.24 119.643 481.964 119.942 481.732C120.24 481.5 120.595 481.316 120.985 481.19C121.375 481.065 121.793 481 122.216 481H230.784C231.637 481 232.455 481.263 233.058 481.732C233.661 482.201 234 482.837 234 483.5C234 484.163 233.661 484.799 233.058 485.268C232.455 485.737 231.637 486 230.784 486Z" fill="#CCCCCC"/>
<path d="M133.15 201H104.85C104.624 201 104.408 201.095 104.249 201.263C104.09 201.431 104 201.66 104 201.898C104 202.136 104.09 202.364 104.249 202.533C104.408 202.701 104.624 202.796 104.85 202.796H118.15V232.102C118.15 232.34 118.24 232.569 118.399 232.737C118.559 232.905 118.775 233 119 233C119.225 233 119.441 232.905 119.601 232.737C119.76 232.569 119.85 232.34 119.85 232.102V216.851C119.85 213.124 121.251 209.549 123.745 206.913C126.24 204.277 129.623 202.796 133.15 202.796C133.376 202.796 133.592 202.701 133.751 202.533C133.91 202.364 134 202.136 134 201.898C134 201.66 133.91 201.431 133.751 201.263C133.592 201.095 133.376 201 133.15 201Z" fill="#3F3D56"/>
<path d="M235.066 494C234.55 494 228 493.607 228 493.122L234.131 463.878C234.131 463.645 234.23 463.422 234.405 463.257C234.58 463.093 234.818 463 235.066 463C235.313 463 235.551 463.093 235.726 463.257C235.902 463.422 236 463.645 236 463.878V493.122C236 493.355 235.902 493.578 235.726 493.743C235.551 493.907 235.313 494 235.066 494Z" fill="#3F3D56"/>
<path d="M297.334 193.941C297.334 188.653 295.291 183.58 291.656 179.841C288.021 176.101 283.091 174 277.95 174H61C69.7716 174 175.171 180.376 242.32 188.425C253.515 189.765 264.017 194.691 272.342 202.507C280.668 210.322 286.395 220.632 288.715 231.978C308.457 328.605 304.851 427.011 279.708 527.059C279.708 532.347 277.666 537.42 274.031 541.159C270.396 544.899 265.465 547 260.324 547H277.95C283.091 547 288.021 544.899 291.656 541.159C295.291 537.42 297.334 532.347 297.334 527.059C325.783 413.851 326.658 302.746 297.334 193.941Z" fill="#E6E6E6"/>
<path d="M290.169 537L288.534 536.568C317.415 422.229 317.425 310.202 288.564 203.596C285.56 198.021 281.238 193.307 275.994 189.884C270.749 186.461 264.75 184.439 258.545 184.002L172 177.725L172.12 176L258.664 182.277C265.168 182.735 271.454 184.859 276.946 188.454C282.437 192.049 286.958 196.999 290.091 202.85L290.166 203.036C304.757 256.876 312.103 312.502 311.999 368.374C311.89 423.352 304.545 480.087 290.169 537Z" fill="white"/>
</svg>
