<svg width="650" height="700" viewBox="0 0 650 700" fill="none" xmlns="http://www.w3.org/2000/svg">
<path d="M490 700H361.78L360.53 694.829L353.675 666.378L346.831 694.829L345.592 700H213.695C213.409 698.256 213.134 696.532 212.858 694.829C209.013 671.336 205.209 651.777 201.989 646.18C192.645 629.978 201.353 640.127 211.322 630.576C221.291 621.035 211.322 630.576 205.485 618.328C199.637 606.079 231.303 513 231.303 513L447.316 516.052C447.316 516.052 487.214 582.86 487.627 592.077C487.86 597.319 488.972 650.196 489.883 694.829C489.926 696.563 489.958 698.297 490 700Z" fill="#2F2E41"/>
<path d="M364.155 577.825C364.155 577.825 456.22 618.357 470.725 587.266C485.229 556.175 478.049 514.618 469.064 509.179C460.078 503.739 450.21 478.679 463.356 461.36C476.502 444.041 455.824 414.782 450.034 411.794C445.626 409.519 433.632 281.318 428.16 220.282C427.314 210.847 423.635 201.847 417.567 194.366C411.5 186.886 403.301 181.243 393.96 178.118L372.196 144.481L316.364 144L288.472 181.006L248.218 195.414L218.002 314.831C218.002 314.831 217.71 367.577 224.061 423.896C226.037 441.419 228.655 459.288 232.126 476.022C240.301 515.435 204.692 547.892 225.048 555.352C281.823 576.16 364.155 577.825 364.155 577.825Z" fill="#E6E6E6"/>
<path d="M248.952 501.06L424.898 495C426.093 495 427.277 495.226 428.381 495.664C429.485 496.102 430.489 496.745 431.334 497.555C432.179 498.365 432.85 499.327 433.307 500.385C433.765 501.443 434 502.578 434 503.723V588.277C434 589.422 433.765 590.557 433.307 591.615C432.85 592.673 432.179 593.635 431.334 594.445C430.489 595.255 429.485 595.898 428.381 596.336C427.277 596.774 426.093 597 424.898 597H259.491C258.295 597 257.112 596.774 256.007 596.336C254.903 595.898 253.9 595.255 253.054 594.445C252.209 593.635 251.539 592.673 251.081 591.615C250.624 590.557 250.389 589.422 250.389 588.277C240.635 564.454 232.477 541.265 239.85 509.783C239.85 507.47 240.809 505.251 242.516 503.615C244.223 501.979 246.538 501.06 248.952 501.06Z" fill="#3F3D56"/>
<path d="M414 511H268V513H414V511Z" fill="#2F2E41"/>
<path d="M414 541H268V545H414V541Z" fill="#2F2E41"/>
<path d="M402 449H268V511H402V449Z" fill="#D3D3D3"/>
<path d="M402 449H268V511H402V449Z" fill="#0E6D2B"/>
<path d="M402 449H309V511H402V449Z" fill="#49B96B"/>
<path d="M388.353 459H369.647C369.476 459 369.311 458.947 369.19 458.854C369.068 458.76 369 458.633 369 458.5C369 458.367 369.068 458.24 369.19 458.146C369.311 458.053 369.476 458 369.647 458H388.353C388.524 458 388.689 458.053 388.81 458.146C388.932 458.24 389 458.367 389 458.5C389 458.633 388.932 458.76 388.81 458.854C388.689 458.947 388.524 459 388.353 459Z" fill="white"/>
<path d="M298.353 503H279.645C279.473 502.999 279.309 502.947 279.189 502.853C279.068 502.759 279 502.632 279 502.5C279 502.368 279.068 502.241 279.189 502.147C279.309 502.053 279.473 502.001 279.645 502H298.353C298.524 502 298.689 502.053 298.81 502.146C298.932 502.24 299 502.367 299 502.5C299 502.633 298.932 502.76 298.81 502.854C298.689 502.947 298.524 503 298.353 503Z" fill="white"/>
<path d="M333.354 459H276.675C276.52 459.003 276.369 458.962 276.247 458.884C276.126 458.806 276.042 458.697 276.011 458.574C275.994 458.502 275.997 458.427 276.021 458.356C276.045 458.285 276.089 458.219 276.15 458.164C276.21 458.108 276.286 458.065 276.371 458.037C276.456 458.008 276.548 457.996 276.64 458.001H333.656C333.784 458.057 333.885 458.146 333.944 458.253C334.002 458.36 334.016 458.48 333.981 458.594C333.947 458.707 333.867 458.809 333.753 458.882C333.64 458.956 333.499 458.997 333.354 459Z" fill="white"/>
<path d="M423.071 596.088L310.024 620C306.41 620 302.944 618.631 300.389 616.193C297.833 613.756 296.397 610.45 296.397 607.003C285.295 579.913 285.107 554.519 296.397 530.91C296.397 527.463 297.833 524.157 300.389 521.719C302.944 519.282 306.41 517.912 310.024 517.912L423.071 494C426.685 494 430.151 495.369 432.706 497.807C435.262 500.244 436.698 503.55 436.698 506.997C447.145 535.416 455.783 563.307 436.698 583.09C436.698 586.537 435.262 589.843 432.706 592.281C430.151 594.718 426.685 596.088 423.071 596.088Z" fill="#2F2E41"/>
<path d="M321 534.337L322.443 543L395.999 541.135C396.245 536.599 362.835 533.203 327.407 534.163L321 534.337Z" fill="#3F3D56"/>
<path d="M321 555.337L322.443 564L395.999 562.135C396.245 557.599 362.835 554.203 327.407 555.163L321 555.337Z" fill="#3F3D56"/>
<path d="M321 580.337L322.443 589L395.999 587.135C396.245 582.599 362.835 579.203 327.407 580.163L321 580.337Z" fill="#3F3D56"/>
<path d="M450 406L447.927 425.04L447.44 429.444L446.695 436.514L430.689 583.47C432.013 587.709 431.831 592.248 430.172 596.378C428.513 600.507 425.47 603.994 421.52 606.293C416.956 608.897 411.499 609.661 406.347 608.417C401.195 607.172 396.77 604.022 394.044 599.657C393.947 599.502 393.882 599.347 393.785 599.192C391.064 594.65 390.3 589.272 391.655 584.2C393.01 579.128 396.378 574.761 401.043 572.027C402.008 571.497 403.016 571.041 404.056 570.662L403.926 566.538L403.538 553.607L403.246 543.839L402.63 524.396L402.403 516.86L401.658 492.425L400.946 468.857L400.071 440.297L399.39 418.342L407.652 416.326L450 406Z" fill="#A0616A"/>
<path d="M465.608 380.674C464.874 384.319 464.203 386.674 463.724 387.431C459.604 393.711 457.081 384.936 459.348 401.758C461.169 415.412 450.245 413.701 454.174 416.617C460.658 421.44 451.715 423.57 447.786 426.178C446.029 427.327 450.894 427.054 452.906 428.653C453.863 429.383 449.317 431.493 450.437 431.953C454.717 433.916 452.258 435.402 446.573 436.551C437.15 438.43 418.913 439.355 407.893 439.72C404.763 439.86 402.208 439.916 400.611 439.972C399.429 440 398.759 440 398.759 440C398.759 440 395.98 438.262 394.83 432.963C394 429.262 394 423.795 396.299 415.945C397.705 411.122 400.1 407.674 401.505 404.898C402.32 403.604 402.7 402.095 402.591 400.58V400.552C402.368 399.123 401.314 397.805 398.918 396.403C394.606 393.88 397.002 388.581 400.356 383.59C403.55 378.908 407.574 374.45 407.574 372.824C407.574 369.375 381 296.087 381 296.087L390.774 185.426C398.228 180.444 407.276 178.245 416.261 179.23C422.426 180.015 429.293 182.539 436.352 188.202C442.516 193.164 448.84 200.566 454.909 211.276C480.716 256.78 471.102 353.815 465.608 380.674Z" fill="#E6E6E6" fill-opacity="0.8"/>
<path d="M335.5 131C367.809 131 394 106.152 394 75.5C394 44.8482 367.809 20 335.5 20C303.191 20 277 44.8482 277 75.5C277 106.152 303.191 131 335.5 131Z" fill="#A0616A"/>
<path d="M394.919 103.734C394.919 103.734 378.925 116.326 370.155 120C372.583 111.87 375.113 97.9113 377.535 89.8041C378.794 85.5383 380.08 81.1796 379.875 76.7707C379.653 72.3321 377.682 67.7488 373.779 65.4489C371.885 64.3281 369.673 63.8103 367.457 63.9688C365.241 64.1273 363.133 64.954 361.431 66.3319C359.73 67.7097 358.521 69.5689 357.976 71.646C357.431 73.7231 357.578 75.9128 358.396 77.905C354.575 77.654 352.418 73.446 351.95 69.7672C351.482 66.0882 351.836 62.0798 349.727 58.9608C347.695 55.9373 343.681 54.5586 339.922 54.7244C336.194 54.8736 332.653 56.3492 329.312 58.0289C319.76 62.7935 311.085 69.3703 300.807 72.5138C298.746 73.1458 296.628 73.5903 294.48 73.8414C294.555 67.8492 292.495 62.0137 288.644 57.3098C288.087 62.8925 286.454 68.326 283.831 73.3319C278.875 72.4033 274.472 69.6902 271.517 65.7439C268.3 61.2512 267.509 55.4586 268.266 50.057C268.633 47.5759 269.26 45.137 270.137 42.7778C271.648 42.4275 273.121 41.9347 274.533 41.3067C277.648 39.9906 280.463 38.0939 282.816 35.7255C279.636 35.854 276.452 35.6362 273.323 35.0762C273.401 34.897 273.472 34.741 273.55 34.5616C275.341 30.7891 277.324 26.8931 280.782 24.4444C284.241 21.9959 289.599 21.5087 292.603 24.493C300.412 12.6601 312.777 4.30293 326.977 1.25991C341.178 -1.78311 356.05 0.737298 368.323 8.26668C368.597 8.43454 368.869 8.60474 369.139 8.77729C366.9 11.2412 365.183 14.1032 364.083 17.2024C367.488 15.5144 371.105 14.2576 374.844 13.4632C377.476 16.2974 379.141 19.6974 378.427 23.3339C382.792 25.3826 391.304 28.796 387.28 31.0428C397.726 40.0586 404.3 52.5124 405.714 65.9608C407.127 79.4091 403.277 92.8812 394.919 103.734Z" fill="#2F2E41"/>
<path d="M324.967 485.919C324.625 491.03 322.189 495.801 318.195 499.184C314.201 502.567 308.975 504.285 303.666 503.961C303.486 503.929 303.305 503.907 303.122 503.896C297.663 503.464 292.593 501.001 288.988 497.03C285.384 493.058 283.528 487.891 283.815 482.625C283.915 481.559 284.097 480.502 284.359 479.462L280.733 477.214L269.358 470.124L260.792 464.801L243.683 454.176L237.066 450.075L236.182 449.53L215.583 436.702L199.041 426.426L197.636 425.553L194.871 423.83L169.763 408.231L163.01 404.043C162.987 404.021 163.01 404.021 163.01 404.021C162.784 403.606 176.992 396.821 176.765 396.407C173.185 389.578 168.653 383.841 174.499 359.319L168.539 349L183.767 361.523L187.28 364.424L192.945 369.049L263.012 426.601L310.51 465.608C314.911 466.981 318.716 469.719 321.332 473.393C323.947 477.067 325.225 481.472 324.967 485.919Z" fill="#A0616A"/>
<path d="M311.429 274.886L232.863 390.934L264.43 424.827L262.3 426.656L235.469 449.535L227.878 456L213.828 453.257C213.828 453.257 211.041 449.186 196.379 447.097C181.717 445.007 190.26 440.218 196.741 430.857C198.282 428.615 192.3 432.142 191.915 431.358C191.733 430.879 188.108 429.29 187.382 429.181C184.391 428.637 187.314 427.004 183.009 426.155C176.097 424.806 175.689 429.508 162.297 404.147C162.274 404.125 162.297 404.125 162.297 404.125C162.07 403.712 161.866 403.32 161.639 402.906C158.059 396.093 160.642 377.154 166.489 352.686C175.417 315.375 191.915 265.22 205.647 225.798C208.32 218.141 212.659 211.119 218.376 205.198C224.093 199.278 231.057 194.594 238.804 191.46C246.552 188.325 254.905 186.811 263.309 187.019C271.713 187.226 279.974 189.15 287.544 192.663C295.114 196.176 301.818 201.196 307.211 207.391C312.604 213.586 316.561 220.813 318.821 228.591C321.081 236.37 321.59 244.521 320.316 252.503C319.041 260.485 316.012 268.115 311.429 274.886Z" fill="#E6E6E6" fill-opacity="0.8"/>
</svg>
