<svg width="317" height="700" viewBox="0 0 317 700" fill="none" xmlns="http://www.w3.org/2000/svg">
<g clip-path="url(#clip0_158_295)">
<path d="M317 700H194.159L192.961 694.821L186.394 666.328L179.837 694.821L178.65 700H52.2864C52.0124 698.253 51.7485 696.527 51.4846 694.821C47.8003 671.293 44.1565 651.705 41.071 646.1C32.119 629.873 40.4621 640.038 50.0129 630.473C59.5638 620.917 50.0129 630.473 44.4204 618.206C38.8178 605.939 69.1552 512.722 69.1552 512.722L276.107 515.778C276.107 515.778 314.331 582.686 314.727 591.916C314.95 597.166 316.016 650.121 316.888 694.821C316.929 696.558 316.959 698.294 317 700Z" fill="#2F2E41"/>
<path d="M196.3 577.549C196.3 577.549 284.383 618.09 298.26 586.992C312.136 555.894 305.267 514.327 296.67 508.886C288.073 503.445 278.633 478.379 291.21 461.056C303.787 443.732 284.004 414.467 278.464 411.478C274.247 409.203 262.771 280.971 257.536 219.921C256.727 210.484 253.207 201.482 247.402 193.999C241.596 186.516 233.753 180.872 224.816 177.746L203.993 144.101L150.576 143.621L123.891 180.635L85.3782 195.047L56.4693 314.492C56.4693 314.492 56.1901 367.251 62.2658 423.583C64.1562 441.11 66.6618 458.984 69.9825 475.721C77.8038 515.144 43.7351 547.608 63.2105 555.07C117.53 575.884 196.3 577.549 196.3 577.549Z" fill="#E6E6E6"/>
<path d="M85.7345 500.752L255.187 494.659C256.338 494.659 257.478 494.886 258.542 495.327C259.605 495.768 260.572 496.414 261.386 497.228C262.2 498.042 262.845 499.009 263.286 500.073C263.726 501.137 263.953 502.278 263.953 503.43V588.437C263.953 589.589 263.726 590.729 263.286 591.793C262.845 592.857 262.2 593.824 261.386 594.639C260.572 595.453 259.605 596.099 258.542 596.54C257.478 596.98 256.338 597.207 255.187 597.207H95.8842C94.733 597.207 93.5931 596.98 92.5296 596.54C91.466 596.099 90.4996 595.453 89.6856 594.639C88.8716 593.824 88.226 592.857 87.7854 591.793C87.3449 590.729 87.1181 589.589 87.1181 588.437C77.7246 564.486 69.8671 541.173 76.9684 509.522C76.9684 507.196 77.892 504.965 79.536 503.321C81.1799 501.676 83.4096 500.752 85.7345 500.752Z" fill="#3F3D56"/>
<path d="M244.099 511.197H104.663V513.228H244.099V511.197Z" fill="#2F2E41"/>
<path d="M244.1 540.525H104.664V544.873H244.1V540.525Z" fill="#2F2E41"/>
<path d="M232.557 448.853H104.663V511.289H232.557V448.853Z" fill="#D3D3D3"/>
<path d="M232.557 448.853H104.663V511.289H232.557V448.853Z" fill="#0E6D2B"/>
<path d="M232.557 448.853H144.341V511.289H232.557V448.853Z" fill="#49B96B"/>
<path d="M218.771 459.28H201.351C201.191 459.28 201.038 459.216 200.925 459.103C200.812 458.99 200.748 458.837 200.748 458.677C200.748 458.517 200.812 458.363 200.925 458.25C201.038 458.137 201.191 458.074 201.351 458.074H218.771C218.931 458.074 219.084 458.137 219.197 458.25C219.31 458.363 219.374 458.517 219.374 458.677C219.374 458.837 219.31 458.99 219.197 459.103C219.084 459.216 218.931 459.28 218.771 459.28Z" fill="white"/>
<path d="M132.866 502.83H115.446C115.287 502.829 115.134 502.766 115.022 502.653C114.909 502.54 114.846 502.387 114.846 502.227C114.846 502.068 114.909 501.915 115.022 501.802C115.134 501.689 115.287 501.625 115.446 501.624H132.866C133.026 501.624 133.18 501.688 133.293 501.801C133.406 501.914 133.469 502.067 133.469 502.227C133.469 502.387 133.406 502.54 133.293 502.654C133.18 502.767 133.026 502.83 132.866 502.83Z" fill="white"/>
<path d="M166.381 459.28H112.784C112.637 459.283 112.494 459.235 112.379 459.143C112.264 459.051 112.185 458.922 112.156 458.778C112.139 458.693 112.142 458.605 112.165 458.521C112.188 458.437 112.229 458.36 112.287 458.294C112.344 458.229 112.416 458.178 112.496 458.145C112.576 458.112 112.663 458.097 112.75 458.103H166.667C166.788 458.169 166.883 458.274 166.939 458.4C166.994 458.526 167.007 458.667 166.974 458.801C166.942 458.935 166.866 459.054 166.758 459.141C166.651 459.227 166.518 459.276 166.381 459.28Z" fill="white"/>
<path d="M252.289 596.283L144.03 620.304C140.569 620.304 137.25 618.928 134.803 616.48C132.355 614.031 130.981 610.71 130.981 607.248C120.348 580.035 120.168 554.527 130.981 530.812C130.981 527.349 132.355 524.028 134.803 521.58C137.25 519.131 140.569 517.756 144.03 517.756L252.289 493.735C255.75 493.735 259.069 495.111 261.516 497.559C263.963 500.008 265.338 503.329 265.338 506.791C275.343 535.339 283.615 563.355 265.338 583.228C265.338 586.69 263.963 590.011 261.516 592.459C259.069 594.908 255.75 596.283 252.289 596.283Z" fill="#2F2E41"/>
<path d="M154.528 533.979L155.913 542.539L226.555 540.696C226.792 536.214 194.705 532.859 160.681 533.807L154.528 533.979Z" fill="#3F3D56"/>
<path d="M154.528 555.303L155.913 563.863L226.555 562.021C226.792 557.539 194.705 554.183 160.681 555.132L154.528 555.303Z" fill="#3F3D56"/>
<path d="M154.528 580.689L155.913 589.249L226.555 587.407C226.792 582.925 194.705 579.569 160.681 580.518L154.528 580.689Z" fill="#3F3D56"/>
<path d="M278.745 405.715L276.754 424.824L276.288 429.243L275.572 436.339L260.205 583.827C261.476 588.081 261.301 592.637 259.708 596.782C258.115 600.926 255.194 604.426 251.402 606.733C247.02 609.346 241.781 610.113 236.835 608.864C231.888 607.615 227.64 604.453 225.023 600.072C224.929 599.917 224.867 599.761 224.774 599.606C222.161 595.048 221.428 589.65 222.729 584.56C224.03 579.469 227.263 575.087 231.742 572.343C232.669 571.811 233.636 571.353 234.635 570.973L234.51 566.834L234.137 553.856L233.857 544.052L233.266 524.539L233.048 516.976L232.333 492.452L231.648 468.799L230.809 440.136L230.155 418.101L238.088 416.078L278.745 405.715Z" fill="#A0616A"/>
<path d="M294.112 380.788C293.397 384.436 292.743 386.793 292.277 387.55C288.264 393.836 285.806 385.053 288.015 401.89C289.788 415.556 279.149 413.845 282.976 416.763C289.29 421.59 280.58 423.722 276.754 426.332C275.043 427.483 279.781 427.21 281.74 428.809C282.673 429.54 278.245 431.652 279.336 432.113C283.505 434.077 281.109 435.565 275.572 436.715C266.395 438.595 248.633 439.521 237.901 439.886C234.852 440.026 232.364 440.083 230.808 440.139C229.657 440.167 229.004 440.167 229.004 440.167C229.004 440.167 226.298 438.427 225.178 433.123C224.369 429.419 224.369 423.947 226.609 416.09C227.978 411.263 230.311 407.811 231.679 405.033C232.473 403.738 232.843 402.227 232.737 400.712V400.683C232.519 399.252 231.493 397.933 229.16 396.53C224.96 394.005 227.293 388.701 230.559 383.706C233.67 379.02 237.59 374.558 237.59 372.93C237.59 369.479 211.708 296.125 211.708 296.125L221.227 185.364C228.487 180.377 237.3 178.176 246.051 179.162C252.055 179.948 258.743 182.473 265.618 188.142C271.621 193.109 277.78 200.517 283.691 211.237C308.826 256.782 299.463 353.904 294.112 380.788Z" fill="#E6E6E6"/>
<path d="M168.597 131.064C199.28 131.064 224.154 106.178 224.154 75.4804C224.154 44.7826 199.28 19.8972 168.597 19.8972C137.913 19.8972 113.04 44.7826 113.04 75.4804C113.04 106.178 137.913 131.064 168.597 131.064Z" fill="#A0616A"/>
<path d="M226.414 103.76C226.414 103.76 210.998 116.354 202.545 120.029C204.885 111.897 207.324 97.9359 209.658 89.8272C210.871 85.5606 212.111 81.2011 211.913 76.7914C211.699 72.3519 209.799 67.7678 206.037 65.4675C204.212 64.3465 202.08 63.8286 199.944 63.9871C197.808 64.1456 195.776 64.9725 194.136 66.3506C192.496 67.7287 191.331 69.5883 190.805 71.6657C190.28 73.7432 190.422 75.9333 191.21 77.9259C187.528 77.6749 185.448 73.466 184.997 69.7866C184.546 66.1069 184.888 62.0977 182.855 58.9782C180.896 55.9542 177.027 54.5752 173.404 54.741C169.81 54.8902 166.397 56.3661 163.177 58.0461C153.97 62.8116 145.608 69.3897 135.702 72.5337C133.715 73.1658 131.673 73.6104 129.604 73.8616C129.676 67.8683 127.69 62.0316 123.979 57.3269C123.441 62.9106 121.867 68.3451 119.339 73.352C114.562 72.4232 110.318 69.7096 107.47 65.7626C104.369 61.269 103.607 55.4754 104.336 50.0728C104.69 47.5912 105.294 45.1519 106.139 42.7921C107.596 42.4418 109.016 41.949 110.377 41.3208C113.379 40.0044 116.093 38.1074 118.361 35.7386C115.296 35.8671 112.226 35.6492 109.211 35.0891C109.286 34.9099 109.354 34.7538 109.429 34.5745C111.156 30.8013 113.067 26.9045 116.401 24.4554C119.734 22.0064 124.898 21.5192 127.794 24.504C135.321 12.6689 147.239 4.31017 160.927 1.26658C174.614 -1.77701 188.949 0.743874 200.779 8.27466C201.042 8.44255 201.305 8.61278 201.565 8.78536C199.407 11.2497 197.752 14.1122 196.691 17.212C199.974 15.5237 203.46 14.2667 207.064 13.4721C209.601 16.3069 211.205 19.7075 210.518 23.3447C214.725 25.3937 222.929 28.8078 219.051 31.055C229.12 40.0725 235.456 52.5286 236.819 65.9795C238.181 79.4303 234.47 92.9049 226.414 103.76Z" fill="#2F2E41"/>
<path d="M157.537 485.553C157.208 490.647 154.872 495.403 151.041 498.774C147.21 502.146 142.199 503.859 137.107 503.536C136.934 503.504 136.76 503.482 136.585 503.471C131.349 503.04 126.486 500.585 123.029 496.627C119.572 492.669 117.792 487.519 118.067 482.27C118.164 481.208 118.338 480.154 118.589 479.117L115.112 476.877L104.201 469.811L95.9856 464.505L79.5763 453.915L73.2299 449.827L72.3822 449.284L52.6259 436.498L36.7599 426.257L35.4124 425.387L32.7608 423.669L8.67928 408.122L2.20255 403.947C2.18078 403.925 2.20255 403.925 2.20255 403.925C1.98526 403.512 15.6125 396.749 15.3952 396.336C11.9612 389.53 7.61432 383.811 13.2218 359.371L7.50573 349.086L22.1111 361.567L25.4799 364.459L30.9134 369.069L98.1154 426.431L143.67 465.309C147.892 466.678 151.541 469.407 154.05 473.069C156.558 476.731 157.784 481.121 157.537 485.553Z" fill="#A0616A"/>
<path d="M145.235 274.829L69.8829 390.748L100.159 424.604L98.1156 426.431L72.3823 449.284L65.1014 455.742L51.6261 453.002C51.6261 453.002 48.9529 448.936 34.8908 446.849C20.8288 444.761 29.0227 439.977 35.2386 430.627C36.7165 428.388 30.9787 431.91 30.6092 431.127C30.4353 430.649 26.9579 429.062 26.2624 428.953C23.3934 428.409 26.1971 426.779 22.0677 425.93C15.4388 424.582 15.0476 429.279 2.2026 403.947C2.18083 403.925 2.2026 403.925 2.2026 403.925C1.98531 403.512 1.78965 403.121 1.57236 402.707C-1.86167 395.901 0.616059 376.984 6.2235 352.543C14.7866 315.273 30.6092 265.174 43.7801 225.795C46.3433 218.147 50.5048 211.133 55.988 205.219C61.4711 199.305 68.1501 194.626 75.5807 191.495C83.0113 188.364 91.0231 186.852 99.0832 187.059C107.143 187.267 115.067 189.189 122.327 192.697C129.587 196.206 136.017 201.221 141.189 207.409C146.361 213.597 150.157 220.816 152.324 228.586C154.492 236.356 154.98 244.498 153.758 252.471C152.536 260.445 149.63 268.066 145.235 274.829Z" fill="#E6E6E6"/>
</g>
<defs>
<clipPath id="clip0_158_295">
<rect width="317" height="700" fill="white"/>
</clipPath>
</defs>
</svg>
